<?xml version="1.0" encoding="iso-8859-1"?>
<!-- Generator: Adobe Illustrator 15.1.0, SVG Export Plug-In . SVG Version: 6.00 Build 0)  -->
<!DOCTYPE svg PUBLIC "-//W3C//DTD SVG 1.1//EN" "http://www.w3.org/Graphics/SVG/1.1/DTD/svg11.dtd">
<svg version="1.1" id="Layer_1" xmlns="http://www.w3.org/2000/svg" xmlns:xlink="http://www.w3.org/1999/xlink" x="0px" y="0px"
	 width="595.275px" height="595.28px" viewBox="0 0 595.275 595.28" style="enable-background:new 0 0 595.275 595.28;"
	 xml:space="preserve">
<g>
	<g>
		<g>
			<path style="fill:#FEC340;" d="M560.363,34.917c-2.352,7.969-4.543,16.018-6.852,24.499
				c-7.281,26.747-14.811,54.403-27.952,80.673c-14.875,29.736-34.916,53.101-61.267,71.429
				c-18.948,13.184-50.851,23.722-74.277,30.241c-22.732,6.326-42.179,10.206-47.664,11.164c0.968-5.542,4.854-24.975,11.167-47.657
				c6.521-23.428,17.059-55.334,30.234-74.29c18.33-26.348,41.697-46.386,71.437-61.26c26.271-13.14,53.929-20.668,80.677-27.948
				C544.346,39.46,552.396,37.269,560.363,34.917 M562.339,32.825l-0.184,0.204C502.524,50.886,431,60.787,382.686,130.233
				c-25.959,37.35-42.26,124.214-41.863,124.214c0,0,0.001,0,0.001,0c-0.001,0.005,0.011,0.008,0.038,0.008
				c2.054,0,87.291-16.207,124.174-41.871c69.456-48.308,79.357-119.831,97.218-179.461l0.192-0.182
				c-0.049,0.012-0.103,0.02-0.146,0.039C562.307,32.937,562.326,32.883,562.339,32.825L562.339,32.825z"/>
		</g>
		<g>
			<path style="fill:#FEC340;" d="M545.896,49.385c-0.621,2.266-1.236,4.524-1.847,6.765l-0.174,0.642
				c-14.397,52.886-29.285,107.574-85.287,146.524c-27.146,18.887-83.756,32.529-103.506,36.874
				c4.353-19.754,18.013-76.376,36.871-103.509c38.951-55.988,93.641-70.876,146.534-85.274l1.946-0.531
				C542.245,50.383,544.067,49.886,545.896,49.385 M547.755,47.526c-3.223,0.887-6.436,1.761-9.609,2.626
				c-53.115,14.459-108.037,29.408-147.26,85.786c-18.208,26.199-31.962,80.305-37.505,105.953
				c25.643-5.533,79.742-19.273,105.95-37.508c56.386-39.217,71.34-94.137,85.799-147.25
				C545.993,53.959,546.867,50.746,547.755,47.526L547.755,47.526z"/>
		</g>
		<g>
			<path style="fill:#FEC340;" d="M531.65,63.631c-6.646,24.136-13.682,47.637-25.197,69.883
				c-13.249,25.596-30.771,45.747-53.569,61.604c-21.325,14.836-64.632,26.765-84.404,31.681
				c4.921-19.778,16.857-63.095,31.675-84.414c15.856-22.792,36.007-40.311,61.602-53.557
				C484.002,77.316,507.509,70.278,531.65,63.631 M533.509,61.772c-49.104,13.458-99.021,28.989-134.421,79.871
				c-12.716,18.294-24.462,54.542-32.385,86.934c32.385-7.916,68.623-19.66,86.923-32.392
				C504.521,160.786,520.055,110.861,533.509,61.772L533.509,61.772z"/>
		</g>
		<g>
			<path style="fill:#FEC340;" d="M517.084,78.195c-13.737,45.706-31.117,81.743-69.905,108.723
				c-11.822,8.223-35.309,17.602-64.66,25.844c8.247-29.364,17.624-52.855,25.837-64.671
				C435.331,109.315,471.371,91.937,517.084,78.195 M519.017,76.262c-44.282,13.105-83.078,29.904-111.729,71.087
				c-8.589,12.357-18.245,36.883-26.64,67.283c30.395-8.391,54.912-18.049,67.273-26.646
				C489.119,159.33,505.915,120.54,519.017,76.262L519.017,76.262z"/>
		</g>
		<g>
			<path style="fill:#FEC340;" d="M501.543,93.736c-14.153,40.097-32.215,65.607-60.068,84.981
				c-8.459,5.884-24.037,12.643-44.029,19.116c6.48-20.007,13.236-35.587,19.11-44.039
				C435.927,125.951,461.439,107.893,501.543,93.736 M503.655,91.624c-36.479,12.539-65.79,29.263-88.167,61.429
				c-6.249,8.991-13.325,25.584-20.052,46.79c21.191-6.72,37.784-13.8,46.78-20.058C474.393,157.405,491.119,128.098,503.655,91.624
				L503.655,91.624z"/>
		</g>
		<g>
			<path style="fill:#FEC340;" d="M483.547,111.733c-11.95,25.962-26.786,44.184-47.78,58.782
				c-4.647,3.235-12.147,6.947-21.8,10.795c3.857-9.672,7.567-17.176,10.79-21.809C439.352,138.518,457.576,123.685,483.547,111.733
				 M486.142,109.138c-28.01,12.355-47.297,27.832-62.452,49.622c-3.619,5.203-7.787,13.87-12.019,24.848
				c10.97-4.227,19.63-8.399,24.839-12.025C458.306,156.426,473.787,137.143,486.142,109.138L486.142,109.138z"/>
		</g>
		<g>
			<path style="fill:#FEC340;" d="M459.497,135.781c-9.555,7.123-17.656,15.254-24.802,24.796
				C444.238,153.429,452.373,145.331,459.497,135.781L459.497,135.781z"/>
		</g>
	</g>
	<g>
		<g>
			<path style="fill:#FEC340;" d="M157.909,186.931c0.232,19.23,0.208,33.047,0.182,48.944c-0.015,8.736-0.03,17.769-0.004,28.534
				c0.07,32.299-1.374,75.081-13.261,119.585c-12.933,48.42-35.583,90.287-69.248,127.995c-2.784,3.135-3.884,5.542-3.361,7.372
				c0.342,1.154,2.529,3.195,3.343,3.563c0.385,0.172,0.815,0.259,1.279,0.259c1.684,0,3.854-1.173,6.452-3.486
				c37.407-33.394,78.893-55.941,126.83-68.931c44.407-12.032,86.797-13.575,118.765-13.575l1.985,0.002
				c4.214,0.01,8.179,0.014,11.96,0.014c5.793,0,11.16-0.009,16.346-0.017c4.849-0.009,9.541-0.016,14.278-0.016
				c9.111,0,20.324,0.024,34.898,0.201c-25.309,36.823-55.07,69.535-86.182,94.707c-30.205,24.438-61.009,41.336-89.082,48.867
				c-15.682,4.208-33.645,6.254-54.915,6.254c-21.408,0-43.678-2.043-65.215-4.019c-21.59-1.98-41.983-3.852-61.655-3.853
				c-14.776,0-27.457,1.091-38.684,3.333c5.948-29.783,2.801-64.078-0.527-100.34c-3.759-40.964-7.647-83.321,2.228-120.145
				c7.53-28.072,24.43-58.875,48.872-89.079C88.365,241.997,121.08,212.239,157.909,186.931 M159.178,184.488
				C80.326,238.113,28.08,305.868,13.065,361.844c-18.713,69.779,11.616,158.448-2.115,222.474l-0.018,0.019
				c0.001,0,0.001,0,0.002,0c0.001,0,0.003,0,0.004,0c-0.003,0.002-0.001,0.009-0.001,0.021l0.025-0.021
				c12.605-2.707,26.156-3.704,40.341-3.704c39.828,0.002,84.575,7.871,126.87,7.871c19.145,0,37.792-1.613,55.252-6.298
				c55.971-15.016,123.74-67.251,177.369-146.1c-14.522-0.188-26.059-0.232-37.34-0.232c-9.803,0-19.414,0.033-30.624,0.033
				c-3.78,0-7.744-0.004-11.958-0.014c-0.662-0.002-1.322-0.002-1.988-0.002c-72.033,0-163.428,8.71-246.461,82.836
				c-2.547,2.269-4.388,3.156-5.586,3.156c-0.287,0-0.537-0.052-0.751-0.146c-0.575-0.26-2.419-2.053-2.624-2.744
				c-0.334-1.168,0.442-3.162,3.086-6.14c74.812-83.799,82.994-176.113,82.836-248.447
				C159.311,233.324,159.583,215.88,159.178,184.488L159.178,184.488z M10.932,584.336c-0.004,0-0.007,0.003-0.009,0.009
				L10.932,584.336L10.932,584.336z"/>
		</g>
		<g>
			<path style="fill:#FEC340;" d="M148.083,206.259c0.029,5.875,0.034,10.933,0.035,15.185c0,0-0.035,24.992-0.035,30.821
				c-0.001,3.844,0.016,14.114,0.016,14.114l0,0c-0.001,73.867-9.505,160.023-79.994,238.976c-2.578,2.905-6.005,7.423-6.005,13.083
				c0,1.268,0.174,2.491,0.536,3.749c1.367,4.638,6.099,8.629,8.87,9.867c1.714,0.761,3.506,1.146,5.325,1.146
				c4.19,0,8.603-2.036,13.115-6.053c78.933-70.469,165.142-79.97,239.063-79.97l1.838,0.002c4.298,0.011,8.334,0.014,12.184,0.014
				c5.46,0,10.543-0.007,15.458-0.015l0.729-0.001c5.017-0.009,9.826-0.017,14.664-0.017c5.504,0,10.383,0.011,15.141,0.033
				c-23.086,30.892-49.61,58.51-76.83,79.986c-27.894,22.008-56.142,37.264-81.691,44.118c-14.804,3.973-31.932,5.903-52.363,5.903
				c-21.006,0-42.978-2.015-64.26-3.967c-21.927-2.013-42.639-3.914-62.604-3.914c-9.755,0-18.514,0.455-26.714,1.391
				c0.926-8.198,1.376-16.955,1.376-26.708c-0.002-20.129-1.981-41.705-3.897-62.595c-1.956-21.304-3.979-43.334-3.979-64.329
				c0-20.389,1.933-37.501,5.909-52.313c6.85-25.543,22.105-53.787,44.117-81.68C89.565,255.873,117.187,229.35,148.083,206.259
				 M149.369,203.684C84.681,251.485,36.802,311.899,22.714,364.432c-4.009,14.936-5.953,32.158-5.953,52.649
				c0,0.003,0,0.003,0,0.006c0,21.021,2.024,43.094,3.984,64.442c1.912,20.844,3.89,42.398,3.892,62.476
				c0,10.279-0.515,19.611-1.56,28.193c9.116-1.122,18.532-1.576,28.198-1.576c19.886,0,40.84,1.922,62.485,3.909
				c21.456,1.968,43.302,3.973,64.378,3.973c18.411,0,36.232-1.529,52.7-5.948c52.542-14.096,112.962-61.964,160.76-126.646
				c-6.205-0.035-11.981-0.047-17.717-0.047c-4.838,0-9.648,0.008-14.666,0.017c-5.14,0.008-10.455,0.016-16.185,0.016
				c-3.848,0-7.884-0.004-12.181-0.014c-0.612-0.001-1.227-0.002-1.841-0.002c-74.481,0-161,9.835-239.928,80.3
				c-4.281,3.81-8.381,5.722-12.249,5.722c-1.643,0-3.243-0.344-4.798-1.034c-2.661-1.189-6.953-4.985-8.15-9.046
				c-0.329-1.146-0.483-2.256-0.483-3.382c0-5.224,3.242-9.476,5.678-12.221c70.779-79.279,80.32-165.726,80.321-239.838
				c0,0-0.017-10.271-0.016-14.114c0-5.83,0.035-30.82,0.035-30.82C149.417,216.291,149.409,210.447,149.369,203.684
				L149.369,203.684z"/>
		</g>
		<g>
			<path style="fill:#FEC340;" d="M138.122,226.706c-0.01,7.668-0.027,21.426-0.029,25.563l0.018,14.111
				c0,71.981-9.205,155.876-77.478,232.348c-2.107,2.375-8.52,9.605-8.52,19.711c0,2.179,0.315,4.388,0.94,6.573
				c2.169,7.364,8.884,13.709,14.399,16.172c2.923,1.297,6.159,1.982,9.359,1.982c6.743,0,13.399-2.881,19.785-8.564
				c76.433-68.236,160.388-77.437,232.432-77.437l1.793,0.002c4.451,0.012,8.624,0.017,12.598,0.017
				c5.201,0,10.063-0.008,14.765-0.016c0,0,6.002-0.01,10.394-0.014c-21.386,26.203-45.201,49.419-69.005,67.257
				c-24.498,18.357-49.279,31.235-71.663,37.239c-13.937,3.74-30.224,5.559-49.792,5.559c-20.616,0-42.33-1.993-63.329-3.922
				l-0.143-0.013c-22.153-2.029-43.078-3.946-63.351-3.946c-5.572,0-10.755,0.142-15.795,0.435
				c0.284-4.997,0.423-10.168,0.423-15.758c0-20.581-1.996-42.356-3.926-63.416l-0.009-0.094
				c-1.937-21.083-3.939-42.884-3.941-63.414c0-19.497,1.823-35.763,5.572-49.727c5.999-22.375,18.875-47.15,37.235-71.646
				C88.694,271.909,111.915,248.094,138.122,226.706 M139.426,223.975c-55.222,44.518-94.719,97.012-107.062,143.043
				c-3.78,14.077-5.616,30.452-5.616,50.063c0.001,20.575,2.006,42.415,3.946,63.533c1.931,21.062,3.93,42.839,3.93,63.391
				c0,6.046-0.167,11.729-0.509,17.145c5.652-0.362,11.381-0.521,17.181-0.521c20.258,0,41.407,1.941,63.375,3.954
				c21.201,1.946,42.792,3.927,63.447,3.927c17.666,0,34.645-1.447,50.129-5.603c46.049-12.353,98.546-51.843,143.061-107.053
				c-0.118,0-0.24,0-0.366,0c-4.14,0-12.759,0.015-12.759,0.015c-4.702,0.008-9.563,0.016-14.763,0.016
				c-3.973,0-8.145-0.005-12.594-0.017c-0.597-0.001-1.198-0.002-1.796-0.002c-72.599,0-156.859,9.524-233.298,77.767
				c-7.148,6.362-13.694,8.234-18.919,8.234c-3.683,0-6.709-0.929-8.832-1.871c-5.252-2.345-11.623-8.365-13.68-15.351
				c-0.596-2.086-0.887-4.148-0.887-6.206c0-9.613,6.167-16.565,8.193-18.85c68.563-76.797,77.804-160.981,77.804-233.209
				l-0.018-14.112C139.396,247.575,139.417,230.487,139.426,223.975L139.426,223.975z"/>
		</g>
		<g>
			<path style="fill:#FEC340;" d="M128.11,248.411c0.003,5.978,0.014,17.971,0.014,17.97c-0.001,70.097-8.909,151.73-74.969,225.724
				c-4.099,4.623-7.071,9.448-8.891,14.42c-0.685-8.996-1.511-18.013-2.316-26.803l-0.021-0.229
				c-1.913-20.829-3.892-42.367-3.892-62.411c-0.002-18.597,1.71-34.016,5.233-47.141c5.211-19.438,15.459-40.078,30.458-61.349
				C88.218,288.042,106.505,267.807,128.11,248.411 M129.41,245.51c-45.365,40.198-76.822,84.657-87.396,124.093
				c-3.55,13.226-5.279,28.755-5.277,47.478c0,20.089,1.98,41.665,3.897,62.53c1.08,11.781,2.179,23.753,2.945,35.644
				c0.76-7.755,4.3-15.237,10.55-22.288c66.351-74.319,75.294-156.244,75.296-226.586
				C129.424,266.381,129.409,248.446,129.41,245.51L129.41,245.51z"/>
		</g>
		<g>
			<path style="fill:#FEC340;" d="M118.117,271.685c-0.18,27.902-1.873,64.081-11.926,101.756
				c-10.528,39.452-28.314,73.796-54.338,104.895c-1.884-20.524-3.828-41.74-3.828-61.252c0-17.724,1.6-32.298,4.892-44.555
				C61.272,341.365,84.384,305.644,118.117,271.685 M119.431,268.535c-34.842,34.52-59.148,71.5-67.77,103.657
				c-3.323,12.373-4.936,27.057-4.936,44.892c0,19.649,1.962,40.982,3.856,61.616c0.085,0.946,0.171,1.898,0.259,2.846
				C110.518,411.731,119.25,334.978,119.431,268.535L119.431,268.535z"/>
		</g>
		<g>
			<path style="fill:#FEC340;" d="M107.39,297.986c-1.475,28.188-5.288,53.021-11.635,75.801
				c-7.959,28.566-19.81,54.089-36.186,77.904c-1.061-13.854-1.557-24.925-1.557-34.608c0-16.837,1.49-30.564,4.555-41.968
				C68.92,351.404,84.392,324.798,107.39,297.986 M108.87,294.296c-24.291,27.695-40.917,55.698-47.559,80.482
				c-3.096,11.52-4.599,25.356-4.599,42.305c0,12.225,0.788,25.226,1.846,38.33C96.296,402.085,106.581,345.707,108.87,294.296
				L108.87,294.296z"/>
		</g>
		<g>
			<path style="fill:#FEC340;" d="M94.237,331.702c-4.469,31.887-13.083,60.187-26.236,86.191C68,417.621,68,417.351,68,417.083
				c-0.001-15.944,1.377-28.825,4.215-39.381C76.057,363.369,83.457,347.915,94.237,331.702 M96.242,326.45
				c-12.441,17.84-21.047,35.112-25.283,50.915c-2.868,10.667-4.261,23.656-4.259,39.718c0,1.942,0.022,3.946,0.063,6.019
				C84.809,389.184,92.664,355.313,96.242,326.45L96.242,326.45z"/>
		</g>
		<g>
			<path style="fill:#FEC340;" d="M45.756,533.467c3.794,7.298,10.132,12.959,15.946,16.021c-3.583-0.104-7.02-0.153-10.376-0.153
				c-1.838,0-3.668,0.016-5.457,0.047c0.028-1.697,0.042-3.469,0.042-5.376C45.912,540.602,45.861,537.111,45.756,533.467
				 M44.136,525.125c0.3,6.353,0.477,12.659,0.475,18.881c0,2.299-0.021,4.525-0.068,6.702c2.253-0.05,4.514-0.073,6.783-0.073
				c6.19,0,12.441,0.176,18.76,0.477c-2.575-0.551-4.673-1.327-6.158-1.984c-7.359-3.29-16.142-11.256-19.207-21.658
				C44.494,526.686,44.301,525.907,44.136,525.125L44.136,525.125z"/>
		</g>
		<g>
			<path style="fill:#FEC340;" d="M329.061,465.854v1.3l1.737,0.002c4.286,0.012,8.315,0.016,12.157,0.016
				c1.324,0,2.625,0,3.907-0.001c-19.394,21.599-39.627,39.881-60.175,54.368c-21.274,14.999-41.919,25.249-61.364,30.464
				c-13.067,3.508-28.504,5.212-47.194,5.212c-20.193,0-41.687-1.972-62.473-3.88c-9.263-0.849-18.14-1.662-26.915-2.337
				c5.014-1.826,9.869-4.816,14.509-8.945c73.926-65.999,155.633-74.897,225.81-74.898V465.854 M329.061,465.854
				c-70.717,0.001-152.732,9.214-226.676,75.229c-8.081,7.19-15.834,9.953-22.383,10.594c11.592,0.759,23.422,1.843,35.537,2.953
				c20.985,1.926,42.341,3.886,62.591,3.886c16.902,0,33.035-1.366,47.531-5.257c39.454-10.582,83.913-42.04,124.106-87.391
				c-2.212,0.003-4.477,0.004-6.811,0.004c-3.841,0-7.869-0.004-12.154-0.016C330.22,465.855,329.644,465.854,329.061,465.854
				L329.061,465.854z"/>
		</g>
		<g>
			<path style="fill:#FEC340;" d="M323.634,477.164c-34.197,34.124-69.038,56.645-100.902,65.192
				c-12.203,3.274-26.792,4.866-44.599,4.866c-19.658,0-40.767-1.926-61.198-3.8c30.966-25.924,65.23-43.675,104.643-54.225
				C251.485,481.193,283.076,477.46,323.634,477.164 M326.776,475.848c-66.798,0.195-143.607,9.194-213.05,68.588
				c0.906,0.08,1.815,0.166,2.725,0.248c20.733,1.902,41.854,3.839,61.682,3.839c16.136,0,31.415-1.282,44.936-4.91
				C255.763,534.842,292.043,511.046,326.776,475.848L326.776,475.848z"/>
		</g>
		<g>
			<path style="fill:#FEC340;" d="M297.386,487.889c-26.708,22.941-53.354,38.41-77.242,44.817
				c-11.345,3.046-25.08,4.526-41.991,4.526c-9.768,0-20.827-0.489-34.568-1.532c23.808-16.374,49.337-28.224,77.921-36.18
				C244.296,493.177,269.153,489.364,297.386,487.889 M301.072,486.409c-51.474,2.292-107.895,12.563-161.21,50.304
				c13.045,1.046,25.97,1.819,38.292,1.819c15.356,0,29.776-1.201,42.328-4.57C245.455,527.264,273.49,510.642,301.072,486.409
				L301.072,486.409z"/>
		</g>
		<g>
			<path style="fill:#FEC340;" d="M263.68,501.035c-16.193,10.75-31.689,18.152-46.125,22.025
				c-10.452,2.805-23.413,4.168-39.625,4.168c-0.154,0-0.308-0.001-0.462-0.001C203.467,514.095,231.772,505.495,263.68,501.035
				 M268.936,499.032c-28.885,3.571-62.777,11.413-96.7,29.442c1.903,0.035,3.803,0.054,5.694,0.054
				c14.369,0,28.26-1.072,39.962-4.212C233.807,520.046,251.121,511.442,268.936,499.032L268.936,499.032z"/>
		</g>
	</g>
	<g>
		<path style="fill:#FEC340;" d="M223.464,355.738c3.792,7.296,10.122,12.96,15.961,16.041c-3.58-0.103-7.016-0.153-10.373-0.153
			c-1.844,0-3.68,0.017-5.475,0.048c0.029-1.739,0.043-3.544,0.042-5.38C223.62,362.883,223.568,359.387,223.464,355.738
			 M221.849,347.486c0.296,6.325,0.471,12.61,0.471,18.808c0.002,2.298-0.02,4.526-0.068,6.706c2.259-0.05,4.525-0.073,6.801-0.073
			c6.187,0,12.435,0.175,18.752,0.476c-2.548-0.542-4.623-1.306-6.092-1.954c-7.479-3.336-16.332-11.396-19.346-21.923
			C222.17,348.856,221.997,348.177,221.849,347.486L221.849,347.486z"/>
	</g>
	<g>
		<g>
			<path style="fill:#FEC340;" d="M335.618,9.221c0.234,19.398,0.211,33.322,0.184,49.345c-0.015,8.621-0.03,17.535-0.006,28.135
				c0.069,32.3-1.375,75.082-13.261,119.583c-12.933,48.42-35.583,90.286-69.245,127.992c-2.791,3.133-3.89,5.542-3.362,7.354
				c0.33,1.166,2.523,3.217,3.344,3.584c0.385,0.17,0.815,0.256,1.278,0.256c1.688,0,3.859-1.171,6.454-3.482
				c37.411-33.397,78.902-55.946,126.844-68.935c44.406-12.031,86.802-13.574,118.776-13.574l1.955,0.002
				c4.264,0.011,8.274,0.015,12.097,0.015c5.791,0,11.157-0.009,16.345-0.018c4.854-0.008,9.552-0.016,14.297-0.016
				c9.071,0,20.236,0.025,34.744,0.202c-25.31,36.826-55.07,69.539-86.181,94.71c-30.203,24.438-61.008,41.335-89.081,48.865
				c-15.681,4.208-33.643,6.253-54.911,6.253c-21.41,0-43.683-2.043-65.222-4.02c-21.594-1.981-41.99-3.853-61.665-3.854
				c-14.772,0-27.449,1.091-38.674,3.331c5.947-29.785,2.8-64.079-0.527-100.341c-3.759-40.962-7.646-83.32,2.229-120.139
				c7.53-28.073,24.429-58.875,48.87-89.078C266.072,64.288,298.788,34.529,335.618,9.221 M336.887,6.778
				c-78.857,53.627-131.098,121.38-146.112,177.356c-18.715,69.773,11.615,158.443-2.118,222.476l-0.014,0.014
				c0.001,0,0.003,0.001,0.006,0.001c-0.001,0.006-0.004,0.011-0.001,0.023l0.023-0.026c12.602-2.705,26.15-3.702,40.331-3.702
				c39.832,0.002,84.587,7.874,126.887,7.874c19.145,0,37.789-1.613,55.248-6.298c55.974-15.014,123.736-67.247,177.367-146.101
				c-14.457-0.188-25.953-0.232-37.187-0.232c-9.817,0-19.432,0.033-30.642,0.033c-3.821,0-7.831-0.004-12.094-0.014
				c-0.653-0.001-1.302-0.002-1.958-0.002c-72.039,0-163.442,8.704-246.486,82.839c-2.547,2.268-4.388,3.152-5.588,3.152
				c-0.288,0-0.539-0.051-0.753-0.146c-0.575-0.257-2.421-2.054-2.617-2.748c-0.338-1.162,0.436-3.166,3.082-6.137
				c74.811-83.797,82.991-176.111,82.835-248.443C337.025,55.615,337.292,38.17,336.887,6.778L336.887,6.778z M188.643,406.623
				c-0.005,0-0.009,0.003-0.011,0.012L188.643,406.623L188.643,406.623L188.643,406.623z"/>
		</g>
		<g>
			<path style="fill:#FEC340;" d="M325.793,28.55c0.031,6.207,0.036,11.457,0.037,15.454c0,0-0.036,25.201-0.036,31.107
				l0.015,13.562c0,73.864-9.503,160.017-79.984,238.964c-4.101,4.607-6.011,8.764-6.011,13.081c0,1.277,0.172,2.513,0.51,3.666
				c1.342,4.683,6.113,8.717,8.921,9.972c1.706,0.752,3.488,1.133,5.297,1.133c4.193,0,8.604-2.035,13.112-6.051
				c78.943-70.472,165.156-79.973,239.079-79.972l1.821,0.002c4.462,0.011,8.643,0.015,12.625,0.015
				c5.605,0,10.816-0.008,15.859-0.017l1.138-0.001c4.546-0.007,8.936-0.014,13.347-0.014c5.571,0,10.473,0.011,15.207,0.035
				c-23.086,30.891-49.609,58.51-76.828,79.987c-27.894,22.009-56.143,37.265-81.691,44.118c-14.802,3.972-31.929,5.902-52.36,5.902
				c-21.015,0-43-2.017-64.282-3.969c-21.943-2.014-42.669-3.915-62.619-3.915c-9.741,0-18.49,0.454-26.68,1.388
				c0.924-8.184,1.375-16.94,1.375-26.705c0.002-20.153-1.98-41.73-3.896-62.598c-1.956-21.314-3.979-43.355-3.979-64.328
				c0-20.379,1.933-37.489,5.909-52.308c6.853-25.545,22.109-53.791,44.119-81.682C267.276,78.159,294.898,51.636,325.793,28.55
				 M327.079,25.975c-64.69,47.796-112.564,108.214-126.656,160.748c-4.007,14.935-5.953,32.155-5.953,52.645
				c0,0.002,0,0.004,0,0.008c0,21.015,2.025,43.091,3.984,64.439c1.915,20.844,3.893,42.4,3.891,62.479
				c0,10.28-0.512,19.609-1.558,28.189c9.106-1.119,18.509-1.572,28.163-1.572c19.895,0,40.859,1.924,62.514,3.911
				c21.457,1.968,43.31,3.973,64.388,3.973c18.412,0,36.231-1.528,52.697-5.946c52.543-14.095,112.963-61.967,160.758-126.647
				c-6.227-0.038-12.022-0.049-17.782-0.049c-4.778,0-9.531,0.008-14.486,0.016c-5.043,0.009-10.253,0.017-15.857,0.017
				c-3.98,0-8.161-0.004-12.622-0.015c-0.604-0.001-1.219-0.002-1.824-0.002c-74.487-0.001-161.003,9.831-239.944,80.302
				c-4.277,3.81-8.377,5.721-12.247,5.721c-1.633,0-3.225-0.341-4.772-1.022c-2.71-1.211-7.021-5.041-8.196-9.141
				c-0.302-1.031-0.46-2.161-0.46-3.308c0-3.979,1.804-7.859,5.682-12.217c70.772-79.273,80.313-165.719,80.313-239.829
				l-0.015-13.563c0-5.904,0.036-31.104,0.036-31.104C327.129,38.774,327.12,32.847,327.079,25.975L327.079,25.975z"/>
		</g>
		<g>
			<path style="fill:#FEC340;" d="M315.833,48.994l-0.005,4.491c-0.009,7.802-0.02,18.12-0.02,21.637l0.012,13.55
				c0,71.979-9.203,155.87-77.457,232.324c-5.744,6.454-8.536,12.906-8.536,19.723c0,2.227,0.301,4.387,0.893,6.414
				c2.132,7.447,8.904,13.867,14.497,16.363c2.907,1.281,6.125,1.958,9.305,1.958c6.747,0,13.404-2.88,19.787-8.563
				c76.438-68.237,160.403-77.437,232.456-77.437l1.767,0.001c4.387,0.011,8.501,0.016,12.423,0.016
				c5.697,0,10.987-0.009,16.102-0.019l9.231-0.009c-21.387,26.203-45.202,49.421-69.003,67.257
				c-24.499,18.36-49.279,31.237-71.662,37.239c-13.934,3.74-30.218,5.559-49.786,5.559c-20.599,0-42.327-1.993-63.339-3.921
				c-22.199-2.037-43.168-3.961-63.502-3.961c-5.567,0-10.748,0.143-15.784,0.434c0.284-4.998,0.423-10.17,0.423-15.757
				c0-20.623-2.001-42.427-3.937-63.513l-0.016-0.174c-1.922-20.975-3.91-42.661-3.923-63.063l0.001-0.007v-0.169
				c0-19.5,1.822-35.764,5.57-49.719c6.001-22.381,18.879-47.159,37.24-71.656C266.407,94.193,289.627,70.379,315.833,48.994
				 M317.136,46.264c-55.215,44.511-94.715,97.003-107.063,143.048c-3.779,14.072-5.614,30.446-5.614,50.056l-0.002,0.007
				c0.002,20.567,2.009,42.404,3.945,63.525c1.933,21.059,3.932,42.837,3.932,63.394c0,6.044-0.167,11.726-0.509,17.144
				c5.648-0.361,11.373-0.521,17.169-0.521c20.26,0,41.414,1.94,63.384,3.956c21.204,1.945,42.799,3.926,63.458,3.926
				c17.665,0,34.643-1.447,50.123-5.603c46.049-12.349,98.545-51.845,143.059-107.055c-3.479,0.003-11.963,0.012-11.963,0.012
				c-5.115,0.01-10.404,0.019-16.101,0.019c-3.921,0-8.034-0.004-12.42-0.015c-0.588-0.001-1.18-0.002-1.77-0.002
				c-72.603,0-156.873,9.52-233.321,77.767c-7.149,6.363-13.697,8.232-18.921,8.232c-3.659,0-6.668-0.917-8.781-1.848
				c-5.334-2.381-11.749-8.468-13.771-15.531c-0.555-1.9-0.843-3.957-0.843-6.057c0-6.483,2.684-12.651,8.208-18.858
				c68.543-76.778,77.786-160.963,77.786-233.188l-0.012-13.551C317.107,70.287,317.129,52.596,317.136,46.264L317.136,46.264z"/>
		</g>
		<g>
			<path style="fill:#FEC340;" d="M305.822,70.7c0.001,6.025,0.012,17.973,0.012,17.972c0,70.094-8.902,151.72-74.932,225.683
				c-4.118,4.627-7.103,9.462-8.928,14.452c-0.689-9.048-1.52-18.117-2.33-26.958l-0.006-0.07
				c-1.909-20.772-3.883-42.25-3.894-62.243l0.002-0.008v-0.161c0-18.605,1.711-34.021,5.231-47.13
				c5.214-19.443,15.463-40.087,30.463-61.359C265.931,110.327,284.217,90.093,305.822,70.7 M307.122,67.799
				c-45.363,40.192-76.822,84.653-87.401,124.101c-3.55,13.222-5.275,28.747-5.275,47.467l-0.002,0.008
				c0,20.08,1.981,41.655,3.899,62.522c1.08,11.782,2.178,23.76,2.945,35.652c0.759-7.778,4.308-15.279,10.585-22.331
				c66.317-74.284,75.261-156.205,75.261-226.547C307.133,88.672,307.119,70.981,307.122,67.799L307.122,67.799z"/>
		</g>
		<g>
			<path style="fill:#FEC340;" d="M295.824,93.978c-0.179,27.908-1.871,64.094-11.925,101.771
				c-10.527,39.453-28.313,73.792-54.337,104.877c-1.881-20.484-3.82-41.658-3.83-61.131l0.001-0.008v-0.121
				c0-17.724,1.601-32.294,4.894-44.543C238.983,163.659,262.095,127.936,295.824,93.978 M297.139,90.828
				c-34.834,34.513-59.144,71.497-67.767,103.659c-3.325,12.367-4.938,27.047-4.938,44.88l-0.001,0.008
				c0.001,19.642,1.963,40.977,3.857,61.609c0.088,0.947,0.172,1.899,0.26,2.852C288.227,234.052,296.959,157.285,297.139,90.828
				L297.139,90.828z"/>
		</g>
		<g>
			<path style="fill:#FEC340;" d="M285.099,120.278c-1.475,28.199-5.288,53.036-11.633,75.813
				c-7.958,28.568-19.81,54.088-36.188,77.897c-1.062-13.87-1.558-24.941-1.556-34.613l-0.001-0.147
				c0.01-16.771,1.5-30.452,4.555-41.819C246.634,173.695,262.105,147.088,285.099,120.278 M286.579,116.587
				c-24.286,27.694-40.912,55.698-47.559,80.485c-3.094,11.515-4.597,25.35-4.599,42.294l0.002,0.009
				c-0.002,12.224,0.787,25.226,1.845,38.334C274.011,224.395,284.289,168.014,286.579,116.587L286.579,116.587z"/>
		</g>
		<g>
			<path style="fill:#FEC340;" d="M271.948,153.994c-4.469,31.897-13.083,60.199-26.237,86.201c-0.001-0.276-0.001-0.549-0.001-0.82
				l-0.001-0.087c0.005-15.906,1.383-28.759,4.215-39.292C253.769,185.659,261.169,170.205,271.948,153.994 M273.953,148.743
				c-12.443,17.842-21.046,35.112-25.285,50.917c-2.866,10.662-4.259,23.65-4.259,39.708l0.001,0.008
				c0,1.945,0.021,3.952,0.062,6.031C262.519,211.491,270.375,177.609,273.953,148.743L273.953,148.743z"/>
		</g>
		<g>
			<path style="fill:#FEC340;" d="M506.835,288.143v1.3l1.673,0.001c4.437,0.012,8.598,0.016,12.561,0.016
				c1.186,0,2.354,0,3.507-0.001c-19.396,21.6-39.631,39.884-60.182,54.374c-21.274,14.999-41.92,25.248-61.363,30.463
				c-13.065,3.506-28.502,5.21-47.193,5.21c-20.196,0-41.689-1.972-62.475-3.879l-0.273-0.024c-9.17-0.841-17.958-1.646-26.64-2.314
				c5.016-1.825,9.871-4.815,14.51-8.945c73.932-66,155.645-74.898,225.828-74.899L506.835,288.143 M506.787,288.143
				c-70.722,0.001-152.744,9.214-226.693,75.23c-8.085,7.197-15.85,9.957-22.397,10.592c11.597,0.76,23.432,1.847,35.548,2.957
				c20.984,1.925,42.343,3.885,62.593,3.885c16.904,0,33.035-1.365,47.53-5.255c39.45-10.581,83.913-42.037,124.111-87.395
				c-2.086,0.002-4.218,0.003-6.41,0.003c-3.962,0-8.122-0.004-12.558-0.015C507.934,288.144,507.365,288.143,506.787,288.143
				L506.787,288.143z"/>
		</g>
		<g>
			<path style="fill:#FEC340;" d="M501.298,299.451c-33.968,33.73-69.692,56.839-100.856,65.193
				c-12.202,3.276-26.791,4.869-44.6,4.869c-19.651,0-40.761-1.926-61.196-3.801c30.962-25.917,65.22-43.666,104.625-54.218
				C429.174,303.488,460.754,299.752,501.298,299.451 M504.45,298.135c-66.789,0.201-143.583,9.213-213.013,68.589
				c0.91,0.086,1.815,0.167,2.72,0.249c20.733,1.902,41.855,3.84,61.684,3.84c16.137,0,31.417-1.283,44.937-4.913
				C432.942,357.277,469.93,332.967,504.45,298.135L504.45,298.135z"/>
		</g>
		<g>
			<path style="fill:#FEC340;" d="M474.984,310.185c-26.813,22.987-53.422,38.458-77.131,44.815
				c-11.341,3.044-25.072,4.523-41.976,4.523c-9.771,0-20.833-0.489-34.583-1.533c23.795-16.364,49.307-28.208,77.869-36.164
				C421.939,315.48,446.778,311.665,474.984,310.185 M478.677,308.703c-51.443,2.302-107.821,12.586-161.106,50.3
				c13.055,1.047,25.986,1.82,38.308,1.82c15.355,0,29.765-1.2,42.313-4.567C422.979,349.608,450.981,332.983,478.677,308.703
				L478.677,308.703z"/>
		</g>
		<g>
			<path style="fill:#FEC340;" d="M441.246,323.344c-16.213,10.773-31.661,18.169-45.981,22.007
				c-10.531,2.828-23.405,4.202-39.357,4.202c-0.264,0-0.53,0-0.797-0.001C381.089,336.419,409.366,327.815,441.246,323.344
				 M446.502,321.338c-28.862,3.583-62.723,11.436-96.608,29.454c2.016,0.04,4.022,0.061,6.013,0.061
				c14.336,0,27.954-1.094,39.694-4.246C411.401,342.372,428.665,333.77,446.502,321.338L446.502,321.338z"/>
		</g>
	</g>
</g>
</svg>
