<?xml version="1.0" encoding="iso-8859-1"?>
<!-- Generator: Adobe Illustrator 15.1.0, SVG Export Plug-In . SVG Version: 6.00 Build 0)  -->
<!DOCTYPE svg PUBLIC "-//W3C//DTD SVG 1.1//EN" "http://www.w3.org/Graphics/SVG/1.1/DTD/svg11.dtd">
<svg version="1.1" id="Layer_1" xmlns="http://www.w3.org/2000/svg" xmlns:xlink="http://www.w3.org/1999/xlink" x="0px" y="0px"
	 width="283.465px" height="283.465px" viewBox="0 0 283.465 283.465" style="enable-background:new 0 0 283.465 283.465;"
	 xml:space="preserve">
<g>
	<g>
		<path d="M50.9,225.865c1.457,0,2.83,0.517,2.83,2.42c0,1.915-1.373,2.421-2.83,2.421h-3.209v-7.701h5.438v1.485h-3.854v1.375H50.9
			z M50.912,229.254c0.621,0,1.203-0.144,1.203-0.969s-0.582-0.968-1.203-0.968h-1.637v1.937H50.912z"/>
		<path d="M56.508,230.859c-0.359,0-0.75-0.076-1.119-0.187v-1.397c0.254,0.088,0.561,0.144,0.855,0.144
			c0.486,0,0.877-0.121,1.141-0.693l0.127-0.275l-2.947-5.445h1.754l1.941,3.96l1.617-3.96h1.742l-2.684,5.94
			C58.26,230.441,57.447,230.859,56.508,230.859z"/>
		<path d="M65.695,223.005c1.785,0,3.189,0.594,3.189,2.585s-1.404,2.586-3.189,2.586h-1.203v2.53h-1.584v-7.701H65.695z
			 M65.77,224.457h-1.277v2.267h1.277c0.813,0,1.498-0.231,1.498-1.134C67.268,224.677,66.582,224.457,65.77,224.457z"/>
		<path d="M69.846,230.706l2.059-2.828c-0.951-0.329-1.646-1.045-1.646-2.299c0-1.849,1.404-2.574,2.967-2.574h3.01v7.701H74.65
			v-2.618h-1.109l-1.869,2.618H69.846z M73.234,226.712h1.416v-2.255h-1.416c-0.803,0-1.352,0.352-1.352,1.122
			S72.432,226.712,73.234,226.712z"/>
		<path d="M83.805,223.005v1.485h-2.27v6.216h-1.574v-6.216h-2.27v-1.485H83.805z"/>
		<path d="M88.82,222.851c0.74,0,1.479,0.165,2.113,0.495v1.573c-0.477-0.385-1.162-0.605-1.85-0.605
			c-1.299,0-2.607,0.771-2.607,2.63c-0.01,1.694,1.32,2.442,2.607,2.442c0.762,0,1.457-0.22,1.902-0.639v1.618
			c-0.635,0.318-1.363,0.494-2.145,0.494c-1.975,0-3.99-1.231-3.99-3.916C84.861,224.127,86.846,222.851,88.82,222.851z"/>
		<path d="M92.697,230.706v-7.701h1.584v3.059h1.191l1.869-3.059h1.764l-2.396,3.751l2.533,3.95H97.49l-2.018-3.146h-1.191v3.146
			H92.697z"/>
		<path d="M99.762,230.706l3.02-7.701h1.711l3.01,7.701h-1.637l-0.539-1.441h-3.379l-0.549,1.441H99.762z M102.443,227.9h2.387
			l-1.035-2.762c-0.053-0.153-0.105-0.308-0.158-0.604c-0.053,0.297-0.105,0.451-0.17,0.604L102.443,227.9z"/>
		<path d="M108.219,230.706l2.061-2.828c-0.951-0.329-1.648-1.045-1.648-2.299c0-1.849,1.404-2.574,2.967-2.574h3.01v7.701h-1.584
			v-2.618h-1.107l-1.869,2.618H108.219z M111.609,226.712h1.414v-2.255h-1.414c-0.803,0-1.352,0.352-1.352,1.122
			S110.807,226.712,111.609,226.712z"/>
		<path d="M119.592,230.706v-7.701h5.164v1.485h-3.58v6.216H119.592z"/>
		<path d="M129.719,222.851c2.619,0,3.93,1.914,3.93,4.005c0,2.09-1.311,4.004-3.93,4.004c-2.617,0-3.928-1.914-3.928-4.004
			C125.791,224.765,127.102,222.851,129.719,222.851z M129.719,224.38c-1.541,0-2.313,1.122-2.313,2.476
			c0,1.353,0.771,2.476,2.313,2.476c1.531,0,2.303-1.123,2.303-2.476C132.021,225.502,131.25,224.38,129.719,224.38z"/>
		<path d="M138.906,222.851c0.738,0,1.479,0.165,2.111,0.495v1.573c-0.475-0.385-1.16-0.605-1.848-0.605
			c-1.299,0-2.607,0.771-2.607,2.63c-0.012,1.694,1.32,2.442,2.607,2.442c0.76,0,1.457-0.22,1.9-0.639v1.618
			c-0.633,0.318-1.361,0.494-2.143,0.494c-1.975,0-3.992-1.231-3.992-3.916C134.947,224.127,136.932,222.851,138.906,222.851z"/>
		<path d="M143.943,230.859c-0.359,0-0.75-0.076-1.119-0.187v-1.397c0.254,0.088,0.561,0.144,0.855,0.144
			c0.486,0,0.877-0.121,1.141-0.693l0.127-0.275L142,223.005h1.754l1.941,3.96l1.617-3.96h1.742l-2.684,5.94
			C145.695,230.441,144.883,230.859,143.943,230.859z"/>
		<path d="M149.773,232.378v-3.124h0.865c0.951-1.771,1.172-4.104,1.172-6.249h5.025v6.249h0.941v3.124h-1.395v-1.672h-5.217v1.672
			H149.773z M152.318,229.254h2.936v-4.764h-1.965C153.184,226.195,152.951,227.988,152.318,229.254z"/>
		<path d="M158.654,230.706l3.02-7.701h1.711l3.008,7.701h-1.637l-0.537-1.441h-3.379l-0.549,1.441H158.654z M161.336,227.9h2.387
			l-1.035-2.762c-0.053-0.153-0.105-0.308-0.158-0.604c-0.053,0.297-0.105,0.451-0.17,0.604L161.336,227.9z"/>
		<path d="M170.533,223.005c1.785,0,3.189,0.594,3.189,2.585s-1.404,2.586-3.189,2.586h-1.203v2.53h-1.584v-7.701H170.533z
			 M170.607,224.457h-1.277v2.267h1.277c0.813,0,1.5-0.231,1.5-1.134C172.107,224.677,171.42,224.457,170.607,224.457z"/>
		<path d="M178.875,222.851c0.74,0,1.479,0.165,2.113,0.495v1.573c-0.477-0.385-1.162-0.605-1.85-0.605
			c-1.299,0-2.607,0.771-2.607,2.63c-0.01,1.694,1.32,2.442,2.607,2.442c0.762,0,1.457-0.22,1.902-0.639v1.618
			c-0.635,0.318-1.363,0.494-2.145,0.494c-1.975,0-3.99-1.231-3.99-3.916C174.916,224.127,176.9,222.851,178.875,222.851z"/>
		<path d="M188.211,223.005v1.485h-2.271v6.216h-1.572v-6.216h-2.271v-1.485H188.211z"/>
		<path d="M192.898,223.005c1.574,0,2.557,0.627,2.557,1.947c0,0.902-0.465,1.452-1.119,1.683c0.729,0.221,1.414,0.781,1.414,1.915
			c0,1.749-1.615,2.156-2.904,2.156h-3.178v-7.701H192.898z M192.91,227.384h-1.668v1.979h1.584c0.707,0,1.34-0.153,1.34-0.99
			C194.166,227.56,193.543,227.384,192.91,227.384z M192.762,224.357h-1.51v1.761h1.594c0.604,0,1.035-0.286,1.035-0.88
			C193.881,224.633,193.459,224.357,192.762,224.357z"/>
		<path d="M202.656,223.005v1.452h-3.621v1.639h3.305v1.441h-3.305v1.717h3.686v1.452h-5.27v-7.701H202.656z"/>
		<path d="M210.977,223.005v7.701h-1.584v-3.103h-3.314v3.103h-1.584v-7.701h1.584v3.103h3.314v-3.103H210.977z"/>
		<path d="M219.574,223.005v7.701h-1.584v-3.103h-3.316v3.103h-1.584v-7.701h1.584v3.103h3.316v-3.103H219.574z"/>
		<path d="M220.926,230.706l3.02-7.701h1.711l3.01,7.701h-1.637l-0.539-1.441h-3.379l-0.549,1.441H220.926z M223.607,227.9h2.387
			l-1.035-2.762c-0.053-0.153-0.105-0.308-0.158-0.604c-0.053,0.297-0.105,0.451-0.168,0.604L223.607,227.9z"/>
		<path d="M229.385,230.706l2.059-2.828c-0.949-0.329-1.646-1.045-1.646-2.299c0-1.849,1.404-2.574,2.967-2.574h3.01v7.701h-1.584
			v-2.618h-1.109l-1.869,2.618H229.385z M232.773,226.712h1.416v-2.255h-1.416c-0.803,0-1.352,0.352-1.352,1.122
			S231.971,226.712,232.773,226.712z"/>
	</g>
	<g>
		<path d="M32.57,236.051c0.738,0,1.477,0.165,2.111,0.495v1.573c-0.477-0.385-1.162-0.605-1.848-0.605
			c-1.299,0-2.609,0.771-2.609,2.63c-0.01,1.694,1.32,2.442,2.609,2.442c0.76,0,1.457-0.22,1.9-0.639v1.618
			c-0.635,0.318-1.363,0.494-2.145,0.494c-1.975,0-3.99-1.231-3.99-3.916C28.609,237.327,30.596,236.051,32.57,236.051z"/>
		<path d="M41.65,236.205v1.452h-3.621v1.639h3.305v1.441h-3.305v1.717h3.686v1.452h-5.27v-7.701H41.65z"/>
		<path d="M49.865,236.205v7.701h-1.582v-6.216h-2.027c-0.254,3.278-0.592,6.304-2.641,6.314c-0.254,0-0.527-0.033-0.824-0.143
			v-1.452c0.139,0.044,0.297,0.065,0.508,0.055c1.246-0.088,1.309-3.554,1.498-6.26H49.865z"/>
		<path d="M51.979,243.906v-7.701h1.584v2.53h1.203c1.785,0.011,3.189,0.594,3.189,2.585s-1.404,2.586-3.189,2.586H51.979z
			 M53.563,242.454h1.277c0.813,0,1.5-0.231,1.5-1.134c0-0.901-0.688-1.133-1.5-1.133h-1.277V242.454z"/>
		<path d="M63.109,236.051c0.738,0,1.477,0.165,2.111,0.495v1.573c-0.477-0.385-1.162-0.605-1.848-0.605
			c-1.299,0-2.609,0.771-2.609,2.63c-0.01,1.694,1.32,2.442,2.609,2.442c0.76,0,1.457-0.22,1.9-0.639v1.618
			c-0.635,0.318-1.363,0.494-2.145,0.494c-1.975,0-3.99-1.231-3.99-3.916C59.148,237.327,61.135,236.051,63.109,236.051z"/>
		<path d="M66.984,243.906v-7.701h1.584v3.059h1.193l1.869-3.059h1.762l-2.396,3.751l2.535,3.95h-1.754l-2.016-3.146h-1.193v3.146
			H66.984z"/>
		<path d="M78.326,236.051c2.617,0,3.928,1.914,3.928,4.005c0,2.09-1.311,4.004-3.928,4.004c-2.619,0-3.928-1.914-3.928-4.004
			C74.398,237.965,75.707,236.051,78.326,236.051z M78.326,237.58c-1.543,0-2.313,1.122-2.313,2.476c0,1.353,0.77,2.476,2.313,2.476
			c1.531,0,2.301-1.123,2.301-2.476C80.627,238.702,79.857,237.58,78.326,237.58z"/>
		<path d="M83.098,243.906l2.65-3.994l-2.49-3.707h1.848l1.637,2.53l1.625-2.53h1.859l-2.492,3.707l2.65,3.994h-1.859l-1.783-2.806
			l-1.795,2.806H83.098z"/>
		<path d="M95.158,236.051c2.619,0,3.928,1.914,3.928,4.005c0,2.09-1.309,4.004-3.928,4.004s-3.928-1.914-3.928-4.004
			C91.23,237.965,92.539,236.051,95.158,236.051z M95.158,237.58c-1.541,0-2.313,1.122-2.313,2.476c0,1.353,0.771,2.476,2.313,2.476
			c1.531,0,2.301-1.123,2.301-2.476C97.459,238.702,96.689,237.58,95.158,237.58z"/>
		<path d="M103.141,244.06c-0.877,0-1.752-0.132-2.734-0.494v-1.585c0.971,0.495,1.838,0.605,2.619,0.595
			c0.803,0,1.572-0.209,1.572-1.002c0-0.715-0.611-0.901-1.33-0.901H101.6l0.01-1.452h1.553c0.697,0,1.15-0.265,1.15-0.804
			c0-0.616-0.527-0.88-1.467-0.88c-0.666-0.011-1.416,0.143-2.313,0.594v-1.573c0.855-0.374,1.678-0.506,2.449-0.506
			c1.732,0,2.914,0.683,2.914,2.102c0,0.847-0.465,1.43-1.182,1.683c0.77,0.221,1.479,0.825,1.479,1.98
			C106.193,243.532,104.609,244.06,103.141,244.06z"/>
		<path d="M107.27,243.906l2.061-2.828c-0.951-0.329-1.648-1.045-1.648-2.299c0-1.849,1.404-2.574,2.967-2.574h3.01v7.701h-1.584
			v-2.618h-1.107l-1.869,2.618H107.27z M110.66,239.912h1.414v-2.255h-1.414c-0.803,0-1.352,0.352-1.352,1.122
			S109.857,239.912,110.66,239.912z"/>
		<path d="M120.67,243.906v-3.972c0-0.353,0.012-0.737,0.033-1.057l-3.443,5.028h-1.488v-7.701h1.584v3.972
			c0,0.352-0.012,0.737-0.031,1.056l3.441-5.027h1.488v7.701H120.67z M120.67,235.171v-1.199c-0.559,0.363-1.086,0.473-1.656,0.473
			s-1.088-0.109-1.648-0.473v1.199c0.465,0.341,0.961,0.495,1.648,0.495C119.699,235.666,120.205,235.512,120.67,235.171z"/>
		<path d="M127.926,236.051c0.738,0,1.479,0.165,2.111,0.495v1.573c-0.475-0.385-1.162-0.605-1.848-0.605
			c-1.299,0-2.607,0.771-2.607,2.63c-0.012,1.694,1.318,2.442,2.607,2.442c0.76,0,1.457-0.22,1.9-0.639v1.618
			c-0.633,0.318-1.361,0.494-2.143,0.494c-1.975,0-3.992-1.231-3.992-3.916C123.965,237.327,125.951,236.051,127.926,236.051z"/>
		<path d="M137.26,236.205v1.485h-2.27v6.216h-1.574v-6.216h-2.27v-1.485H137.26z"/>
		<path d="M141.949,236.205c1.572,0,2.555,0.627,2.555,1.947c0,0.902-0.465,1.452-1.119,1.683c0.729,0.221,1.414,0.781,1.414,1.915
			c0,1.749-1.615,2.156-2.902,2.156h-3.18v-7.701H141.949z M141.959,240.584h-1.668v1.979h1.584c0.707,0,1.34-0.153,1.34-0.99
			C143.215,240.76,142.592,240.584,141.959,240.584z M141.811,237.558h-1.51v1.761h1.596c0.602,0,1.033-0.286,1.033-0.88
			C142.93,237.833,142.508,237.558,141.811,237.558z"/>
		<path d="M151.705,236.205v1.452h-3.621v1.639h3.305v1.441h-3.305v1.717h3.686v1.452h-5.27v-7.701H151.705z"/>
		<path d="M160.027,236.205v7.701h-1.584v-3.103h-3.316v3.103h-1.584v-7.701h1.584v3.103h3.316v-3.103H160.027z"/>
		<path d="M168.623,236.205v7.701h-1.584v-3.103h-3.316v3.103h-1.584v-7.701h1.584v3.103h3.316v-3.103H168.623z"/>
		<path d="M169.975,243.906l3.02-7.701h1.711l3.01,7.701h-1.637l-0.539-1.441h-3.379l-0.549,1.441H169.975z M172.656,241.101h2.387
			l-1.035-2.762c-0.053-0.153-0.105-0.308-0.158-0.604c-0.053,0.297-0.105,0.451-0.168,0.604L172.656,241.101z"/>
		<path d="M178.434,243.906l2.059-2.828c-0.949-0.329-1.646-1.045-1.646-2.299c0-1.849,1.404-2.574,2.967-2.574h3.01v7.701h-1.584
			v-2.618h-1.109l-1.869,2.618H178.434z M181.822,239.912h1.416v-2.255h-1.416c-0.801,0-1.352,0.352-1.352,1.122
			S181.021,239.912,181.822,239.912z"/>
		<path d="M189.047,243.906l3.02-7.701h1.711l3.01,7.701h-1.637l-0.539-1.441h-3.379l-0.549,1.441H189.047z M191.729,241.101h2.387
			l-1.035-2.762c-0.053-0.153-0.105-0.308-0.158-0.604c-0.053,0.297-0.105,0.451-0.17,0.604L191.729,241.101z"/>
		<path d="M198.139,243.906v-7.701h1.584v3.059h1.193l1.867-3.059h1.764l-2.396,3.751l2.535,3.95h-1.754l-2.016-3.146h-1.193v3.146
			H198.139z"/>
		<path d="M205.203,243.906l3.02-7.701h1.711l3.01,7.701h-1.637l-0.539-1.441h-3.379l-0.549,1.441H205.203z M207.885,241.101h2.387
			l-1.035-2.762c-0.053-0.153-0.105-0.308-0.158-0.604c-0.053,0.297-0.105,0.451-0.168,0.604L207.885,241.101z"/>
		<path d="M213.725,245.578v-3.124h0.867c0.949-1.771,1.172-4.104,1.172-6.249h5.025v6.249h0.939v3.124h-1.393v-1.672h-5.217v1.672
			H213.725z M216.27,242.454h2.936v-4.764h-1.963C217.137,239.396,216.904,241.188,216.27,242.454z"/>
		<path d="M228.572,236.205v1.452h-3.623v1.639h3.305v1.441h-3.305v1.717h3.686v1.452h-5.27v-7.701H228.572z"/>
		<path d="M238.402,236.205v7.701h-1.584v-4.742l-1.953,3.092h-0.918l-1.953-3.103v4.753h-1.584v-7.701h1.467l2.535,4.005
			l2.523-4.005H238.402z"/>
		<path d="M245.414,243.906v-3.972c0-0.353,0.012-0.737,0.031-1.057l-3.441,5.028h-1.488v-7.701h1.584v3.972
			c0,0.352-0.012,0.737-0.033,1.056l3.443-5.027h1.488v7.701H245.414z"/>
		<path d="M248.477,243.906l2.061-2.828c-0.951-0.329-1.648-1.045-1.648-2.299c0-1.849,1.404-2.574,2.967-2.574h3.01v7.701h-1.584
			v-2.618h-1.107l-1.869,2.618H248.477z M251.867,239.912h1.414v-2.255h-1.414c-0.803,0-1.352,0.352-1.352,1.122
			S251.064,239.912,251.867,239.912z"/>
	</g>
	<g>
		<path d="M79.898,257.106v-5.281h1.469v2.971l2.26-2.971h1.266v5.281h-1.457v-2.971l-2.26,2.971H79.898z"/>
		<path d="M86.668,257.106v-5.281h1.404l1.572,2.618l1.584-2.618h1.395v5.281h-1.414v-3.113l-1.193,1.969h-0.729l-1.193-1.969v3.113
			H86.668z"/>
		<path d="M96.721,251.671c2.102,0,2.777,1.728,2.439,3.289h-3.57c0.17,0.771,0.951,1.09,1.785,1.09c0.58,0,1.098-0.121,1.531-0.318
			v1.198c-0.475,0.21-1.098,0.33-1.859,0.33c-1.604,0-2.936-0.957-2.936-2.794C94.111,252.474,95.58,251.671,96.721,251.671z
			 M96.773,252.837c-0.623,0-1.172,0.408-1.193,1.134h2.26C97.893,253.607,97.691,252.837,96.773,252.837z"/>
		<path d="M100.68,257.106v-5.281h1.469v2.002h2.049v-2.002h1.467v5.281h-1.467v-2.003h-2.049v2.003H100.68z"/>
		<path d="M107.439,257.106v-5.281h1.467v2.971l2.26-2.971h1.268v5.281h-1.457v-2.971l-2.26,2.971H107.439z"/>
		<path d="M120.48,249.404c1.572,0,2.555,0.627,2.555,1.948c0,0.902-0.465,1.451-1.119,1.683c0.729,0.22,1.414,0.781,1.414,1.915
			c0,1.748-1.615,2.156-2.902,2.156h-3.18v-7.702H120.48z M120.49,253.784h-1.668v1.979h1.584c0.707,0,1.34-0.153,1.34-0.99
			C121.746,253.96,121.123,253.784,120.49,253.784z M120.342,250.758h-1.51v1.761h1.596c0.602,0,1.033-0.286,1.033-0.881
			C121.461,251.033,121.039,250.758,120.342,250.758z"/>
		<path d="M125.559,257.249c-0.475,0-0.896-0.286-0.896-0.902c0-0.615,0.422-0.902,0.896-0.902c0.477,0,0.889,0.287,0.889,0.902
			C126.447,256.963,126.035,257.249,125.559,257.249z"/>
		<path d="M130.977,249.404c1.785,0,3.189,0.595,3.189,2.586s-1.404,2.585-3.189,2.585h-1.203v2.531h-1.584v-7.702H130.977z
			 M131.051,250.856h-1.277v2.268h1.277c0.813,0,1.498-0.231,1.498-1.134C132.549,251.077,131.863,250.856,131.051,250.856z"/>
		<path d="M136.287,257.249c-0.475,0-0.896-0.286-0.896-0.902c0-0.615,0.422-0.902,0.896-0.902c0.477,0,0.889,0.287,0.889,0.902
			C137.176,256.963,136.764,257.249,136.287,257.249z"/>
		<path d="M144.895,257.535v-0.968c-2.219-0.1-3.664-1.287-3.664-3.313c0-2.023,1.445-3.212,3.664-3.312v-0.968h1.52v0.968
			c2.197,0.11,3.633,1.299,3.633,3.312c0,2.014-1.436,3.202-3.633,3.313v0.968H144.895z M144.895,255.192v-3.873
			c-1.531,0.109-2.08,0.957-2.08,1.936C142.814,254.234,143.363,255.081,144.895,255.192z M146.414,255.192
			c1.5-0.121,2.049-0.969,2.049-1.938c0-0.968-0.549-1.814-2.049-1.936V255.192z"/>
		<path d="M151.432,257.106v-5.281h1.467v2.971l2.26-2.971h1.268v5.281h-1.457v-2.971l-2.26,2.971H151.432z"/>
		<path d="M158.518,257.216c-0.232,0-0.508-0.044-0.803-0.154v-1.21c0.105,0.044,0.211,0.066,0.305,0.066
			c0.803,0,0.982-1.728,1.078-4.093h4.117v5.281h-1.467v-4.071h-1.299C160.301,255.411,159.91,257.216,158.518,257.216z"/>
		<path d="M164.99,257.106v-5.281h1.467v2.971l2.26-2.971h1.268v5.281h-1.457v-2.971l-2.26,2.971H164.99z"/>
		<path d="M171.758,257.106v-5.281h4.984v5.281h-1.467v-3.994h-2.049v3.994H171.758z"/>
		<path d="M178.518,257.106v-5.281h4.982v5.281h-1.467v-3.994h-2.049v3.994H178.518z"/>
		<path d="M187.789,251.671c1.477,0,2.797,0.946,2.797,2.795c0,1.848-1.32,2.794-2.797,2.794c-1.469,0-2.799-0.946-2.799-2.794
			C184.99,252.617,186.32,251.671,187.789,251.671z M187.789,253.035c-0.836,0-1.299,0.616-1.299,1.431s0.463,1.43,1.299,1.43
			c0.844,0,1.309-0.615,1.309-1.43S188.633,253.035,187.789,253.035z"/>
		<path d="M192.076,257.106v-5.281h3.02c1.203,0,1.668,0.682,1.668,1.396c0,0.605-0.285,1.013-0.781,1.211
			c0.549,0.188,0.898,0.605,0.898,1.243c0,0.748-0.424,1.431-1.701,1.431H192.076z M193.533,253.993h1.119
			c0.348,0,0.633-0.144,0.633-0.551c0-0.439-0.305-0.572-0.643-0.572h-1.109V253.993z M193.543,256.062h1.205
			c0.369,0,0.676-0.144,0.676-0.563c0-0.45-0.318-0.582-0.676-0.582h-1.205V256.062z"/>
		<path d="M203.289,256.094c0.086,0,0.18-0.011,0.275-0.044v1.001c-0.232,0.089-0.527,0.154-0.813,0.154
			c-0.518,0-0.908-0.198-1.119-0.595c-0.496,0.408-1.078,0.649-1.828,0.649c-0.949,0-1.773-0.571-1.773-1.617
			c0-1.342,1.215-1.761,2.229-1.761c0.4,0,0.844,0.056,1.203,0.144v-0.187c0-0.528-0.4-0.892-1.193-0.892
			c-0.697,0-1.32,0.198-1.795,0.396v-1.319c0.412-0.144,1.184-0.353,1.965-0.353c1.52,0,2.492,0.649,2.492,2.388v1.683
			C202.932,256.017,203.1,256.094,203.289,256.094z M199.531,255.521c0,0.396,0.348,0.649,0.791,0.649
			c0.412,0,0.803-0.121,1.141-0.43v-0.824c-0.221-0.055-0.559-0.121-0.865-0.121C200.059,254.796,199.531,254.982,199.531,255.521z"
			/>
	</g>
</g>
<g>
	<polygon style="fill:#C9243F;" points="119.392,190.639 118.439,191.343 117.564,189.959 119.795,188.391 121.272,188.391 
		121.272,195.288 119.392,195.288 	"/>
	<path style="fill:#C9243F;" d="M134.705,191.514c0.25,0,0.572-0.16,0.801-0.432v-0.081c0-0.682-0.376-1.095-0.813-1.095
		c-0.49,0-0.781,0.364-0.781,0.822C133.912,191.192,134.212,191.514,134.705,191.514 M137.256,191.17
		c0,1.999-1.325,3.915-3.793,4.388l-0.496-1.418c1.195-0.326,1.871-0.79,2.219-1.464l-0.006-0.012
		c-0.314,0.154-0.665,0.227-0.985,0.227c-1.034,0-2.038-0.765-2.038-2.232c0-1.433,1.113-2.368,2.52-2.368
		C136.271,188.29,137.256,189.458,137.256,191.17"/>
	<path style="fill:#C9243F;" d="M147.61,193.741l1.62-0.625c0.12,0.443,0.37,0.662,0.813,0.662c0.314,0,0.622-0.201,0.622-0.643
		c0-0.369-0.258-0.652-0.761-0.652h-0.41v-1.411h0.529c0.36,0,0.595-0.224,0.595-0.563c0-0.361-0.237-0.584-0.595-0.584
		c-0.331,0-0.52,0.161-0.65,0.509l-1.496-0.787c0.279-0.784,1.166-1.356,2.193-1.356c1.292,0,2.313,0.685,2.313,1.873
		c0,0.667-0.308,1.198-0.834,1.549v0.031c0.653,0.301,1.055,0.846,1.055,1.646c0,1.23-1.027,1.996-2.418,1.996
		C148.902,195.387,147.943,194.673,147.61,193.741"/>
	<polygon style="fill:#C9243F;" points="164.7,190.639 163.76,191.343 162.873,189.959 165.112,188.391 166.589,188.391 
		166.589,195.288 164.7,195.288 	"/>
	<path style="fill:#C9243F;" d="M208.41,134.435h-18.749c3.351-8.561,9.206-14.176,18.749-15.5V134.435z M75.773,148.675
		c0,0,0.09-1.021,0-1.645v-10.258c-0.006-0.981,0-2.393,0-2.393s17.029-3.08,17.256,7.137
		C93.055,152.428,75.773,148.675,75.773,148.675 M218.744,106.71c-21.933,0.361-37.376,10.023-41.113,33.108
		c-1.786-2.871-5.35-8.597-5.35-8.597l16.748-24.35h-12.057l-11.365,15.897c0,0-4.817-7.113-7.232-10.674
		c-0.021-1.014,0.02-4.231,0-4.818c-8.893-0.831-17.276,0.355-24.641,4.21v-4.615h-32.102l-0.025,25.398
		c-1.975-3.231-4.688-5.281-6.285-6.152c-2.578-1.413-7.338-3.194-13.119-3.2c-3.256-0.007-5.535,0.356-6.507,0.547v-6.085
		c4.775,0.065,13.456,0,15.976-0.016h1.188c3.227,0,5.154,2.254,5.154,2.254v-12.687v-0.025c-9.313-0.018-32.711-0.056-33.321-0.06
		v51.86h0.22c0,0,13.705,0.036,19.89,0.148c11.983,0.2,15.517-6.067,16.806-8.393l0.025,8.224h10.898c0,0,0.019-29.687,0.047-41.08
		h12.66c-18.652,21.812-9.828,58.883,25.178,61.067c10.163,0.026,18.682-2.523,25.339-9.343l-6.503-9.311
		c-6.377,9.139-29.111,12.227-39.042-3.775c-8.858-14.036-1.189-37.421,20.196-37.678c3.068,4.232,9.221,12.696,9.221,12.696
		l-20.004,27.441h13.109l3.68-5.264c0.197-0.356,0.43-0.712,0.716-1.071c2.776-3.946,5.558-7.9,8.335-11.846
		c2.045,2.554,12.887,18.181,12.887,18.181h13.549c0,0,0.642-0.025,0.893-0.06c-2.992-3.722-4.977-8.536-4.384-13.03
		c0.04-0.296,0.153-0.899,0.153-0.899h19.483v13.991h10.713h0.009C218.766,158.707,218.791,110.419,218.744,106.71"/>
	<path style="fill:#FEC340;" d="M175.43,43.369l0.02-0.024c-0.005,0-0.011,0.004-0.014,0.007c0.003-0.008,0.003-0.012,0.003-0.015
		l-0.015,0.018c-5.696,1.723-12.52,2.677-17.134,9.376c-2.475,3.604-4.034,11.993-3.997,11.986c-0.01,0.04,8.292-1.534,11.859-4.039
		C172.777,56.019,173.727,49.118,175.43,43.369"/>
	<path style="fill:#FEC340;" d="M157.904,85.348c-2.996-0.038-4.664-0.013-7.629-0.021c-6.904-0.012-15.719,0.775-23.717,7.99
		c-0.281,0.256-0.475,0.33-0.583,0.297c-0.071-0.02-0.234-0.193-0.264-0.255c-0.048-0.104,0.017-0.304,0.287-0.607
		c7.144-8.083,7.923-16.987,7.905-23.965c-0.004-3.002,0.018-4.687-0.02-7.717c-7.527,5.177-12.512,11.717-13.948,17.117
		c-1.784,6.729,1.114,15.277-0.202,21.461h0.005c6.111-1.328,14.575,1.597,21.235-0.205
		C146.316,97.993,152.782,92.954,157.904,85.348"/>
	<path style="fill:#FEC340;" d="M175.162,67.896c-2.993-0.036-4.662-0.011-7.629-0.018c-6.906-0.019-15.715,0.776-23.717,7.99
		c-0.285,0.255-0.477,0.332-0.583,0.297c-0.069-0.02-0.242-0.195-0.261-0.25c-0.049-0.107,0.015-0.31,0.282-0.611
		c7.144-8.087,7.924-16.99,7.911-23.967c-0.01-3,0.013-4.682-0.021-7.71c-7.527,5.172-12.518,11.709-13.951,17.111
		c-1.785,6.729,1.113,15.282-0.203,21.458c6.116-1.324,14.58,1.604,21.24-0.203C163.578,80.544,170.042,75.503,175.162,67.896"/>
	<path style="fill:#C9243F;" d="M119.067,61.579c0.61-7.426,2.407-13.276,5.606-17.73c4.025-5.589,8.88-10.041,13.062-15.417
		c0.56,5.104,1.501,9.551,0.999,14.725c-1.378,14.371-14.033,19.025-19.785,27.84C118.706,68.711,119.013,62.2,119.067,61.579"/>
	<path style="fill:#FEC340;" d="M187.414,95.237c-0.444-1.874-1-3.721-1.655-5.5l-0.278-0.735l-6.14,2.272l0.269,0.736
		c0.317,0.853,0.576,1.633,0.797,2.381l0.223,0.755l2-0.605c0.088,0.311,0.17,0.636,0.267,0.979l-3.381,0.796
		c-0.392-1.51-0.878-3.019-1.454-4.501l-0.289-0.733l-0.006,0.003l-0.264-0.607c-0.615-1.426-1.342-2.848-2.146-4.222l2.953-1.82
		c0.164,0.283,0.334,0.576,0.505,0.882l-1.834,0.98l0.358,0.692c0.419,0.765,0.792,1.526,1.123,2.247l0.328,0.715l5.957-2.729
		l-0.326-0.712c-2.092-4.557-4.871-8.718-8.263-12.373l-0.534-0.57l-1.253,1.162l-3.435,3.424l0.42,0.444
		c0.51,0.551,1.037,1.149,1.65,1.895l0.498,0.6l1.609-1.313c0.221,0.283,0.424,0.546,0.617,0.804l-2.815,2.031
		c-0.901-1.206-1.896-2.37-2.953-3.479l-1.106,1.108c1.186,1.244,2.274,2.559,3.254,3.919l0.46,0.638l5.353-3.868l-0.453-0.63
		c-0.449-0.635-0.972-1.311-1.628-2.127l-0.498-0.61l-1.63,1.33c-0.236-0.279-0.458-0.538-0.686-0.789l2.507-2.317
		c2.863,3.19,5.262,6.771,7.12,10.661l-3.098,1.428c-0.151-0.308-0.303-0.622-0.467-0.933l1.849-0.995l-0.368-0.687
		c-0.449-0.839-0.883-1.603-1.338-2.322l-0.41-0.668l-5.621,3.467l0.408,0.671c0.939,1.517,1.764,3.096,2.453,4.69l0.315,0.718
		l0.226,0.566c0.646,1.661,1.168,3.358,1.566,5.05l0.18,0.771l6.44-1.512l-0.188-0.766c-0.242-1.014-0.464-1.839-0.691-2.593
		l-0.228-0.742l-2.007,0.602c-0.105-0.32-0.21-0.651-0.333-0.988l3.207-1.188c0.521,1.495,0.974,3.027,1.337,4.573l0.176,0.768
		l1.535-0.361L187.414,95.237z"/>
	<path style="fill:#FEC340;" d="M114.309,76.416c0.54-0.515,1.148-1.037,1.893-1.647l0.598-0.497l-1.318-1.611
		c0.285-0.223,0.549-0.425,0.808-0.617v-1.939l-0.282,0.201c-0.641,0.454-1.318,0.978-2.128,1.629l-0.61,0.493l1.327,1.631
		c-0.276,0.239-0.529,0.461-0.781,0.686l-2.322-2.508c1.511-1.358,3.112-2.606,4.797-3.746v-1.873
		c-2.288,1.474-4.442,3.142-6.444,4.999l-0.572,0.531l4.454,4.813L114.309,76.416z"/>
	<path style="fill:#FEC340;" d="M114.229,78.392v-0.008l-0.046,0.051l-0.039,0.033l-0.465,0.486c-1.1,1.143-2.133,2.352-3.076,3.604
		l-2.813-2.039c0.191-0.252,0.398-0.518,0.619-0.804l1.608,1.321l0.499-0.604c0.618-0.743,1.145-1.347,1.654-1.891l0.542-0.573
		l-4.8-4.466l-0.534,0.575c-3.401,3.647-6.191,7.803-8.286,12.356l-0.326,0.713l5.953,2.736l0.326-0.713
		c0.328-0.727,0.707-1.479,1.119-2.248l0.374-0.688l-1.835-0.991c0.166-0.302,0.341-0.594,0.506-0.872l2.95,1.827
		c-0.813,1.37-1.542,2.788-2.157,4.211l-0.271,0.608l-0.006-0.002l-0.279,0.73c-0.581,1.477-1.078,2.993-1.463,4.505l-3.379-0.804
		c0.094-0.348,0.177-0.673,0.262-0.978l1.999,0.605l0.228-0.759c0.226-0.751,0.489-1.531,0.801-2.379l0.271-0.731l-6.141-2.284
		l-0.277,0.732c-0.674,1.808-1.246,3.696-1.688,5.603l-0.186,0.765l1.533,0.356l0.176-0.761c0.371-1.588,0.833-3.161,1.37-4.677
		l3.204,1.191c-0.12,0.337-0.227,0.664-0.338,0.987l-2.001-0.606l-0.226,0.748c-0.238,0.751-0.461,1.576-0.701,2.587l-0.188,0.764
		l6.436,1.518l0.178-0.759c0.401-1.694,0.936-3.39,1.583-5.052l0.22-0.563h0.002l0.313-0.719c0.697-1.596,1.527-3.171,2.468-4.688
		l0.411-0.667l-5.611-3.477l-0.42,0.666c-0.447,0.722-0.891,1.478-1.343,2.315l-0.375,0.69l1.853,0.997
		c-0.158,0.313-0.313,0.628-0.465,0.932l-3.096-1.429c1.869-3.885,4.265-7.466,7.138-10.652l2.501,2.325
		c-0.22,0.245-0.447,0.504-0.685,0.786l-1.626-1.333l-0.498,0.605c-0.656,0.811-1.175,1.484-1.63,2.126L105.6,80.87l5.348,3.874
		l0.459-0.637c1.025-1.419,2.171-2.786,3.402-4.066l0.489-0.501l0.493-0.484c0.166-0.151,0.333-0.302,0.496-0.452v-2.103
		c-0.537,0.46-1.063,0.937-1.577,1.425L114.229,78.392z"/>
</g>
</svg>
