<?xml version="1.0" encoding="iso-8859-1"?>
<!-- Generator: Adobe Illustrator 15.1.0, SVG Export Plug-In . SVG Version: 6.00 Build 0)  -->
<!DOCTYPE svg PUBLIC "-//W3C//DTD SVG 1.1//EN" "http://www.w3.org/Graphics/SVG/1.1/DTD/svg11.dtd">
<svg version="1.1" id="Layer_1" xmlns="http://www.w3.org/2000/svg" xmlns:xlink="http://www.w3.org/1999/xlink" x="0px" y="0px"
	 width="283.465px" height="283.464px" viewBox="0 0 283.465 283.464" style="enable-background:new 0 0 283.465 283.464;"
	 xml:space="preserve">
<g>
	<g>
		<path d="M36.919,222.738c1.457,0,2.829,0.517,2.829,2.42c0,1.915-1.372,2.42-2.829,2.42h-3.21v-7.701h5.438v1.485h-3.854v1.375
			H36.919z M36.93,226.126c0.622,0,1.203-0.143,1.203-0.968s-0.581-0.968-1.203-0.968h-1.637v1.937H36.93z"/>
		<path d="M42.526,227.732c-0.359,0-0.75-0.077-1.12-0.187v-1.397c0.254,0.088,0.561,0.143,0.855,0.143
			c0.486,0,0.877-0.121,1.141-0.693l0.127-0.275l-2.946-5.446h1.753l1.942,3.96l1.616-3.96h1.742l-2.683,5.941
			C44.278,227.314,43.466,227.732,42.526,227.732z"/>
		<path d="M51.713,219.877c1.785,0,3.189,0.594,3.189,2.585s-1.404,2.585-3.189,2.585H50.51v2.53h-1.584v-7.701H51.713z
			 M51.787,221.33H50.51v2.267h1.277c0.813,0,1.499-0.231,1.499-1.133C53.286,221.55,52.6,221.33,51.787,221.33z"/>
		<path d="M55.863,227.579l2.059-2.828c-0.95-0.33-1.646-1.045-1.646-2.299c0-1.848,1.404-2.574,2.967-2.574h3.01v7.701h-1.584
			v-2.618h-1.109l-1.868,2.618H55.863z M59.253,223.585h1.415v-2.255h-1.415c-0.803,0-1.352,0.352-1.352,1.122
			C57.901,223.222,58.45,223.585,59.253,223.585z"/>
		<path d="M69.823,219.877v1.485h-2.271v6.216h-1.573v-6.216h-2.271v-1.485H69.823z"/>
		<path d="M74.839,219.724c0.739,0,1.479,0.165,2.112,0.495v1.573c-0.476-0.385-1.162-0.605-1.849-0.605
			c-1.299,0-2.607,0.771-2.607,2.629c-0.011,1.694,1.319,2.442,2.607,2.442c0.761,0,1.457-0.22,1.901-0.638v1.618
			c-0.634,0.319-1.362,0.495-2.144,0.495c-1.975,0-3.991-1.232-3.991-3.917C70.879,221,72.864,219.724,74.839,219.724z"/>
		<path d="M78.715,227.579v-7.701h1.584v3.059h1.192l1.869-3.059h1.764l-2.397,3.751l2.534,3.95h-1.752l-2.018-3.146h-1.192v3.146
			H78.715z"/>
		<path d="M85.779,227.579l3.021-7.701h1.71l3.01,7.701h-1.637l-0.539-1.441h-3.379l-0.549,1.441H85.779z M88.462,224.773h2.386
			l-1.034-2.762c-0.053-0.154-0.106-0.308-0.159-0.605c-0.053,0.297-0.105,0.451-0.169,0.605L88.462,224.773z"/>
		<path d="M94.237,227.579l2.06-2.828c-0.95-0.33-1.647-1.045-1.647-2.299c0-1.848,1.404-2.574,2.967-2.574h3.01v7.701h-1.584
			v-2.618h-1.108l-1.869,2.618H94.237z M97.627,223.585h1.415v-2.255h-1.415c-0.802,0-1.352,0.352-1.352,1.122
			C96.275,223.222,96.825,223.585,97.627,223.585z"/>
		<path d="M105.61,227.579v-7.701h5.164v1.485h-3.58v6.216H105.61z"/>
		<path d="M115.737,219.724c2.619,0,3.929,1.914,3.929,4.004s-1.31,4.004-3.929,4.004c-2.618,0-3.928-1.914-3.928-4.004
			S113.119,219.724,115.737,219.724z M115.737,221.253c-1.541,0-2.313,1.122-2.313,2.475s0.771,2.476,2.313,2.476
			c1.531,0,2.302-1.123,2.302-2.476S117.269,221.253,115.737,221.253z"/>
		<path d="M124.925,219.724c0.738,0,1.478,0.165,2.111,0.495v1.573c-0.476-0.385-1.161-0.605-1.848-0.605
			c-1.299,0-2.608,0.771-2.608,2.629c-0.011,1.694,1.32,2.442,2.608,2.442c0.76,0,1.457-0.22,1.9-0.638v1.618
			c-0.634,0.319-1.362,0.495-2.144,0.495c-1.975,0-3.991-1.232-3.991-3.917C120.965,221,122.95,219.724,124.925,219.724z"/>
		<path d="M129.962,227.732c-0.359,0-0.75-0.077-1.12-0.187v-1.397c0.254,0.088,0.561,0.143,0.855,0.143
			c0.486,0,0.877-0.121,1.141-0.693l0.127-0.275l-2.946-5.446h1.753l1.942,3.96l1.616-3.96h1.742l-2.683,5.941
			C131.714,227.314,130.901,227.732,129.962,227.732z"/>
		<path d="M135.791,229.251v-3.125h0.865c0.951-1.771,1.173-4.104,1.173-6.249h5.025v6.249h0.94v3.125H142.4v-1.672h-5.216v1.672
			H135.791z M138.336,226.126h2.936v-4.764h-1.965C139.201,223.068,138.969,224.861,138.336,226.126z"/>
		<path d="M144.672,227.579l3.02-7.701h1.711l3.009,7.701h-1.637l-0.538-1.441h-3.379l-0.549,1.441H144.672z M147.354,224.773h2.387
			l-1.035-2.762c-0.053-0.154-0.105-0.308-0.158-0.605c-0.053,0.297-0.105,0.451-0.169,0.605L147.354,224.773z"/>
		<path d="M156.552,219.877c1.784,0,3.188,0.594,3.188,2.585s-1.404,2.585-3.188,2.585h-1.204v2.53h-1.584v-7.701H156.552z
			 M156.625,221.33h-1.277v2.267h1.277c0.813,0,1.5-0.231,1.5-1.133C158.125,221.55,157.438,221.33,156.625,221.33z"/>
		<path d="M164.894,219.724c0.739,0,1.479,0.165,2.112,0.495v1.573c-0.476-0.385-1.162-0.605-1.849-0.605
			c-1.299,0-2.607,0.771-2.607,2.629c-0.011,1.694,1.319,2.442,2.607,2.442c0.761,0,1.457-0.22,1.901-0.638v1.618
			c-0.634,0.319-1.362,0.495-2.144,0.495c-1.975,0-3.991-1.232-3.991-3.917C160.934,221,162.919,219.724,164.894,219.724z"/>
		<path d="M174.229,219.877v1.485h-2.271v6.216h-1.573v-6.216h-2.271v-1.485H174.229z"/>
		<path d="M178.917,219.877c1.573,0,2.556,0.627,2.556,1.947c0,0.902-0.465,1.452-1.119,1.683c0.729,0.22,1.415,0.781,1.415,1.915
			c0,1.749-1.616,2.156-2.904,2.156h-3.178v-7.701H178.917z M178.928,224.256h-1.668v1.98h1.584c0.707,0,1.341-0.154,1.341-0.99
			C180.185,224.432,179.562,224.256,178.928,224.256z M178.78,221.23h-1.51v1.76h1.594c0.603,0,1.035-0.286,1.035-0.88
			C179.899,221.506,179.477,221.23,178.78,221.23z"/>
		<path d="M188.675,219.877v1.452h-3.622v1.639h3.305v1.441h-3.305v1.716h3.686v1.452h-5.27v-7.701H188.675z"/>
		<path d="M196.995,219.877v7.701h-1.584v-3.103h-3.315v3.103h-1.584v-7.701h1.584v3.103h3.315v-3.103H196.995z"/>
		<path d="M205.592,219.877v7.701h-1.584v-3.103h-3.315v3.103h-1.584v-7.701h1.584v3.103h3.315v-3.103H205.592z"/>
		<path d="M206.943,227.579l3.021-7.701h1.71l3.01,7.701h-1.637l-0.538-1.441h-3.379l-0.55,1.441H206.943z M209.626,224.773h2.386
			l-1.034-2.762c-0.053-0.154-0.105-0.308-0.158-0.605c-0.053,0.297-0.106,0.451-0.169,0.605L209.626,224.773z"/>
		<path d="M215.402,227.579l2.06-2.828c-0.95-0.33-1.647-1.045-1.647-2.299c0-1.848,1.404-2.574,2.967-2.574h3.01v7.701h-1.584
			v-2.618h-1.108l-1.869,2.618H215.402z M218.792,223.585h1.415v-2.255h-1.415c-0.803,0-1.352,0.352-1.352,1.122
			C217.44,223.222,217.989,223.585,218.792,223.585z"/>
		<path d="M37.268,232.924c0.738,0,1.478,0.165,2.111,0.495v1.573c-0.476-0.385-1.161-0.605-1.848-0.605
			c-1.299,0-2.608,0.771-2.608,2.629c-0.011,1.694,1.32,2.442,2.608,2.442c0.76,0,1.457-0.22,1.9-0.638v1.618
			c-0.634,0.319-1.362,0.495-2.144,0.495c-1.975,0-3.991-1.232-3.991-3.917C33.308,234.2,35.293,232.924,37.268,232.924z"/>
		<path d="M46.349,233.078v1.452h-3.622v1.639h3.305v1.441h-3.305v1.716h3.686v1.452h-5.27v-7.701H46.349z"/>
		<path d="M54.563,233.078v7.701H52.98v-6.216h-2.027c-0.254,3.278-0.592,6.304-2.641,6.315c-0.253,0-0.527-0.033-0.823-0.143
			v-1.452c0.138,0.044,0.296,0.066,0.507,0.055c1.246-0.088,1.31-3.553,1.499-6.26H54.563z"/>
		<path d="M56.677,240.779v-7.701h1.584v2.53h1.203c1.785,0.011,3.189,0.594,3.189,2.585s-1.404,2.585-3.189,2.585H56.677z
			 M58.261,239.327h1.277c0.813,0,1.499-0.231,1.499-1.133c0-0.902-0.687-1.133-1.499-1.133h-1.277V239.327z"/>
		<path d="M67.807,232.924c0.738,0,1.478,0.165,2.111,0.495v1.573c-0.476-0.385-1.161-0.605-1.848-0.605
			c-1.299,0-2.608,0.771-2.608,2.629c-0.011,1.694,1.32,2.442,2.608,2.442c0.76,0,1.457-0.22,1.9-0.638v1.618
			c-0.634,0.319-1.362,0.495-2.144,0.495c-1.975,0-3.991-1.232-3.991-3.917C63.847,234.2,65.832,232.924,67.807,232.924z"/>
		<path d="M71.682,240.779v-7.701h1.584v3.059h1.193l1.869-3.059h1.763l-2.396,3.751l2.534,3.95h-1.753l-2.017-3.146h-1.193v3.146
			H71.682z"/>
		<path d="M83.023,232.924c2.618,0,3.928,1.914,3.928,4.004s-1.31,4.004-3.928,4.004c-2.619,0-3.928-1.914-3.928-4.004
			S80.404,232.924,83.023,232.924z M83.023,234.453c-1.542,0-2.313,1.122-2.313,2.475s0.771,2.476,2.313,2.476
			c1.531,0,2.302-1.123,2.302-2.476S84.555,234.453,83.023,234.453z"/>
		<path d="M87.796,240.779l2.65-3.994l-2.491-3.708h1.848l1.637,2.53l1.626-2.53h1.858l-2.492,3.708l2.65,3.994h-1.858l-1.784-2.805
			l-1.795,2.805H87.796z"/>
		<path d="M99.855,232.924c2.619,0,3.929,1.914,3.929,4.004s-1.31,4.004-3.929,4.004c-2.618,0-3.928-1.914-3.928-4.004
			S97.237,232.924,99.855,232.924z M99.855,234.453c-1.541,0-2.313,1.122-2.313,2.475s0.771,2.476,2.313,2.476
			c1.531,0,2.302-1.123,2.302-2.476S101.387,234.453,99.855,234.453z"/>
		<path d="M107.839,240.933c-0.877,0-1.753-0.132-2.735-0.495v-1.584c0.972,0.495,1.838,0.605,2.619,0.594
			c0.803,0,1.573-0.209,1.573-1.001c0-0.715-0.612-0.902-1.33-0.902h-1.669l0.011-1.452h1.553c0.696,0,1.15-0.264,1.15-0.803
			c0-0.616-0.528-0.88-1.468-0.88c-0.665-0.011-1.415,0.143-2.313,0.594v-1.573c0.855-0.374,1.679-0.506,2.45-0.506
			c1.731,0,2.914,0.682,2.914,2.101c0,0.847-0.465,1.43-1.183,1.683c0.771,0.22,1.479,0.825,1.479,1.98
			C110.891,240.405,109.307,240.933,107.839,240.933z"/>
		<path d="M111.968,240.779l2.06-2.828c-0.95-0.33-1.647-1.045-1.647-2.299c0-1.848,1.404-2.574,2.967-2.574h3.01v7.701h-1.584
			v-2.618h-1.108l-1.869,2.618H111.968z M115.357,236.785h1.415v-2.255h-1.415c-0.802,0-1.352,0.352-1.352,1.122
			C114.006,236.422,114.556,236.785,115.357,236.785z"/>
		<path d="M125.368,240.779v-3.972c0-0.352,0.011-0.737,0.032-1.056l-3.442,5.028h-1.489v-7.701h1.584v3.972
			c0,0.352-0.011,0.737-0.031,1.056l3.442-5.028h1.488v7.701H125.368z M125.368,232.043v-1.199c-0.56,0.363-1.087,0.473-1.657,0.473
			s-1.088-0.11-1.647-0.473v1.199c0.465,0.341,0.961,0.495,1.647,0.495C124.396,232.539,124.903,232.385,125.368,232.043z"/>
		<path d="M132.623,232.924c0.739,0,1.479,0.165,2.112,0.495v1.573c-0.476-0.385-1.162-0.605-1.849-0.605
			c-1.299,0-2.607,0.771-2.607,2.629c-0.011,1.694,1.319,2.442,2.607,2.442c0.761,0,1.457-0.22,1.901-0.638v1.618
			c-0.634,0.319-1.362,0.495-2.144,0.495c-1.975,0-3.991-1.232-3.991-3.917C128.663,234.2,130.648,232.924,132.623,232.924z"/>
		<path d="M141.958,233.078v1.485h-2.271v6.216h-1.573v-6.216h-2.271v-1.485H141.958z"/>
		<path d="M146.646,233.078c1.573,0,2.555,0.627,2.555,1.947c0,0.902-0.464,1.452-1.119,1.683c0.729,0.22,1.415,0.781,1.415,1.915
			c0,1.749-1.615,2.156-2.903,2.156h-3.179v-7.701H146.646z M146.657,237.457h-1.669v1.98h1.584c0.708,0,1.341-0.154,1.341-0.99
			C147.913,237.632,147.29,237.457,146.657,237.457z M146.509,234.431h-1.51v1.76h1.595c0.602,0,1.034-0.286,1.034-0.88
			C147.628,234.706,147.206,234.431,146.509,234.431z"/>
		<path d="M156.403,233.078v1.452h-3.621v1.639h3.305v1.441h-3.305v1.716h3.685v1.452h-5.269v-7.701H156.403z"/>
		<path d="M164.725,233.078v7.701h-1.584v-3.103h-3.315v3.103h-1.584v-7.701h1.584v3.103h3.315v-3.103H164.725z"/>
		<path d="M173.32,233.078v7.701h-1.584v-3.103h-3.315v3.103h-1.584v-7.701h1.584v3.103h3.315v-3.103H173.32z"/>
		<path d="M174.673,240.779l3.02-7.701h1.711l3.009,7.701h-1.637l-0.538-1.441h-3.379l-0.549,1.441H174.673z M177.354,237.974h2.387
			l-1.035-2.762c-0.053-0.154-0.105-0.308-0.158-0.605c-0.053,0.297-0.105,0.451-0.169,0.605L177.354,237.974z"/>
		<path d="M183.131,240.779l2.06-2.828c-0.95-0.33-1.647-1.045-1.647-2.299c0-1.848,1.404-2.574,2.967-2.574h3.01v7.701h-1.584
			v-2.618h-1.108l-1.869,2.618H183.131z M186.521,236.785h1.415v-2.255h-1.415c-0.802,0-1.352,0.352-1.352,1.122
			C185.169,236.422,185.719,236.785,186.521,236.785z"/>
		<path d="M193.744,240.779l3.02-7.701h1.711l3.01,7.701h-1.637l-0.539-1.441h-3.379l-0.549,1.441H193.744z M196.426,237.974h2.387
			l-1.035-2.762c-0.053-0.154-0.105-0.308-0.158-0.605c-0.053,0.297-0.105,0.451-0.169,0.605L196.426,237.974z"/>
		<path d="M202.836,240.779v-7.701h1.584v3.059h1.193l1.868-3.059h1.764l-2.396,3.751l2.534,3.95h-1.753l-2.017-3.146h-1.193v3.146
			H202.836z"/>
		<path d="M209.9,240.779l3.021-7.701h1.71l3.01,7.701h-1.637l-0.538-1.441h-3.379l-0.55,1.441H209.9z M212.583,237.974h2.386
			l-1.034-2.762c-0.053-0.154-0.105-0.308-0.158-0.605c-0.053,0.297-0.106,0.451-0.169,0.605L212.583,237.974z"/>
		<path d="M218.423,242.451v-3.125h0.866c0.95-1.771,1.172-4.104,1.172-6.249h5.026v6.249h0.939v3.125h-1.394v-1.672h-5.217v1.672
			H218.423z M220.968,239.327h2.936v-4.764h-1.964C221.834,236.268,221.602,238.062,220.968,239.327z"/>
		<path d="M233.27,233.078v1.452h-3.622v1.639h3.305v1.441h-3.305v1.716h3.685v1.452h-5.269v-7.701H233.27z"/>
		<path d="M243.101,233.078v7.701h-1.584v-4.742l-1.953,3.091h-0.919l-1.953-3.103v4.753h-1.584v-7.701h1.468l2.534,4.005
			l2.523-4.005H243.101z"/>
		<path d="M250.112,240.779v-3.972c0-0.352,0.011-0.737,0.031-1.056l-3.442,5.028h-1.488v-7.701h1.584v3.972
			c0,0.352-0.011,0.737-0.032,1.056l3.442-5.028h1.489v7.701H250.112z"/>
		<path d="M253.175,240.779l2.06-2.828c-0.951-0.33-1.647-1.045-1.647-2.299c0-1.848,1.404-2.574,2.967-2.574h3.01v7.701h-1.584
			v-2.618h-1.108l-1.869,2.618H253.175z M256.564,236.785h1.415v-2.255h-1.415c-0.803,0-1.352,0.352-1.352,1.122
			C255.213,236.422,255.762,236.785,256.564,236.785z"/>
		<path d="M33.54,253.979v-5.281h1.468v2.971l2.26-2.971h1.267v5.281h-1.457v-2.971l-2.26,2.971H33.54z"/>
		<path d="M40.309,253.979v-5.281h1.404l1.573,2.618l1.584-2.618h1.394v5.281H44.85v-3.113l-1.193,1.969h-0.729l-1.193-1.969v3.113
			H40.309z"/>
		<path d="M50.361,248.543c2.102,0,2.777,1.728,2.439,3.289h-3.569c0.169,0.771,0.95,1.09,1.784,1.09
			c0.581,0,1.099-0.121,1.531-0.318v1.198c-0.475,0.21-1.098,0.33-1.858,0.33c-1.604,0-2.936-0.957-2.936-2.794
			C47.753,249.346,49.221,248.543,50.361,248.543z M50.414,249.709c-0.623,0-1.172,0.408-1.193,1.134h2.26
			C51.533,250.48,51.333,249.709,50.414,249.709z"/>
		<path d="M54.321,253.979v-5.281h1.468v2.002h2.049v-2.002h1.468v5.281h-1.468v-2.003h-2.049v2.003H54.321z"/>
		<path d="M61.08,253.979v-5.281h1.468v2.971l2.26-2.971h1.267v5.281h-1.457v-2.971l-2.26,2.971H61.08z"/>
		<path d="M74.121,246.277c1.573,0,2.555,0.627,2.555,1.947c0,0.903-0.464,1.452-1.119,1.683c0.729,0.22,1.415,0.781,1.415,1.915
			c0,1.748-1.615,2.156-2.903,2.156H70.89v-7.702H74.121z M74.132,250.657h-1.669v1.979h1.584c0.708,0,1.341-0.153,1.341-0.99
			C75.388,250.833,74.765,250.657,74.132,250.657z M73.983,247.63h-1.51v1.761h1.595c0.602,0,1.034-0.286,1.034-0.881
			C75.103,247.906,74.681,247.63,73.983,247.63z"/>
		<path d="M79.2,254.122c-0.475,0-0.897-0.286-0.897-0.902c0-0.615,0.423-0.902,0.897-0.902c0.476,0,0.888,0.287,0.888,0.902
			C80.088,253.835,79.676,254.122,79.2,254.122z"/>
		<path d="M84.617,246.277c1.785,0,3.189,0.594,3.189,2.585s-1.404,2.585-3.189,2.585h-1.203v2.531H81.83v-7.702H84.617z
			 M84.691,247.729h-1.277v2.267h1.277c0.813,0,1.499-0.231,1.499-1.134C86.19,247.95,85.504,247.729,84.691,247.729z"/>
		<path d="M89.929,254.122c-0.475,0-0.897-0.286-0.897-0.902c0-0.615,0.423-0.902,0.897-0.902c0.476,0,0.888,0.287,0.888,0.902
			C90.816,253.835,90.404,254.122,89.929,254.122z"/>
		<path d="M98.535,254.408v-0.968c-2.218-0.1-3.664-1.287-3.664-3.313c0-2.024,1.446-3.212,3.664-3.311v-0.968h1.521v0.968
			c2.196,0.11,3.633,1.298,3.633,3.311c0,2.014-1.437,3.202-3.633,3.313v0.968H98.535z M98.535,252.065v-3.873
			c-1.531,0.11-2.08,0.957-2.08,1.936C96.455,251.107,97.004,251.954,98.535,252.065z M100.056,252.065
			c1.499-0.121,2.049-0.969,2.049-1.938c0-0.968-0.55-1.815-2.049-1.936V252.065z"/>
		<path d="M105.072,253.979v-5.281h1.468v2.971l2.26-2.971h1.267v5.281h-1.457v-2.971l-2.26,2.971H105.072z"/>
		<path d="M112.158,254.088c-0.232,0-0.507-0.044-0.803-0.154v-1.21c0.105,0.044,0.211,0.066,0.306,0.066
			c0.803,0,0.982-1.728,1.077-4.093h4.118v5.281h-1.468v-4.071h-1.299C113.942,252.284,113.552,254.088,112.158,254.088z"/>
		<path d="M118.631,253.979v-5.281h1.468v2.971l2.26-2.971h1.268v5.281h-1.458v-2.971l-2.259,2.971H118.631z"/>
		<path d="M125.399,253.979v-5.281h4.984v5.281h-1.468v-3.994h-2.049v3.994H125.399z"/>
		<path d="M132.158,253.979v-5.281h4.983v5.281h-1.468v-3.994h-2.048v3.994H132.158z"/>
		<path d="M141.43,248.543c1.478,0,2.798,0.946,2.798,2.795c0,1.848-1.32,2.794-2.798,2.794c-1.468,0-2.799-0.946-2.799-2.794
			C138.631,249.49,139.962,248.543,141.43,248.543z M141.43,249.908c-0.835,0-1.299,0.616-1.299,1.431s0.464,1.43,1.299,1.43
			c0.845,0,1.309-0.615,1.309-1.43S142.274,249.908,141.43,249.908z"/>
		<path d="M145.717,253.979v-5.281h3.021c1.203,0,1.668,0.682,1.668,1.396c0,0.605-0.285,1.013-0.781,1.211
			c0.549,0.188,0.897,0.605,0.897,1.243c0,0.748-0.423,1.431-1.7,1.431H145.717z M147.174,250.866h1.119
			c0.349,0,0.634-0.144,0.634-0.551c0-0.439-0.306-0.572-0.644-0.572h-1.109V250.866z M147.185,252.934h1.204
			c0.369,0,0.676-0.144,0.676-0.563c0-0.45-0.317-0.582-0.676-0.582h-1.204V252.934z"/>
		<path d="M156.931,252.966c0.085,0,0.18-0.011,0.275-0.044v1.001c-0.232,0.089-0.528,0.154-0.813,0.154
			c-0.518,0-0.908-0.198-1.119-0.595c-0.496,0.408-1.077,0.649-1.827,0.649c-0.95,0-1.773-0.571-1.773-1.617
			c0-1.342,1.214-1.761,2.228-1.761c0.401,0,0.845,0.056,1.204,0.144v-0.187c0-0.528-0.401-0.892-1.193-0.892
			c-0.697,0-1.32,0.198-1.795,0.396v-1.319c0.412-0.144,1.183-0.353,1.964-0.353c1.521,0,2.492,0.649,2.492,2.388v1.683
			C156.572,252.889,156.741,252.966,156.931,252.966z M153.172,252.394c0,0.396,0.349,0.649,0.792,0.649
			c0.412,0,0.803-0.121,1.141-0.43v-0.824c-0.222-0.055-0.56-0.121-0.866-0.121C153.7,251.668,153.172,251.855,153.172,252.394z"/>
	</g>
</g>
<g>
	<polygon style="fill:#C9243F;" points="87.996,188.376 87.044,189.081 86.169,187.697 88.399,186.128 89.877,186.128 
		89.877,193.026 87.996,193.026 	"/>
	<path style="fill:#C9243F;" d="M103.31,189.251c0.25,0,0.572-0.16,0.801-0.432v-0.081c0-0.682-0.376-1.095-0.813-1.095
		c-0.49,0-0.781,0.364-0.781,0.822C102.517,188.93,102.816,189.251,103.31,189.251 M105.86,188.908c0,1.999-1.325,3.915-3.793,4.388
		l-0.496-1.418c1.195-0.326,1.871-0.79,2.219-1.464l-0.006-0.012c-0.314,0.154-0.665,0.227-0.985,0.227
		c-1.034,0-2.038-0.765-2.038-2.232c0-1.433,1.113-2.368,2.52-2.368C104.875,186.028,105.86,187.196,105.86,188.908"/>
	<path style="fill:#C9243F;" d="M116.215,191.479l1.62-0.625c0.12,0.443,0.37,0.662,0.813,0.662c0.314,0,0.622-0.201,0.622-0.643
		c0-0.369-0.258-0.652-0.761-0.652h-0.41v-1.411h0.529c0.36,0,0.595-0.224,0.595-0.563c0-0.361-0.237-0.584-0.595-0.584
		c-0.331,0-0.52,0.161-0.65,0.509l-1.496-0.787c0.279-0.784,1.166-1.356,2.193-1.356c1.292,0,2.313,0.685,2.313,1.873
		c0,0.667-0.308,1.198-0.834,1.549v0.031c0.653,0.301,1.055,0.846,1.055,1.646c0,1.23-1.027,1.996-2.418,1.996
		C117.507,193.125,116.548,192.411,116.215,191.479"/>
	<polygon style="fill:#C9243F;" points="133.305,188.376 132.364,189.081 131.478,187.697 133.717,186.128 135.193,186.128 
		135.193,193.026 133.305,193.026 	"/>
	<path style="fill:#C9243F;" d="M177.015,132.172h-18.749c3.351-8.561,9.206-14.176,18.749-15.5V132.172z M44.378,146.413
		c0,0,0.09-1.021,0-1.645V134.51c-0.006-0.981,0-2.393,0-2.393s17.029-3.08,17.256,7.137
		C61.659,150.166,44.378,146.413,44.378,146.413 M187.349,104.448c-21.933,0.361-37.376,10.023-41.113,33.108
		c-1.786-2.871-5.35-8.597-5.35-8.597l16.748-24.35h-12.057l-11.365,15.897c0,0-4.817-7.113-7.232-10.674
		c-0.021-1.014,0.02-4.231,0-4.818c-8.893-0.831-17.276,0.355-24.641,4.21v-4.615H70.237l-0.025,25.398
		c-1.975-3.231-4.688-5.281-6.285-6.152c-2.578-1.413-7.338-3.194-13.119-3.2c-3.256-0.007-5.535,0.356-6.507,0.547v-6.085
		c4.775,0.065,13.456,0,15.976-0.016h1.188c3.227,0,5.154,2.254,5.154,2.254v-12.687v-0.025c-9.313-0.018-32.711-0.056-33.321-0.06
		v51.86h0.22c0,0,13.705,0.036,19.89,0.148c11.983,0.2,15.517-6.067,16.806-8.393l0.025,8.224h10.898c0,0,0.019-29.687,0.047-41.08
		h12.66c-18.652,21.812-9.828,58.883,25.178,61.067c10.163,0.026,18.682-2.523,25.339-9.343l-6.503-9.311
		c-6.377,9.139-29.111,12.227-39.042-3.775c-8.858-14.036-1.189-37.421,20.196-37.678c3.068,4.232,9.221,12.696,9.221,12.696
		l-20.004,27.441h13.109l3.68-5.264c0.197-0.356,0.43-0.712,0.716-1.071c2.776-3.946,5.558-7.9,8.335-11.846
		c2.045,2.554,12.887,18.181,12.887,18.181h13.549c0,0,0.642-0.025,0.893-0.06c-2.992-3.722-4.977-8.536-4.384-13.03
		c0.04-0.296,0.153-0.899,0.153-0.899h19.483v13.991h10.713h0.009C187.37,156.445,187.396,108.157,187.349,104.448"/>
	<path style="fill:#FEC340;" d="M144.034,41.107l0.02-0.024c-0.005,0-0.011,0.004-0.014,0.007c0.003-0.008,0.003-0.012,0.003-0.015
		l-0.015,0.018c-5.696,1.723-12.52,2.677-17.134,9.376c-2.475,3.604-4.034,11.993-3.997,11.986c-0.01,0.04,8.292-1.534,11.859-4.039
		C141.382,53.756,142.331,46.856,144.034,41.107"/>
	<path style="fill:#FEC340;" d="M126.509,83.085c-2.996-0.038-4.664-0.013-7.629-0.021c-6.904-0.012-15.719,0.775-23.717,7.99
		c-0.281,0.256-0.475,0.33-0.583,0.297c-0.071-0.02-0.234-0.193-0.264-0.255c-0.048-0.104,0.017-0.304,0.287-0.607
		c7.144-8.083,7.923-16.987,7.905-23.965c-0.004-3.002,0.018-4.687-0.02-7.717c-7.527,5.177-12.512,11.717-13.948,17.117
		c-1.784,6.729,1.114,15.277-0.202,21.461h0.005c6.111-1.328,14.575,1.597,21.235-0.205
		C114.921,95.731,121.387,90.692,126.509,83.085"/>
	<path style="fill:#FEC340;" d="M143.767,65.633c-2.993-0.036-4.662-0.011-7.629-0.018c-6.906-0.019-15.715,0.776-23.717,7.99
		c-0.285,0.255-0.477,0.332-0.583,0.297c-0.069-0.02-0.242-0.195-0.261-0.25c-0.049-0.107,0.015-0.31,0.282-0.611
		c7.144-8.087,7.924-16.99,7.911-23.967c-0.01-3,0.013-4.682-0.021-7.71c-7.527,5.172-12.518,11.709-13.951,17.111
		c-1.785,6.729,1.113,15.282-0.203,21.458c6.116-1.324,14.58,1.604,21.24-0.203C132.183,78.282,138.646,73.241,143.767,65.633"/>
	<path style="fill:#C9243F;" d="M87.672,59.317c0.61-7.426,2.407-13.276,5.606-17.73c4.025-5.589,8.88-10.041,13.062-15.417
		c0.56,5.104,1.501,9.551,0.999,14.725c-1.378,14.371-14.033,19.025-19.785,27.84C87.311,66.449,87.617,59.938,87.672,59.317"/>
	<path style="fill:#FEC340;" d="M156.019,92.975c-0.444-1.874-1-3.721-1.655-5.5l-0.278-0.735l-6.14,2.272l0.269,0.736
		c0.317,0.853,0.576,1.633,0.797,2.381l0.223,0.755l2-0.605c0.088,0.311,0.17,0.636,0.267,0.979l-3.381,0.796
		c-0.392-1.51-0.878-3.019-1.454-4.501l-0.289-0.733l-0.006,0.003l-0.264-0.607c-0.615-1.426-1.342-2.848-2.146-4.222l2.953-1.82
		c0.164,0.283,0.334,0.576,0.505,0.882l-1.834,0.98l0.358,0.692c0.419,0.765,0.792,1.526,1.123,2.247l0.328,0.715l5.957-2.729
		l-0.326-0.712c-2.092-4.557-4.871-8.718-8.263-12.373l-0.534-0.57l-1.253,1.162l-3.435,3.424l0.42,0.444
		c0.51,0.551,1.037,1.149,1.65,1.895l0.498,0.6l1.609-1.313c0.221,0.283,0.424,0.546,0.617,0.804l-2.815,2.031
		c-0.901-1.206-1.896-2.37-2.953-3.479l-1.106,1.108c1.186,1.244,2.274,2.559,3.254,3.919l0.46,0.638l5.353-3.868l-0.453-0.63
		c-0.449-0.635-0.972-1.311-1.628-2.127l-0.498-0.61l-1.63,1.33c-0.236-0.279-0.458-0.538-0.686-0.789l2.507-2.317
		c2.863,3.19,5.262,6.771,7.12,10.661l-3.098,1.428c-0.151-0.308-0.303-0.622-0.467-0.933l1.849-0.995L149.175,83
		c-0.449-0.839-0.883-1.603-1.338-2.322l-0.41-0.668l-5.621,3.467l0.408,0.671c0.939,1.517,1.764,3.096,2.453,4.69l0.315,0.718
		l0.226,0.566c0.646,1.661,1.168,3.358,1.566,5.05l0.18,0.771l6.44-1.512l-0.188-0.766c-0.242-1.014-0.464-1.839-0.691-2.593
		l-0.228-0.742l-2.007,0.602c-0.105-0.32-0.21-0.651-0.333-0.988l3.207-1.188c0.521,1.495,0.974,3.027,1.337,4.573l0.176,0.768
		l1.535-0.361L156.019,92.975z"/>
	<path style="fill:#FEC340;" d="M82.913,74.154c0.54-0.515,1.148-1.037,1.893-1.647l0.598-0.497l-1.318-1.611
		c0.285-0.223,0.549-0.425,0.808-0.617v-1.939l-0.282,0.201c-0.641,0.454-1.318,0.978-2.128,1.629l-0.61,0.493l1.327,1.631
		c-0.276,0.239-0.529,0.461-0.781,0.686l-2.322-2.508c1.511-1.358,3.112-2.606,4.797-3.746v-1.873
		c-2.288,1.474-4.442,3.142-6.444,4.999l-0.572,0.531l4.454,4.813L82.913,74.154z"/>
	<path style="fill:#FEC340;" d="M82.834,76.129v-0.008l-0.046,0.051l-0.039,0.033l-0.465,0.486c-1.1,1.143-2.133,2.352-3.076,3.604
		l-2.813-2.039c0.191-0.252,0.398-0.518,0.619-0.804l1.608,1.321l0.499-0.604c0.618-0.743,1.145-1.347,1.654-1.891l0.542-0.573
		l-4.8-4.466l-0.534,0.575c-3.401,3.647-6.191,7.803-8.286,12.356l-0.326,0.713l5.953,2.736l0.326-0.713
		c0.328-0.727,0.707-1.479,1.119-2.248l0.374-0.688l-1.835-0.991c0.166-0.302,0.341-0.594,0.506-0.872l2.95,1.827
		c-0.813,1.37-1.542,2.788-2.157,4.211l-0.271,0.608l-0.006-0.002l-0.279,0.73c-0.581,1.477-1.078,2.993-1.463,4.505l-3.379-0.804
		c0.094-0.348,0.177-0.673,0.262-0.978l1.999,0.605l0.228-0.759c0.226-0.751,0.489-1.531,0.801-2.379l0.271-0.731l-6.141-2.284
		l-0.277,0.732c-0.674,1.808-1.246,3.696-1.688,5.603l-0.186,0.765l1.533,0.356l0.176-0.761c0.371-1.588,0.833-3.161,1.37-4.677
		l3.204,1.191c-0.12,0.337-0.227,0.664-0.338,0.987l-2.001-0.606L68.198,91c-0.238,0.751-0.461,1.576-0.701,2.587L67.31,94.35
		l6.436,1.518l0.178-0.759c0.401-1.694,0.936-3.39,1.583-5.052l0.22-0.563h0.002l0.313-0.719c0.697-1.596,1.527-3.171,2.468-4.688
		l0.411-0.667l-5.611-3.477l-0.42,0.666c-0.447,0.722-0.891,1.478-1.343,2.315l-0.375,0.69l1.853,0.997
		c-0.158,0.313-0.313,0.628-0.465,0.932l-3.096-1.429c1.869-3.885,4.265-7.466,7.138-10.652l2.501,2.325
		c-0.22,0.245-0.447,0.504-0.685,0.786l-1.626-1.333l-0.498,0.605c-0.656,0.811-1.175,1.484-1.63,2.126l-0.458,0.635l5.348,3.874
		l0.459-0.637c1.025-1.419,2.171-2.786,3.402-4.066l0.489-0.501l0.493-0.484c0.166-0.151,0.333-0.302,0.496-0.452v-2.103
		c-0.537,0.46-1.063,0.937-1.577,1.425L82.834,76.129z"/>
</g>
</svg>
