<?xml version="1.0" encoding="utf-8"?>
<!-- Generator: Adobe Illustrator 28.0.0, SVG Export Plug-In . SVG Version: 6.00 Build 0)  -->
<svg version="1.1" id="Layer_1" xmlns="http://www.w3.org/2000/svg" xmlns:xlink="http://www.w3.org/1999/xlink" x="0px" y="0px"
	 viewBox="0 0 218 218" style="enable-background:new 0 0 218 218;" xml:space="preserve">
<style type="text/css">
	.st0{fill-rule:evenodd;clip-rule:evenodd;fill:#C9243F;}
	.st1{fill-rule:evenodd;clip-rule:evenodd;fill:#FEC340;}
	.st2{fill:#FEC340;}
	.st3{fill:#C9243F;}
</style>
<g>
	<g>
		<path class="st0" d="M181.9,102.9c-20.8,0.3-35.4,9.5-38.9,31.4c-1.7-2.7-5.1-8.1-5.1-8.1l15.9-23.1c0,0-7.9,0-11.4,0l-10.8,15.1
			c0,0-4.6-6.7-6.9-10.1c0-1,0-4,0-4.6c-8.4-0.8-16.4,0.3-23.3,4c0-1.4,0-3,0-4.4H71l0,24.1c-1.9-3.1-4.4-5-6-5.8
			c-2.4-1.3-7-3-12.4-3c-3.1,0-5.2,0.3-6.2,0.5c0-1.8,0-4,0-5.8c4.5,0.1,12.7,0,15.1,0h1.1c3.1,0,4.9,2.1,4.9,2.1v-12v0
			c-8.8,0-19.6,0-28.5,0c0,0,0,0,0,0h-1.4c-0.6,0-1.2,0-1.7,0v49.1h0.2c0,0,13,0,18.8,0.1c11.4,0.2,14.7-5.7,15.9-7.9l0,7.8h10.3
			c0,0,0-28.1,0-38.9c3.3,0,8.7,0,12,0C75.7,133.9,84,169,117.2,171c9.6,0,17.7-2.4,24-8.9l-6.2-8.8c-6,8.7-27.6,11.6-37-3.6
			c-8.4-13.3-1.1-35.4,19.1-35.7c2.9,4,8.7,12,8.7,12l-18.9,26c0,0,8.7,0,12.4,0l3.5-5c0.2-0.3,0.4-0.7,0.7-1
			c2.6-3.7,5.3-7.5,7.9-11.2c1.9,2.4,3.8,5,5.6,7.8l0,0l6.6,9.5h12.8c0,0,0.6,0,0.9-0.1c-2.8-3.5-4.7-8.1-4.2-12.3
			c0-0.3,0.1-0.9,0.1-0.9h18.5v13.3h10.1h0C181.9,152.1,182,106.4,181.9,102.9z M46.5,142.6c0,0,0.1-1,0-1.6c0-3.2,0-6.5,0-9.7
			c0-0.9,0-2.3,0-2.3s16.1-2.9,16.3,6.8C62.9,146.2,46.5,142.6,46.5,142.6z M172.1,129.1c-5.9,0-11.8,0-17.8,0
			c3.2-8.1,8.7-13.4,17.8-14.7C172.1,119.4,172.1,124.2,172.1,129.1z"/>
		<g>
			<g>
				<g>
					<path class="st1" d="M140.3,43.6L140.3,43.6C140.3,43.6,140.3,43.6,140.3,43.6C140.3,43.6,140.3,43.6,140.3,43.6L140.3,43.6
						c-5.2,1.6-11.5,2.5-15.8,8.6c-2.3,3.3-3.7,11-3.7,11c0,0,7.6-1.4,10.9-3.7C137.9,55.2,138.8,48.9,140.3,43.6z"/>
				</g>
				<g>
					<path class="st1" d="M124.2,82.2c-2.8,0-4.3,0-7,0c-6.3,0-14.4,0.7-21.8,7.3c-0.3,0.2-0.4,0.3-0.5,0.3c-0.1,0-0.2-0.2-0.2-0.2
						c0-0.1,0-0.3,0.3-0.6c6.6-7.4,7.3-15.6,7.3-22c0-2.8,0-4.3,0-7.1c-6.9,4.8-11.5,10.8-12.8,15.7c-1.6,6.2,1,14.1-0.2,19.7l0,0
						c0,0,0,0,0,0c0,0,0,0,0,0v0c5.6-1.2,13.4,1.5,19.5-0.2C113.6,93.8,119.5,89.2,124.2,82.2z"/>
				</g>
				<g>
					<path class="st1" d="M140.1,66.1c-2.8,0-4.3,0-7,0c-6.4,0-14.4,0.7-21.8,7.3c-0.3,0.2-0.4,0.3-0.5,0.3c-0.1,0-0.2-0.2-0.2-0.2
						c0-0.1,0-0.3,0.3-0.6c6.6-7.4,7.3-15.6,7.3-22c0-2.8,0-4.3,0-7.1c-6.9,4.8-11.5,10.8-12.8,15.7c-1.6,6.2,1,14.1-0.2,19.7l0,0
						c0,0,0,0,0,0c0,0,0,0,0,0l0,0c5.6-1.2,13.4,1.5,19.5-0.2C129.4,77.8,135.4,73.1,140.1,66.1z"/>
				</g>
			</g>
			<g>
				<path class="st0" d="M88.5,60.3c0.6-6.8,2.2-12.2,5.2-16.3c3.7-5.1,8.2-9.2,12-14.2c0.5,4.7,1.4,8.8,0.9,13.5
					C105.3,56.6,93.7,60.9,88.4,69C88.2,66.9,88.5,60.9,88.5,60.3z"/>
			</g>
			<g>
				<g>
					<path class="st2" d="M151.5,91.2c-0.4-1.7-0.9-3.5-1.5-5.1l-0.3-0.7l-5.7,2.1l0.3,0.7c0.3,0.8,0.5,1.5,0.7,2.2l0.2,0.7l1.9-0.6
						c0.1,0.3,0.2,0.6,0.2,0.9l-3.1,0.7c-0.4-1.4-0.8-2.8-1.4-4.2l-0.3-0.7l0,0l-0.2-0.6c-0.6-1.3-1.2-2.6-2-3.9l2.8-1.7
						c0.2,0.3,0.3,0.5,0.5,0.8l-1.7,0.9l0.3,0.6c0.4,0.7,0.7,1.4,1,2.1l0.3,0.7l5.5-2.5l-0.3-0.7c-1.9-4.2-4.5-8.1-7.7-11.5
						l-0.5-0.5l-1.2,1.1l-3.2,3.2l0.4,0.4c0.5,0.5,1,1.1,1.5,1.8l0.5,0.6l1.5-1.2c0.2,0.3,0.4,0.5,0.6,0.8l-2.6,1.9
						c-0.8-1.1-1.8-2.2-2.7-3.2l-1,1c1.1,1.2,2.1,2.4,3,3.6l0.4,0.6l5-3.6l-0.4-0.6c-0.4-0.6-0.9-1.2-1.5-2l-0.5-0.6l-1.5,1.2
						c-0.2-0.3-0.4-0.5-0.6-0.7l2.3-2.2c2.7,3,4.9,6.3,6.6,9.9l-2.9,1.3c-0.1-0.3-0.3-0.6-0.4-0.9l1.7-0.9l-0.3-0.6
						c-0.4-0.8-0.8-1.5-1.2-2.2l-0.4-0.6l-5.2,3.2l0.4,0.6c0.9,1.4,1.6,2.9,2.3,4.4l0.3,0.7l0,0l0.2,0.5c0.6,1.5,1.1,3.1,1.5,4.7
						l0.2,0.7l6-1.4l-0.2-0.7c-0.2-0.9-0.4-1.7-0.6-2.4l-0.2-0.7l-1.9,0.6c-0.1-0.3-0.2-0.6-0.3-0.9l3-1.1c0.5,1.4,0.9,2.8,1.2,4.3
						l0.2,0.7l1.4-0.3L151.5,91.2z"/>
					<g>
						<path class="st2" d="M83.5,73.7c0.5-0.5,1.1-1,1.8-1.5l0.6-0.5l-1.2-1.5c0.3-0.2,0.5-0.4,0.7-0.6v-1.8L85,68
							c-0.6,0.4-1.2,0.9-2,1.5L82.5,70l1.2,1.5c-0.3,0.2-0.5,0.4-0.7,0.6l-2.2-2.3c1.4-1.3,2.9-2.4,4.5-3.5v-1.7
							c-2.1,1.4-4.1,2.9-6,4.7l-0.5,0.5l4.1,4.5L83.5,73.7z"/>
						<path class="st2" d="M83.4,75.5L83.4,75.5L83.4,75.5L83.4,75.5L83.4,75.5l-0.5,0.5c-1,1.1-2,2.2-2.9,3.4l-2.6-1.9
							c0.2-0.2,0.4-0.5,0.6-0.7l1.5,1.2l0.5-0.6c0.6-0.7,1.1-1.3,1.5-1.8l0.5-0.5L77.5,71L77,71.5c-3.2,3.4-5.8,7.3-7.7,11.5
							L69,83.7l5.5,2.6l0.3-0.7c0.3-0.7,0.7-1.4,1-2.1l0.3-0.6l-1.7-0.9c0.2-0.3,0.3-0.6,0.5-0.8l2.7,1.7c-0.8,1.3-1.4,2.6-2,3.9
							l-0.2,0.6l0,0L75.2,88c-0.5,1.4-1,2.8-1.4,4.2l-3.1-0.7c0.1-0.3,0.2-0.6,0.2-0.9l1.9,0.6l0.2-0.7c0.2-0.7,0.5-1.4,0.7-2.2
							l0.3-0.7l-5.7-2.1L68.1,86c-0.6,1.7-1.2,3.4-1.6,5.2l-0.2,0.7l1.4,0.3l0.2-0.7c0.3-1.5,0.8-2.9,1.3-4.3l3,1.1
							c-0.1,0.3-0.2,0.6-0.3,0.9L70,88.7l-0.2,0.7c-0.2,0.7-0.4,1.5-0.7,2.4l-0.2,0.7l6,1.4l0.2-0.7c0.4-1.6,0.9-3.2,1.5-4.7
							l0.2-0.5l0,0l0.3-0.7c0.6-1.5,1.4-2.9,2.3-4.4l0.4-0.6l-5.2-3.2l-0.4,0.6c-0.4,0.7-0.8,1.4-1.2,2.2l-0.3,0.6l1.7,0.9
							c-0.1,0.3-0.3,0.6-0.4,0.9L70.9,83c1.7-3.6,4-6.9,6.6-9.9l2.3,2.2c-0.2,0.2-0.4,0.5-0.6,0.7l-1.5-1.2l-0.5,0.6
							c-0.6,0.8-1.1,1.4-1.5,2l-0.4,0.6l5,3.6l0.4-0.6c1-1.3,2-2.6,3.2-3.8l0.5-0.5l0.5-0.4c0.1-0.1,0.3-0.3,0.5-0.4v-2
							c-0.5,0.4-1,0.9-1.5,1.3L83.4,75.5z"/>
					</g>
				</g>
			</g>
		</g>
	</g>
	<g>
		<g>
			<g>
				<path class="st3" d="M85.3,209.8c-0.5,0.2-0.7,0.2-1.2,0.4c-0.2-0.7-0.3-1-0.5-1.6c1.1-0.3,1.6-0.5,2.7-0.9
					c0.6,0.2,0.9,0.2,1.5,0.4c-0.7,2.7-1.1,4.1-1.8,6.9c-0.8-0.2-1.2-0.3-2.1-0.6C84.5,212.5,84.7,211.6,85.3,209.8z"/>
				<path class="st3" d="M104.1,213.5c-0.1,2-1.7,4-4.5,4.1c-0.2-0.6-0.2-0.9-0.4-1.5c1.4-0.2,2.1-0.6,2.6-1.3c0,0,0,0,0,0
					c-0.4,0.1-0.7,0.2-1.1,0.1c-1.1-0.1-2.1-1-1.9-2.5c0.2-1.5,1.4-2.3,2.9-2.1C103.2,210.5,104.2,211.8,104.1,213.5z M101.3,213.7
					c0.3,0,0.6-0.1,0.9-0.4c0,0,0-0.1,0-0.1c0.1-0.7-0.3-1.2-0.8-1.2c-0.5,0-0.9,0.3-0.9,0.8C100.5,213.3,100.8,213.6,101.3,213.7z"
					/>
				<path class="st3" d="M115.4,216.1c0.7-0.3,1-0.5,1.7-0.8c0.2,0.4,0.5,0.6,1,0.6c0.3,0,0.7-0.3,0.6-0.7c0-0.4-0.4-0.6-0.9-0.6
					c-0.2,0-0.3,0-0.4,0c-0.1-0.6-0.1-0.9-0.1-1.4c0.2,0,0.3,0,0.6-0.1c0.4,0,0.6-0.3,0.6-0.6c0-0.4-0.3-0.6-0.7-0.5
					c-0.4,0-0.5,0.2-0.6,0.6c-0.7-0.3-1-0.4-1.6-0.7c0.2-0.8,1.1-1.5,2.2-1.6c1.3-0.1,2.5,0.4,2.6,1.6c0.1,0.7-0.2,1.3-0.7,1.7
					c0,0,0,0,0,0c0.7,0.2,1.2,0.7,1.4,1.5c0.2,1.3-0.9,2.2-2.5,2.3C116.9,217.7,115.8,217,115.4,216.1z"/>
				<path class="st3" d="M133.2,209.8c-0.3,0.4-0.5,0.6-0.8,1c-0.5-0.4-0.8-0.7-1.3-1.1c0.8-0.9,1.1-1.3,1.9-2.2
					c0.6-0.2,0.9-0.3,1.5-0.4c0.8,2.7,1.3,4.1,2.1,6.8c-0.8,0.3-1.2,0.4-2.1,0.6C134,212.6,133.7,211.6,133.2,209.8z"/>
			</g>
		</g>
	</g>
	<g>
		<g>
			<path class="st3" d="M51.1,198.5c-1.1-0.7-2-1.8-1.1-3.3c0.9-1.4,2.3-1,3.4-0.3l2.4,1.6l-3.8,5.9l-4.2-2.7l0.6-0.9l3.2,2.1
				l0.9-1.4L51.1,198.5z M52.8,195.8c-0.6-0.4-1.3-0.7-1.9,0.1c-0.5,0.8,0,1.3,0.7,1.7l1.5,0.9l1.2-1.8L52.8,195.8z"/>
			<path class="st3" d="M49.4,192c0.3,0.2,0.5,0.5,0.7,0.7l-0.6,0.8c-0.1-0.2-0.3-0.4-0.6-0.6c-0.5-0.4-0.9-0.4-1.5-0.1l-0.3,0.1
				l-0.8,5.7l-1-0.8l0.7-4.5l-3.8,2.1l-1-0.7l5.3-2.8C47.9,191.3,48.8,191.5,49.4,192z"/>
			<path class="st3" d="M38.2,192.2c-1.3-1.1-1.9-2.4-0.8-3.7c1.2-1.3,2.5-0.9,3.8,0.2l1,0.9l1.6-1.8l0.9,0.7l-4.6,5.3L38.2,192.2z
				 M38.9,191.4l1.1,0.9l1.7-1.9l-1.1-0.9c-0.7-0.6-1.5-1-2.2-0.2S38.1,190.7,38.9,191.4z"/>
			<path class="st3" d="M40,184.4l-3.3,0.4c0.5,0.9,0.5,1.8-0.3,2.6c-1.1,1.1-2.5,0.7-3.6-0.3l-1.9-1.9l4.9-5l0.8,0.8l-1.8,1.8l1,1
				l3.1-0.4L40,184.4z M35.4,184.7l-1.1-1.1l-1.7,1.8l1.1,1.1c0.6,0.6,1.4,0.8,2,0.2C36.2,186.1,36,185.4,35.4,184.7z"/>
			<path class="st3" d="M25.9,179.7l0.8-0.7l1.5,1.7l4.5-3.9l0.8,0.9l-4.5,3.9l1.5,1.7l-0.8,0.7L25.9,179.7z"/>
			<path class="st3" d="M22.8,175.9c-0.4-0.6-0.7-1.2-0.9-1.9l0.9-0.7c0,0.6,0.3,1.2,0.7,1.7c0.8,1.1,2.3,1.7,3.8,0.6
				c1.4-1.1,1.1-2.7,0.3-3.7c-0.4-0.6-1-1-1.5-1.1l0.9-0.7c0.6,0.3,1.2,0.7,1.6,1.3c1.1,1.4,1.3,3.7-0.5,5.1
				C26,178.1,23.9,177.4,22.8,175.9z"/>
			<path class="st3" d="M26.3,168.7l-5.8,3.9l-0.6-0.9l2.4-1.6l-0.8-1.1l-3.5,0l-0.7-1.1l4.1,0l1.6-4.1l0.7,1.1l-1.3,3.4l0.8,1.2
				l2.5-1.7L26.3,168.7z"/>
			<path class="st3" d="M22.8,163.5l-7.5,0.9l-0.6-1.1l4.6-6l0.6,1l-1,1.3l1.7,3l1.6-0.2L22.8,163.5z M19.5,162.9l-1.3-2.4l-2,2.6
				c-0.1,0.1-0.2,0.2-0.3,0.3c0.2,0,0.3-0.1,0.4-0.1L19.5,162.9z"/>
			<path class="st3" d="M19,156.8l-3.2-0.7c0.2,1-0.1,1.9-1.2,2.4c-1.5,0.7-2.6-0.2-3.2-1.5l-1.2-2.5l6.3-3l0.5,1l-2.2,1.1l0.6,1.3
				l3,0.6L19,156.8z M14.6,155.6l-0.7-1.5l-2.2,1.1l0.7,1.5c0.4,0.8,1,1.2,1.8,0.9C14.9,157.1,14.9,156.4,14.6,155.6z"/>
			<path class="st3" d="M14.8,147.3l-6.6,2.4l-1.6-4.4l1-0.4l1.2,3.4l5.6-2.1L14.8,147.3z"/>
			<path class="st3" d="M5,140.6c-0.7-2.4,0.7-4,2.5-4.5s3.8,0.2,4.5,2.5c0.7,2.4-0.7,4-2.5,4.5S5.7,143,5,140.6z M6,140.3
				c0.5,1.6,1.9,2.1,3.2,1.7c1.3-0.4,2.2-1.5,1.8-3.1c-0.5-1.6-1.9-2.1-3.2-1.7C6.5,137.6,5.5,138.7,6,140.3z"/>
			<path class="st3" d="M2.8,131.9c-0.1-0.7-0.1-1.4,0-2l1.1-0.2c-0.2,0.5-0.3,1.2-0.1,1.9c0.3,1.3,1.3,2.5,3.1,2.1
				c1.7-0.4,2.2-1.9,1.9-3.2c-0.1-0.7-0.5-1.3-0.9-1.7l1.1-0.2c0.4,0.5,0.7,1.2,0.9,1.9c0.4,1.8-0.4,3.9-2.7,4.4
				C4.8,135.3,3.2,133.7,2.8,131.9z"/>
			<path class="st3" d="M9.1,126.1c0,0.3,0,0.7,0,1l-1,0.1c0-0.2,0.1-0.5,0-0.8c-0.1-0.6-0.4-0.9-0.9-1.1l-0.3-0.1l-4.6,3.5
				l-0.2-1.3l3.7-2.7l-4.2-1.2l-0.2-1.2l5.7,1.8C8.5,124.5,9,125.2,9.1,126.1z"/>
			<path class="st3" d="M9.9,120.8L7.3,121l-0.1-0.8c-1.7-0.8-4-0.9-6-0.7l-0.3-4.5l5.9-0.4l-0.1-0.9l2.6-0.2l0.1,1l-1.6,0.1
				l0.4,5.3l1.6-0.1L9.9,120.8z M7.1,118.9l-0.2-3.2L2,116l0.2,2.2C3.9,118.2,5.8,118.3,7.1,118.9z"/>
			<path class="st3" d="M7.8,113l-6.9-3.1l0-1.2l7-2.8l0,1.2l-1.5,0.6l-0.1,3.5l1.5,0.6L7.8,113z M5.3,110.7l0-2.7l-3,1.2
				c-0.1,0-0.2,0.1-0.4,0.1c0.2,0.1,0.3,0.1,0.4,0.1L5.3,110.7z"/>
			<path class="st3" d="M1.2,101.6c0.1-1.7,0.8-2.9,2.5-2.8c1.8,0.1,2.2,1.5,2.1,3.2l-0.1,1.4l2.4,0.2l-0.1,1.1l-7-0.6L1.2,101.6z
				 M2.2,101.6L2.1,103l2.5,0.2l0.1-1.4c0.1-1-0.1-1.8-1.1-1.9C2.6,99.9,2.3,100.7,2.2,101.6z"/>
			<path class="st3" d="M2,93.5c0.1-0.7,0.4-1.4,0.7-1.9l1.1,0.2c-0.4,0.4-0.7,1.1-0.8,1.7c-0.2,1.3,0.4,2.8,2.2,3.1
				c1.7,0.3,2.7-1,2.9-2.4c0.1-0.7,0-1.4-0.3-1.9L9,92.5c0.2,0.6,0.3,1.3,0.2,2.1c-0.3,1.8-1.7,3.5-4.1,3.2
				C2.6,97.4,1.7,95.4,2,93.5z"/>
			<path class="st3" d="M3.9,84.6l1,0.2l-0.5,2.3l5.8,1.3L10,89.5l-5.8-1.3l-0.5,2.3l-1-0.2L3.9,84.6z"/>
			<path class="st3" d="M5.1,80.1c0.4-1.4,1.2-2.1,2.4-1.8c0.8,0.2,1.2,0.9,1.2,1.5c0.3-0.6,1-1.1,2.1-0.8c1.5,0.4,1.4,2,1.1,3.1
				L11,84.9L4.3,83L5.1,80.1z M6,80.5l-0.5,1.6l1.8,0.5l0.5-1.8c0.2-0.6,0.1-1.2-0.6-1.4C6.6,79.3,6.3,79.7,6,80.5z M8.8,81.1
				L8.3,83l2,0.6l0.5-1.7c0.2-0.8,0.4-1.6-0.6-1.8C9.4,79.8,9,80.5,8.8,81.1z"/>
			<path class="st3" d="M8.1,71.2l1,0.4L7.8,75l1.8,0.6l1.2-3.2l1,0.4L10.6,76l1.9,0.7l1.3-3.5l1,0.4l-1.7,4.6l-6.6-2.4L8.1,71.2z"
				/>
			<path class="st3" d="M11.3,63.7l6.4,2.8l-0.5,1l-2.7-1.2L13,69.8l2.7,1.2l-0.5,1l-6.4-2.8l0.5-1l2.7,1.2l1.5-3.4l-2.7-1.2
				L11.3,63.7z"/>
			<path class="st3" d="M15.3,56.3l6.2,3.3l-0.5,1l-2.6-1.4l-1.8,3.2l2.6,1.4l-0.5,1l-6.2-3.3l0.5-1l2.6,1.4l1.8-3.2l-2.6-1.4
				L15.3,56.3z"/>
			<path class="st3" d="M22,58.6l-4.3-6.3l0.7-1.1l7.5,1.3l-0.7,1l-1.6-0.3l-1.9,3l0.9,1.3L22,58.6z M21.1,55.4l1.5-2.3l-3.2-0.6
				c-0.1,0-0.2-0.1-0.4-0.1c0.1,0.1,0.2,0.2,0.3,0.3L21.1,55.4z"/>
			<path class="st3" d="M26.2,52.2L25.3,49c-0.8,0.6-1.7,0.8-2.7,0.1c-1.3-1-1-2.4-0.2-3.6l1.6-2.2l5.6,4.2L29,48.4l-2-1.5l-0.9,1.2
				l0.9,3L26.2,52.2z M25.2,47.6l1-1.3l-2-1.5l-1,1.3c-0.5,0.7-0.6,1.5,0.1,2C24,48.6,24.7,48.3,25.2,47.6z"/>
			<path class="st3" d="M29.6,36.7c0.5-0.5,1.1-0.9,1.7-1.2l0.8,0.7c-0.6,0.1-1.2,0.5-1.6,1c-0.9,1-1.3,2.5,0.1,3.8
				c1.3,1.2,2.8,0.7,3.7-0.3c0.5-0.5,0.8-1.1,0.8-1.7l0.8,0.8c-0.2,0.6-0.5,1.3-1,1.8c-1.2,1.3-3.4,2-5.1,0.3
				C27.9,40.3,28.3,38.1,29.6,36.7z"/>
			<path class="st3" d="M35.9,30.6l0.7,0.8L34,33.9l1.3,1.4l2.4-2.3l0.7,0.8L36,36l1.4,1.4l2.7-2.6l0.7,0.8L37.3,39l-4.8-5.1
				L35.9,30.6z"/>
			<path class="st3" d="M41.9,25.5l4.5,5.4l-0.9,0.7L41.7,27l-1.8,1.5c1.8,2.6,3.4,5,2,6.2c-0.2,0.1-0.4,0.3-0.6,0.4l-0.7-0.8
				c0.1-0.1,0.3-0.1,0.4-0.3c0.9-0.8-1-3.3-2.6-5.6L41.9,25.5z"/>
			<path class="st3" d="M48,29.6L43.9,24l0.9-0.7l1.4,1.9l1.1-0.8c1.4-1,2.7-1.3,3.8,0.1c1,1.4,0.3,2.6-1.1,3.6L48,29.6z M48.3,28.1
				l1.2-0.8c0.8-0.6,1.3-1.2,0.7-2.1s-1.4-0.5-2.2,0l-1.2,0.8L48.3,28.1z"/>
			<path class="st3" d="M52.6,17.9c0.6-0.4,1.3-0.6,1.9-0.7l0.6,0.9c-0.6,0-1.2,0.2-1.8,0.5c-1.1,0.7-1.9,2.1-0.9,3.7
				c0.9,1.5,2.5,1.4,3.7,0.7c0.6-0.4,1.1-0.9,1.3-1.4l0.6,1c-0.3,0.6-0.9,1.1-1.5,1.5c-1.5,1-3.8,1-5-1.1
				C50.1,20.9,51,18.9,52.6,17.9z"/>
			<path class="st3" d="M59.4,22.1L56.1,16l1-0.5l1.4,2.6l1.2-0.6l0.4-3.5l1.1-0.6l-0.5,4.1l3.9,2L63.5,20l-3.3-1.7L59,18.9l1.4,2.7
				L59.4,22.1z"/>
			<path class="st3" d="M65.7,11.1c2.3-1,4.1,0.2,4.8,1.9s0.3,3.8-1.9,4.8c-2.3,1-4.1-0.2-4.8-1.9C63.1,14.2,63.5,12.1,65.7,11.1z
				 M66.2,12c-1.5,0.7-1.8,2.1-1.3,3.4c0.5,1.2,1.8,2,3.3,1.3c1.6-0.7,1.8-2.1,1.3-3.4C69,12.2,67.7,11.4,66.2,12z"/>
			<path class="st3" d="M72.5,15.9l1.3-4.3l-3.4-2.4l1.3-0.4l2.6,1.8l0.9-3l1.3-0.4l-1.2,4l3.7,2.5l-1.3,0.4l-2.8-2l-1,3.3
				L72.5,15.9z"/>
			<path class="st3" d="M81.1,5.7c2.4-0.6,4,0.8,4.5,2.6s-0.2,3.8-2.6,4.4c-2.4,0.6-4-0.8-4.5-2.6S78.7,6.3,81.1,5.7z M81.4,6.7
				c-1.6,0.4-2.1,1.8-1.8,3.1c0.3,1.3,1.5,2.3,3.1,1.8c1.6-0.4,2.1-1.8,1.8-3.1C84.1,7.3,83,6.3,81.4,6.7z"/>
			<path class="st3" d="M90,11.1c-0.9,0.2-1.7,0.2-2.6,0l-0.2-1.1c0.9,0.2,1.7,0.2,2.5,0c0.8-0.2,1.7-0.5,1.5-1.4
				c-0.2-0.8-1-0.9-1.8-0.7L88,8.2l-0.2-1l1.4-0.3c0.8-0.2,1.3-0.6,1.2-1.2c-0.1-0.7-0.8-0.8-1.8-0.7c-0.7,0.1-1.3,0.4-2.1,0.9
				l-0.2-1.1c0.7-0.5,1.4-0.7,2.2-0.9c1.5-0.3,2.7,0.1,3,1.4c0.1,0.8-0.2,1.4-0.8,1.8c0.7,0,1.5,0.4,1.7,1.5
				C92.7,10.1,91.3,10.9,90,11.1z"/>
			<path class="st3" d="M93.6,10.3l1.7-2.9c-1-0.2-1.8-0.7-1.9-1.9c-0.2-1.6,1-2.4,2.4-2.6l2.7-0.3l0.8,7l-1.1,0.1L98,7.3l-1.4,0.2
				L95,10.2L93.6,10.3z M96.3,6.5l1.6-0.2l-0.3-2.5L96,4c-0.9,0.1-1.5,0.6-1.4,1.4C94.7,6.3,95.4,6.6,96.3,6.5z"/>
			<path class="st3" d="M106.2,9.2L106,4.9c0-0.2,0-0.5,0-0.8l-3.5,5.3l-1.1,0l-0.3-7l1.1-0.1l0.2,4.3c0,0.3,0,0.5,0,0.8l3.5-5.3
				l1.1,0l0.3,7L106.2,9.2z M105.4,1.2l0-0.9c-0.5,0.4-0.9,0.5-1.4,0.5c-0.5,0-1-0.1-1.5-0.4l0,0.9c0.5,0.3,0.9,0.4,1.5,0.4
				C104.5,1.7,105,1.6,105.4,1.2z"/>
			<path class="st3" d="M112.7,2.1c0.7,0,1.4,0.2,2,0.5l0,1.1c-0.5-0.4-1.1-0.5-1.8-0.6c-1.3,0-2.8,0.7-2.8,2.6
				c0,1.7,1.4,2.6,2.7,2.6c0.7,0,1.4-0.2,1.8-0.5l0,1.1c-0.6,0.3-1.3,0.4-2,0.4c-1.8,0-3.7-1.3-3.6-3.7C109,3.2,110.9,2.1,112.7,2.1
				z"/>
			<path class="st3" d="M121.8,2.9l-0.1,1l-2.3-0.2l-0.5,5.9l-1.1-0.1l0.5-5.9l-2.3-0.2l0.1-1L121.8,2.9z"/>
			<path class="st3" d="M126.4,3.6c1.4,0.2,2.3,0.9,2.1,2.1c-0.1,0.8-0.7,1.3-1.3,1.3c0.6,0.3,1.3,0.9,1.1,1.9
				c-0.2,1.6-1.8,1.7-2.9,1.5l-2.9-0.5l1.1-6.9L126.4,3.6z M125.8,7.4L124,7.1l-0.3,2.1l1.7,0.3c0.8,0.1,1.6,0.2,1.8-0.8
				C127.2,7.8,126.4,7.5,125.8,7.4z M126.1,4.6l-1.7-0.3l-0.3,1.9l1.8,0.3c0.7,0.1,1.2-0.1,1.3-0.8C127.4,5,126.9,4.7,126.1,4.6z"/>
			<path class="st3" d="M135.7,5.5l-0.2,1l-3.6-0.8l-0.4,1.9l3.3,0.8l-0.2,1l-3.3-0.8l-0.4,1.9l3.6,0.8l-0.2,1l-4.8-1.1l1.6-6.8
				L135.7,5.5z"/>
			<path class="st3" d="M143.4,7.8l-2,6.7l-1.1-0.3l0.9-2.9l-3.5-1.1l-0.9,2.9l-1.1-0.3l2-6.7l1.1,0.3l-0.9,2.8l3.5,1.1l0.9-2.8
				L143.4,7.8z"/>
			<path class="st3" d="M151.3,10.8l-2.6,6.5l-1.1-0.4l1.1-2.8l-3.4-1.4l-1.1,2.8l-1.1-0.4l2.6-6.5l1.1,0.4l-1.1,2.8l3.4,1.4
				l1.1-2.8L151.3,10.8z"/>
			<path class="st3" d="M149.8,17.7l5.7-5l1.1,0.5l-0.4,7.6l-1.1-0.5l0.1-1.6l-3.2-1.5l-1.2,1.1L149.8,17.7z M152.9,16.4l2.4,1.2
				l0.2-3.2c0-0.1,0-0.2,0.1-0.4c-0.1,0.1-0.2,0.2-0.3,0.3L152.9,16.4z"/>
			<path class="st3" d="M156.7,21.1l3.1-1.3c-0.7-0.7-1-1.6-0.4-2.6c0.8-1.4,2.3-1.3,3.5-0.6l2.4,1.4l-3.5,6.1l-1-0.6l1.2-2.1
				l-1.3-0.7l-2.9,1.2L156.7,21.1z M161.1,19.6l1.4,0.8l1.2-2.1l-1.4-0.8c-0.8-0.4-1.5-0.5-2,0.3C159.9,18.5,160.3,19.2,161.1,19.6z
				"/>
			<path class="st3" d="M167.2,27.5l6.6-3.8l1,0.8l-1.9,7.4l-1-0.7l0.4-1.6l-2.8-2.1l-1.4,0.8L167.2,27.5z M170.5,26.9l2.2,1.6
				l0.8-3.1c0-0.1,0.1-0.2,0.1-0.4c-0.1,0.1-0.2,0.2-0.3,0.2L170.5,26.9z"/>
			<path class="st3" d="M173.7,32.6l4.6-5.3l0.9,0.8l-1.9,2.2l1,0.9l3.4-0.9l1,0.9l-4,1l-0.5,4.3l-1-0.9l0.4-3.7l-1.1-0.9l-2,2.3
				L173.7,32.6z"/>
			<path class="st3" d="M178.4,36.7l7.1-2.8l0.9,0.9l-2.9,7l-0.8-0.9l0.6-1.5l-2.5-2.5l-1.5,0.6L178.4,36.7z M181.8,36.5l1.9,1.9
				l1.3-3c0.1-0.1,0.1-0.2,0.2-0.4c-0.2,0.1-0.3,0.1-0.4,0.2L181.8,36.5z"/>
			<path class="st3" d="M182.6,43.2l2-1.7l0.5,0.6c1.8-0.4,3.7-1.7,5.3-3l2.9,3.4l-4.5,3.9l0.6,0.7l-2,1.7l-0.7-0.8l1.2-1l-3.4-4
				l-1.2,1L182.6,43.2z M186,43.1l2.1,2.5l3.7-3.2l-1.5-1.7C188.9,41.7,187.3,42.8,186,43.1z"/>
			<path class="st3" d="M197.9,48.7l-0.8,0.6l-2.2-3l-1.5,1.1l2,2.7l-0.8,0.6l-2-2.7l-1.6,1.2l2.2,3l-0.8,0.6l-2.9-3.9l5.6-4.1
				L197.9,48.7z"/>
			<path class="st3" d="M203,56.7l-6,3.7l-0.6-1l4.2-2.6l-4-0.1l-0.4-0.6l1.7-3.6l-4.2,2.6l-0.6-1l6-3.7l0.5,0.9l-2,4.4l4.8,0.2
				L203,56.7z"/>
			<path class="st3" d="M200.1,66.4l3.9-2c0.2-0.1,0.5-0.2,0.7-0.3l-6.3-1.1l-0.5-1l6.2-3.2l0.5,1l-3.9,2c-0.2,0.1-0.5,0.2-0.7,0.3
				l6.3,1.1l0.5,1l-6.2,3.2L200.1,66.4z"/>
			<path class="st3" d="M201.2,68.6l3.2,0.8c-0.1-1,0.2-1.9,1.3-2.3c1.5-0.6,2.6,0.3,3.2,1.7l1,2.5l-6.5,2.7l-0.4-1.1l2.3-0.9
				l-0.6-1.3l-3-0.8L201.2,68.6z M205.6,70.1l0.6,1.5l2.3-0.9l-0.6-1.5c-0.3-0.8-0.9-1.3-1.7-1C205.3,68.5,205.3,69.3,205.6,70.1z"
				/>
			<path class="st3" d="M206.4,82.9l4.2-1.3c0.2-0.1,0.5-0.2,0.7-0.2l-6-2.1l-0.3-1l6.7-2l0.3,1.1l-4.2,1.3
				c-0.2,0.1-0.5,0.2-0.7,0.2l6,2.1l0.3,1l-6.7,2L206.4,82.9z"/>
			<path class="st3" d="M215.6,91.7l-6.8,1.4l-0.2-1.1l4.8-1l-3.7-1.5l-0.1-0.7l2.8-2.8l-4.8,1l-0.2-1.1l6.8-1.4l0.2,1l-3.4,3.4
				l4.5,1.8L215.6,91.7z"/>
			<path class="st3" d="M216.6,98.9l-1,0.1l-0.5-3.6l-1.9,0.2l0.4,3.4l-1,0.1l-0.4-3.4l-2,0.3l0.5,3.7l-1,0.1L209,95l6.9-0.9
				L216.6,98.9z"/>
			<path class="st3" d="M217.1,106.9l-7,0.4l-0.1-1.1l3-0.2l-0.2-3.7l-3,0.2l-0.1-1.1l7-0.4l0.1,1.1l-3,0.2l0.2,3.7l3-0.2
				L217.1,106.9z"/>
			<path class="st3" d="M210.1,114.1l4.4,0.1c0.2,0,0.5,0,0.8,0l-5-3.9l0-1.1l7,0.1l0,1.1l-4.3-0.1c-0.3,0-0.5,0-0.8,0l5,3.9l0,1.1
				l-7-0.1L210.1,114.1z"/>
			<path class="st3" d="M216.3,123.6c-0.2,1.5-0.9,2.3-2,2.2c-0.8-0.1-1.3-0.7-1.4-1.3c-0.3,0.6-0.8,1.3-1.9,1.2
				c-1.6-0.2-1.7-1.8-1.6-2.9l0.4-3l7,0.8L216.3,123.6z M212.5,123.2l0.2-1.9l-2.1-0.3l-0.2,1.7c-0.1,0.8-0.1,1.6,0.9,1.7
				C212.2,124.6,212.4,123.8,212.5,123.2z M215.4,123.4l0.2-1.7l-1.9-0.2l-0.2,1.8c-0.1,0.7,0.1,1.2,0.8,1.3
				C215,124.7,215.3,124.2,215.4,123.4z"/>
			<path class="st3" d="M208.6,127.2c0.1-0.4,0.3-0.6,0.8-0.6c0.4,0.1,0.6,0.4,0.5,0.8c-0.1,0.4-0.3,0.6-0.7,0.6
				C208.7,127.9,208.6,127.6,208.6,127.2z"/>
			<path class="st3" d="M214.7,133.4c-0.4,1.6-1.1,2.8-2.9,2.4s-2-1.8-1.6-3.4l0.3-1.3l-2.3-0.5l0.2-1.1l6.8,1.5L214.7,133.4z
				 M213.6,133.3l0.3-1.4l-2.5-0.5l-0.3,1.4c-0.2,0.9-0.1,1.8,0.9,2C213,134.9,213.4,134.2,213.6,133.3z"/>
			<path class="st3" d="M206.6,136.5c0.1-0.3,0.4-0.6,0.8-0.5c0.4,0.1,0.5,0.5,0.4,0.8c-0.1,0.3-0.4,0.6-0.8,0.5
				C206.7,137.2,206.5,136.9,206.6,136.5z"/>
			<path class="st3" d="M204,143.9l0.8,0.3c0.8-2,2.3-2.9,4-2.3s2.3,2.3,1.6,4.3l0.8,0.3l-0.4,1l-0.8-0.3c-0.8,2-2.3,2.9-4,2.3
				c-1.7-0.6-2.3-2.3-1.6-4.3l-0.8-0.3L204,143.9z M205.4,145.6c-0.5,1.6,0,2.5,1.1,2.9c1,0.4,2,0,2.7-1.6L205.4,145.6z
				 M205.8,144.6l3.8,1.4c0.5-1.6,0-2.5-1.1-2.9C207.5,142.6,206.5,143,205.8,144.6z"/>
			<path class="st3" d="M200.3,154l4,1.8c0.2,0.1,0.5,0.2,0.7,0.3l-3.1-5.6l0.4-1l6.4,2.9l-0.5,1l-4-1.8c-0.2-0.1-0.5-0.2-0.7-0.3
				l3.1,5.6l-0.4,1l-6.4-2.9L200.3,154z"/>
			<path class="st3" d="M202.2,165.3l-6.1-3.4l0.6-1l5.2,2.9l1.1-2c-2.6-1.7-5-3.4-4.1-5.1c0.1-0.2,0.2-0.4,0.4-0.5l0.9,0.5
				c-0.1,0.1-0.2,0.2-0.3,0.4c-0.6,1.1,2.1,2.7,4.5,4.3L202.2,165.3z"/>
			<path class="st3" d="M192.5,167.6l3.6,2.4c0.2,0.1,0.4,0.3,0.6,0.4l-2.2-6l0.6-0.9l5.8,3.9l-0.6,1l-3.6-2.4
				c-0.2-0.1-0.4-0.3-0.6-0.4l2.2,6l-0.6,0.9l-5.8-3.9L192.5,167.6z"/>
			<path class="st3" d="M190.7,170.1l5.5,4.3l-3.6,4.6l-5.5-4.3l0.7-0.9l4.7,3.6l2.2-2.8L190,171L190.7,170.1z"/>
			<path class="st3" d="M185.9,176.2l5.2,4.7l-4,4.4l-5.2-4.7l0.8-0.8l4.4,4l2.4-2.7l-4.4-4L185.9,176.2z"/>
			<path class="st3" d="M183.1,189.3c-1.8,1.7-3.9,1.2-5.2-0.1s-1.6-3.5,0.2-5.2c1.8-1.7,3.9-1.2,5.2,0.1
				C184.6,185.5,184.9,187.6,183.1,189.3z M182.4,188.5c1.2-1.2,1-2.6,0.1-3.6s-2.4-1.3-3.6-0.1c-1.2,1.2-1,2.6-0.1,3.6
				S181.1,189.7,182.4,188.5z"/>
			<path class="st3" d="M176.5,194.9c-1.1,0.9-2.2,1.1-3,0.1c-0.5-0.7-0.4-1.4-0.1-1.9c-0.6,0.3-1.5,0.4-2.2-0.5
				c-1-1.2,0-2.5,0.9-3.2l2.3-1.9l4.4,5.5L176.5,194.9z M174,191.9l1.5-1.2l-1.3-1.7l-1.3,1.1c-0.6,0.5-1.2,1.1-0.6,1.8
				C172.8,192.7,173.5,192.3,174,191.9z M175.9,194.1l1.3-1.1l-1.2-1.5l-1.5,1.2c-0.5,0.4-0.8,1-0.3,1.5
				C174.7,194.7,175.3,194.6,175.9,194.1z"/>
			<path class="st3" d="M169.4,191.6l1.6,7.4l-1,0.7l-6.4-4.1l1-0.7l1.4,0.9l2.9-2l-0.4-1.6L169.4,191.6z M169,194.9l-2.2,1.5
				l2.7,1.8c0.1,0.1,0.2,0.1,0.3,0.2c-0.1-0.2-0.1-0.3-0.1-0.4L169,194.9z"/>
		</g>
	</g>
</g>
</svg>
