<?xml version="1.0" encoding="iso-8859-1"?>
<!-- Generator: Adobe Illustrator 15.1.0, SVG Export Plug-In . SVG Version: 6.00 Build 0)  -->
<!DOCTYPE svg PUBLIC "-//W3C//DTD SVG 1.1//EN" "http://www.w3.org/Graphics/SVG/1.1/DTD/svg11.dtd">
<svg version="1.1" id="Layer_1" xmlns="http://www.w3.org/2000/svg" xmlns:xlink="http://www.w3.org/1999/xlink" x="0px" y="0px"
	 width="497.333px" height="595.28px" viewBox="0 0 497.333 595.28" style="enable-background:new 0 0 497.333 595.28;"
	 xml:space="preserve">
<g>
	<path style="fill:#FDC140;" d="M455.708,160.143l0.142-0.168c-0.034,0-0.074,0.026-0.094,0.047c0.02-0.055,0.02-0.081,0.02-0.102
		l-0.108,0.122c-39.414,11.922-86.64,18.524-118.565,64.885c-17.125,24.945-27.925,82.997-27.668,82.949
		c-0.067,0.278,57.391-10.617,82.079-27.952C437.353,247.682,443.921,199.929,455.708,160.143"/>
	<path style="fill:#FDC140;" d="M334.425,450.649c-20.733-0.264-32.277-0.088-52.794-0.143
		c-47.781-0.079-108.781,5.366-164.129,55.297c-1.947,1.771-3.285,2.283-4.029,2.054c-0.493-0.134-1.622-1.337-1.824-1.763
		c-0.331-0.725,0.108-2.103,1.986-4.204c49.43-55.938,54.83-117.559,54.701-165.846c-0.027-20.774,0.129-32.432-0.135-53.403
		c-52.092,35.826-86.579,81.083-96.52,118.457c-12.354,46.571,7.711,105.726-1.406,148.518h0.041
		c42.292-9.19,100.859,11.051,146.95-1.419C254.24,538.161,298.986,503.289,334.425,450.649"/>
	<path style="fill:#FDC140;" d="M453.863,329.875c-20.714-0.25-32.271-0.075-52.802-0.122
		c-47.787-0.128-108.746,5.373-164.129,55.296c-1.967,1.764-3.292,2.298-4.028,2.055c-0.486-0.136-1.676-1.352-1.811-1.731
		c-0.338-0.744,0.108-2.142,1.959-4.23c49.43-55.964,54.836-117.579,54.749-165.859c-0.069-20.761,0.087-32.399-0.149-53.355
		c-52.1,35.791-86.634,81.031-96.554,118.417c-12.354,46.57,7.71,105.757-1.406,148.498c42.333-9.165,100.9,11.103,146.997-1.406
		C373.69,417.406,418.429,382.521,453.863,329.875"/>
	<path style="fill:#C8243F;" d="M65.667,286.163c4.217-51.39,16.651-91.878,38.798-122.702
		c27.851-38.677,61.452-69.488,90.391-106.691c3.872,35.325,10.381,66.095,6.914,101.9
		c-9.536,99.454-97.122,131.663-136.928,192.662C63.166,335.518,65.288,290.46,65.667,286.163"/>
</g>
</svg>
