<?xml version="1.0" encoding="iso-8859-1"?>
<!-- Generator: Adobe Illustrator 15.1.0, SVG Export Plug-In . SVG Version: 6.00 Build 0)  -->
<!DOCTYPE svg PUBLIC "-//W3C//DTD SVG 1.1//EN" "http://www.w3.org/Graphics/SVG/1.1/DTD/svg11.dtd">
<svg version="1.1" id="Layer_1" xmlns="http://www.w3.org/2000/svg" xmlns:xlink="http://www.w3.org/1999/xlink" x="0px" y="0px"
	 width="283.465px" height="283.465px" viewBox="0 0 283.465 283.465" style="enable-background:new 0 0 283.465 283.465;"
	 xml:space="preserve">
<g>
	<g>
		<path style="fill-rule:evenodd;clip-rule:evenodd;fill:#C9243F;" d="M214.656,135.616c-20.775,0.34-35.402,9.495-38.943,31.36
			c-1.691-2.718-5.068-8.146-5.068-8.146l15.867-23.063c0,0-7.904,0-11.422,0l-10.762,15.058c0,0-4.566-6.735-6.85-10.107
			c-0.029-0.961,0.018-4.006,0-4.564c-8.424-0.787-16.365,0.337-23.346,3.983c0-1.375,0-2.99,0-4.369h-30.404l-0.023,24.057
			c-1.863-3.06-4.438-5.001-5.951-5.827c-2.441-1.336-6.951-3.024-12.426-3.03c-3.08-0.006-5.248,0.34-6.164,0.518
			c0-1.772,0-3.985,0-5.76c4.525,0.063,12.742,0,15.139-0.021h1.123c3.051,0,4.881,2.136,4.881,2.136v-12.01v-0.027
			c-8.828-0.017-19.645-0.034-28.471-0.046c0-0.005,0-0.005,0-0.005h-1.369c-0.576-0.004-1.152-0.004-1.719-0.005v49.125h0.201
			c0,0,12.98,0.026,18.838,0.133c11.352,0.194,14.699-5.745,15.918-7.95l0.023,7.795h10.324c0,0,0.02-28.121,0.045-38.91
			c3.326,0,8.666,0,11.994,0c-17.668,20.656-9.309,55.771,23.844,57.839c9.629,0.022,17.699-2.394,23.998-8.851l-6.156-8.815
			c-6.041,8.653-27.57,11.578-36.98-3.579c-8.391-13.294-1.121-35.442,19.131-35.687c2.908,4.012,8.734,12.025,8.734,12.025
			l-18.949,25.992c0,0,8.701,0,12.418,0l3.48-4.985c0.189-0.339,0.408-0.674,0.682-1.012c2.631-3.739,5.264-7.485,7.895-11.223
			c1.938,2.417,3.787,5.026,5.568,7.765l0.016-0.015l6.619,9.47h12.834c0,0,0.609-0.027,0.85-0.059
			c-2.836-3.52-4.717-8.082-4.152-12.333c0.037-0.286,0.139-0.861,0.139-0.861h18.459v13.261h10.145h0.014
			C214.678,184.872,214.701,139.131,214.656,135.616z M79.24,175.367c0,0,0.086-0.971,0-1.564c0-3.234,0-6.473,0-9.713
			c-0.012-0.924,0-2.265,0-2.265s16.123-2.919,16.336,6.761C95.607,178.918,79.24,175.367,79.24,175.367z M204.863,161.874
			c-5.914,0-11.836,0-17.758,0c3.176-8.108,8.723-13.425,17.758-14.678C204.863,152.091,204.863,156.979,204.863,161.874z"/>
		<g>
			<g>
				<g>
					<path style="fill-rule:evenodd;clip-rule:evenodd;fill:#FEC340;" d="M173.07,76.317l0.018-0.019
						c-0.006,0.001-0.01,0.003-0.014,0.006c0.004-0.006,0.004-0.012,0.004-0.014l-0.016,0.016c-5.234,1.585-11.51,2.463-15.75,8.62
						c-2.281,3.316-3.713,11.026-3.674,11.021c-0.008,0.035,7.621-1.411,10.9-3.714C170.635,87.949,171.504,81.605,173.07,76.317z"
						/>
				</g>
				<g>
					<path style="fill-rule:evenodd;clip-rule:evenodd;fill:#FEC340;" d="M156.957,114.912c-2.758-0.031-4.287-0.01-7.014-0.017
						c-6.346-0.013-14.449,0.714-21.805,7.347c-0.262,0.235-0.438,0.304-0.537,0.274c-0.061-0.019-0.217-0.181-0.238-0.234
						c-0.047-0.099,0.014-0.28,0.26-0.562c6.568-7.433,7.285-15.618,7.27-22.034c-0.006-2.758,0.018-4.302-0.018-7.089
						c-6.922,4.757-11.504,10.767-12.824,15.731c-1.641,6.187,1.02,14.053-0.184,19.73l-0.002,0.004c0,0,0.002,0,0.002-0.004
						c0,0.004,0,0.004,0,0.004v-0.004c5.619-1.218,13.404,1.472,19.523-0.187C146.303,126.543,152.25,121.909,156.957,114.912z"/>
				</g>
				<g>
					<path style="fill-rule:evenodd;clip-rule:evenodd;fill:#FEC340;" d="M172.822,98.871c-2.752-0.036-4.285-0.011-7.01-0.017
						c-6.35-0.015-14.449,0.71-21.807,7.348c-0.26,0.232-0.438,0.302-0.535,0.271c-0.066-0.018-0.219-0.181-0.244-0.233
						c-0.043-0.097,0.018-0.281,0.266-0.561c6.566-7.435,7.283-15.62,7.268-22.036c-0.004-2.755,0.018-4.304-0.02-7.087
						c-6.916,4.756-11.502,10.765-12.818,15.731c-1.643,6.188,1.018,14.051-0.189,19.731l0,0c0,0.001,0,0,0,0
						c0,0.001,0,0.001,0,0.001l0.002-0.001c5.619-1.221,13.402,1.473,19.523-0.188C162.172,110.498,168.117,105.865,172.822,98.871z
						"/>
				</g>
			</g>
			<g>
				<path style="fill-rule:evenodd;clip-rule:evenodd;fill:#C9243F;" d="M121.25,93.059c0.564-6.826,2.215-12.2,5.154-16.296
					c3.699-5.143,8.17-9.235,12.008-14.178c0.514,4.695,1.379,8.782,0.924,13.539c-1.27,13.217-12.908,17.492-18.195,25.593
					C120.92,99.62,121.203,93.632,121.25,93.059z"/>
			</g>
			<g>
				<g>
					<path style="fill:#FEC340;" d="M184.219,123.952c-0.406-1.739-0.926-3.46-1.543-5.118l-0.254-0.685l-5.717,2.119l0.252,0.684
						c0.293,0.793,0.539,1.519,0.742,2.215l0.209,0.702l1.861-0.561c0.08,0.287,0.158,0.589,0.242,0.914l-3.141,0.736
						c-0.363-1.405-0.816-2.812-1.355-4.19l-0.264-0.68l-0.006,0.002L175,119.523c-0.576-1.329-1.25-2.648-2.004-3.928l2.75-1.696
						c0.156,0.267,0.313,0.538,0.471,0.82l-1.709,0.915l0.344,0.644c0.381,0.716,0.73,1.42,1.039,2.094l0.301,0.664l5.549-2.539
						l-0.305-0.663c-1.945-4.241-4.531-8.113-7.689-11.512l-0.498-0.533l-1.166,1.081l-3.189,3.191l0.387,0.409
						c0.473,0.509,0.961,1.068,1.531,1.764l0.467,0.559l1.496-1.227c0.207,0.267,0.396,0.514,0.574,0.75l-2.617,1.889
						c-0.84-1.119-1.766-2.203-2.748-3.235l-1.031,1.03c1.1,1.155,2.117,2.383,3.029,3.646l0.426,0.594l4.984-3.599l-0.422-0.589
						c-0.424-0.589-0.904-1.217-1.52-1.977l-0.461-0.569l-1.516,1.239c-0.221-0.26-0.43-0.504-0.635-0.732l2.33-2.159
						c2.668,2.973,4.895,6.305,6.629,9.923l-2.887,1.326c-0.143-0.285-0.283-0.574-0.432-0.867l1.719-0.923l-0.342-0.645
						c-0.42-0.778-0.828-1.485-1.248-2.159l-0.385-0.619l-5.229,3.227l0.385,0.62c0.869,1.414,1.639,2.884,2.281,4.367l0.291,0.67
						l0,0l0.207,0.526c0.602,1.543,1.094,3.126,1.463,4.7l0.168,0.712l5.988-1.405l-0.17-0.713c-0.227-0.942-0.432-1.708-0.646-2.41
						l-0.215-0.693l-1.865,0.561c-0.094-0.3-0.195-0.605-0.309-0.918l2.982-1.105c0.488,1.388,0.904,2.815,1.244,4.258l0.166,0.711
						l1.422-0.334L184.219,123.952z"/>
					<g>
						<path style="fill:#FEC340;" d="M116.189,106.441c0.51-0.478,1.07-0.966,1.76-1.536l0.561-0.463l-1.221-1.497
							c0.26-0.207,0.506-0.398,0.744-0.576v-1.805l-0.262,0.186c-0.598,0.427-1.227,0.911-1.977,1.519l-0.57,0.462l1.238,1.516
							c-0.256,0.219-0.5,0.431-0.73,0.634l-2.16-2.328c1.406-1.264,2.898-2.425,4.461-3.485V97.32
							c-2.125,1.376-4.133,2.925-5.994,4.653l-0.533,0.494l4.148,4.477L116.189,106.441z"/>
						<path style="fill:#FEC340;" d="M116.119,108.277L116.119,108.277l-0.039,0.039l-0.039,0.036h0.002l-0.432,0.448
							c-1.023,1.062-1.988,2.188-2.865,3.352l-2.615-1.896c0.178-0.235,0.369-0.481,0.576-0.745l1.498,1.228l0.461-0.56
							c0.576-0.694,1.066-1.254,1.539-1.76l0.506-0.533l-4.469-4.155l-0.496,0.532c-3.164,3.395-5.76,7.263-7.709,11.497
							l-0.307,0.663l5.541,2.552l0.303-0.666c0.309-0.673,0.66-1.377,1.043-2.091l0.348-0.643l-1.709-0.918
							c0.158-0.282,0.316-0.555,0.473-0.819l2.748,1.704c-0.758,1.274-1.432,2.592-2.012,3.92l-0.25,0.567l-0.004-0.003
							l-0.266,0.681c-0.541,1.378-0.996,2.782-1.359,4.187l-3.143-0.742c0.082-0.324,0.162-0.626,0.244-0.913l1.859,0.563
							l0.211-0.701c0.211-0.707,0.455-1.431,0.744-2.215l0.256-0.683l-5.713-2.128l-0.256,0.684
							c-0.631,1.685-1.158,3.439-1.576,5.213l-0.168,0.713l1.42,0.333l0.168-0.712c0.346-1.477,0.775-2.937,1.275-4.35l2.979,1.107
							c-0.109,0.313-0.213,0.619-0.311,0.92l-1.861-0.566l-0.215,0.695c-0.219,0.703-0.426,1.468-0.65,2.41l-0.172,0.711
							l5.984,1.417l0.168-0.708c0.373-1.578,0.871-3.159,1.471-4.702l0.209-0.526l0,0l0.291-0.668
							c0.646-1.483,1.418-2.948,2.293-4.362l0.383-0.619l-5.223-3.237l-0.387,0.616c-0.42,0.674-0.828,1.382-1.248,2.159
							l-0.348,0.643l1.719,0.928c-0.148,0.292-0.291,0.58-0.43,0.868l-2.887-1.33c1.74-3.618,3.973-6.946,6.646-9.914l2.326,2.165
							c-0.203,0.228-0.414,0.472-0.635,0.73l-1.514-1.243l-0.463,0.569c-0.611,0.752-1.096,1.38-1.521,1.975l-0.424,0.59
							l4.977,3.604l0.428-0.592c0.953-1.317,2.02-2.591,3.168-3.781l0.453-0.469l0.465-0.446c0.148-0.144,0.301-0.282,0.455-0.422
							v-1.959c-0.5,0.431-0.99,0.869-1.467,1.328L116.119,108.277z"/>
					</g>
				</g>
			</g>
		</g>
	</g>
	<g>
		<g>
			<g>
				<path style="fill:#C9243F;" d="M117.99,242.532c-0.469,0.167-0.707,0.249-1.182,0.409c-0.207-0.654-0.307-0.982-0.5-1.637
					c1.104-0.334,1.648-0.51,2.727-0.878c0.596,0.165,0.895,0.246,1.494,0.4c-0.713,2.744-1.066,4.115-1.775,6.859
					c-0.83-0.215-1.242-0.327-2.066-0.562C117.209,245.288,117.471,244.37,117.99,242.532z"/>
				<path style="fill:#C9243F;" d="M136.811,246.262c-0.119,2.048-1.707,3.959-4.531,4.15c-0.16-0.602-0.24-0.904-0.395-1.506
					c1.357-0.192,2.139-0.604,2.578-1.26c-0.004-0.005-0.004-0.008-0.008-0.012c-0.352,0.126-0.74,0.163-1.092,0.129
					c-1.127-0.108-2.127-1.019-1.947-2.514c0.178-1.464,1.441-2.271,2.895-2.141C135.961,243.258,136.914,244.501,136.811,246.262z
					 M134.045,246.409c0.268,0.023,0.633-0.11,0.902-0.368c0.002-0.033,0.002-0.05,0.004-0.083c0.057-0.698-0.313-1.153-0.766-1.194
					c-0.52-0.047-0.865,0.292-0.912,0.764C133.227,246,133.516,246.361,134.045,246.409z"/>
				<path style="fill:#C9243F;" d="M148.107,248.85c0.701-0.304,1.049-0.46,1.738-0.776c0.17,0.44,0.471,0.642,0.957,0.595
					c0.344-0.033,0.662-0.273,0.615-0.725c-0.039-0.38-0.355-0.637-0.9-0.585c-0.178,0.018-0.266,0.024-0.445,0.04
					c-0.053-0.579-0.078-0.869-0.131-1.448c0.229-0.021,0.344-0.03,0.57-0.052c0.385-0.037,0.607-0.288,0.572-0.637
					c-0.039-0.369-0.318-0.568-0.688-0.533c-0.35,0.034-0.533,0.216-0.641,0.587c-0.664-0.269-0.992-0.405-1.645-0.686
					c0.238-0.823,1.107-1.475,2.176-1.578c1.326-0.129,2.473,0.429,2.627,1.646c0.086,0.676-0.178,1.262-0.697,1.685
					c0,0.013,0,0.02,0.002,0.031c0.736,0.227,1.244,0.729,1.35,1.537c0.162,1.258-0.887,2.19-2.451,2.345
					C149.676,250.438,148.537,249.782,148.107,248.85z"/>
				<path style="fill:#C9243F;" d="M165.924,242.55c-0.311,0.389-0.471,0.582-0.791,0.967c-0.518-0.449-0.773-0.675-1.281-1.132
					c0.764-0.862,1.137-1.297,1.859-2.176c0.596-0.172,0.893-0.26,1.484-0.442c0.836,2.709,1.254,4.063,2.086,6.771
					c-0.82,0.252-1.234,0.373-2.059,0.606C166.705,245.307,166.445,244.389,165.924,242.55z"/>
			</g>
		</g>
	</g>
	<g>
		<g>
			<path style="fill:#C9243F;" d="M83.82,231.264c-1.113-0.727-2.016-1.815-1.07-3.265c0.939-1.44,2.295-1.047,3.41-0.32
				l2.395,1.563l-3.824,5.863l-4.18-2.726l0.574-0.88l3.225,2.104l0.912-1.398L83.82,231.264z M85.574,228.539
				c-0.629-0.41-1.328-0.711-1.852,0.094c-0.529,0.813,0.029,1.345,0.65,1.749l1.457,0.95l1.201-1.843L85.574,228.539z"/>
			<path style="fill:#C9243F;" d="M82.17,224.76c0.254,0.193,0.498,0.452,0.701,0.73l-0.609,0.806
				c-0.143-0.208-0.344-0.423-0.568-0.592c-0.463-0.35-0.898-0.402-1.459-0.125l-0.26,0.13l-0.777,5.741l-1.014-0.766l0.695-4.487
				l-3.84,2.113l-0.99-0.748l5.289-2.786C80.633,224.089,81.508,224.26,82.17,224.76z"/>
			<path style="fill:#C9243F;" d="M70.963,224.938c-1.258-1.087-1.924-2.351-0.758-3.698c1.164-1.347,2.512-0.87,3.768,0.217
				l1.029,0.891l1.572-1.816l0.861,0.746l-4.582,5.298L70.963,224.938z M71.598,224.111l1.074,0.93l1.65-1.907l-1.076-0.93
				c-0.727-0.629-1.496-0.977-2.164-0.205C70.414,222.771,70.863,223.477,71.598,224.111z"/>
			<path style="fill:#C9243F;" d="M72.729,217.181l-3.279,0.449c0.484,0.861,0.516,1.823-0.303,2.646
				c-1.135,1.143-2.529,0.702-3.551-0.313l-1.938-1.925l4.934-4.967l0.811,0.804l-1.75,1.76l1.037,1.029l3.082-0.435L72.729,217.181
				z M68.084,217.485l-1.143-1.135l-1.742,1.753l1.143,1.135c0.625,0.62,1.369,0.837,1.982,0.22
				C68.93,218.848,68.707,218.106,68.084,217.485z"/>
			<path style="fill:#C9243F;" d="M58.662,212.483l0.787-0.695l1.529,1.73l4.459-3.94l0.754,0.854l-4.457,3.94l1.535,1.738
				l-0.785,0.695L58.662,212.483z"/>
			<path style="fill:#C9243F;" d="M55.49,208.649c-0.428-0.553-0.723-1.196-0.854-1.854l0.877-0.68
				c0.031,0.596,0.287,1.22,0.691,1.741c0.82,1.059,2.295,1.674,3.764,0.55c1.359-1.052,1.123-2.664,0.303-3.723
				c-0.441-0.569-0.988-0.967-1.547-1.116l0.893-0.691c0.59,0.289,1.154,0.738,1.605,1.322c1.107,1.431,1.35,3.671-0.545,5.125
				C58.709,210.848,56.617,210.104,55.49,208.649z"/>
			<path style="fill:#C9243F;" d="M59.008,201.441l-5.822,3.898l-0.635-0.948l2.43-1.626l-0.77-1.147l-3.514,0.005l-0.719-1.073
				l4.127,0.03l1.594-4.078l0.719,1.072l-1.346,3.442l0.781,1.164l2.52-1.688L59.008,201.441z"/>
			<path style="fill:#C9243F;" d="M55.559,196.283l-7.547,0.901l-0.619-1.085l4.615-6.033l0.594,1.042l-1.004,1.287l1.742,3.048
				l1.617-0.211L55.559,196.283z M52.277,195.601l-1.35-2.361l-1.984,2.55c-0.076,0.09-0.152,0.179-0.275,0.307
				c0.174-0.041,0.289-0.061,0.404-0.08L52.277,195.601z"/>
			<path style="fill:#C9243F;" d="M51.771,189.579l-3.236-0.681c0.164,0.973-0.129,1.888-1.176,2.387
				c-1.451,0.693-2.615-0.19-3.234-1.489l-1.176-2.462l6.313-3.013l0.492,1.028l-2.238,1.067l0.629,1.316l3.045,0.628
				L51.771,189.579z M47.299,188.304l-0.693-1.452l-2.227,1.063l0.691,1.452c0.379,0.794,1.006,1.248,1.791,0.873
				C47.637,189.869,47.678,189.097,47.299,188.304z"/>
			<path style="fill:#C9243F;" d="M47.494,180.075l-6.57,2.425l-1.641-4.448l0.984-0.363l1.248,3.378l5.582-2.061L47.494,180.075z"
				/>
			<path style="fill:#C9243F;" d="M37.705,173.366c-0.686-2.361,0.682-4.029,2.457-4.546s3.824,0.157,4.512,2.519
				c0.689,2.371-0.682,4.029-2.457,4.546S38.395,175.737,37.705,173.366z M38.732,173.067c0.473,1.622,1.875,2.078,3.16,1.704
				c1.287-0.374,2.227-1.512,1.754-3.134c-0.475-1.632-1.875-2.078-3.16-1.704C39.199,170.309,38.258,171.436,38.732,173.067z"/>
			<path style="fill:#C9243F;" d="M35.563,164.659c-0.145-0.685-0.129-1.393,0.041-2.041l1.084-0.229
				c-0.23,0.549-0.273,1.222-0.137,1.867c0.275,1.311,1.334,2.508,3.146,2.136c1.682-0.354,2.172-1.907,1.896-3.218
				c-0.148-0.705-0.469-1.302-0.906-1.679l1.105-0.233c0.406,0.518,0.717,1.167,0.869,1.891c0.373,1.771-0.387,3.892-2.727,4.374
				C37.5,168.04,35.941,166.459,35.563,164.659z"/>
			<path style="fill:#C9243F;" d="M41.879,158.8c0.045,0.317,0.033,0.672-0.02,1.013l-1,0.141c0.045-0.249,0.055-0.543,0.016-0.82
				c-0.08-0.574-0.352-0.92-0.943-1.12l-0.275-0.093l-4.607,3.514l-0.176-1.257l3.662-2.685l-4.209-1.218l-0.174-1.228l5.711,1.764
				C41.266,157.24,41.764,157.979,41.879,158.8z"/>
			<path style="fill:#C9243F;" d="M42.613,153.545l-2.625,0.176l-0.057-0.838c-1.676-0.779-3.967-0.855-6.023-0.718l-0.303-4.5
				l5.947-0.4l-0.059-0.889l2.625-0.176l0.068,1.037l-1.586,0.107l0.354,5.269l1.588-0.106L42.613,153.545z M39.848,151.646
				l-0.217-3.243l-4.9,0.329l0.15,2.246C36.625,150.97,38.537,151.072,39.848,151.646z"/>
			<path style="fill:#C9243F;" d="M40.498,145.714l-6.945-3.076l0.02-1.249l7.047-2.831l-0.021,1.199l-1.52,0.595l-0.059,3.508
				l1.5,0.645L40.498,145.714z M38.027,143.453l0.045-2.719l-3.008,1.179c-0.111,0.038-0.223,0.076-0.393,0.124
				c0.17,0.053,0.279,0.095,0.387,0.136L38.027,143.453z"/>
			<path style="fill:#C9243F;" d="M33.904,134.346c0.131-1.653,0.756-2.938,2.529-2.796c1.773,0.141,2.186,1.507,2.053,3.161
				l-0.107,1.355l2.393,0.19l-0.092,1.136l-6.975-0.556L33.904,134.346z M34.945,134.369l-0.113,1.415l2.512,0.199l0.111-1.415
				c0.076-0.956-0.098-1.782-1.115-1.863C35.324,132.624,35.021,133.402,34.945,134.369z"/>
			<path style="fill:#C9243F;" d="M34.723,126.272c0.104-0.692,0.363-1.352,0.748-1.9l1.098,0.162
				c-0.408,0.435-0.682,1.052-0.779,1.704c-0.195,1.325,0.381,2.814,2.209,3.096c1.701,0.252,2.701-1.035,2.896-2.359
				c0.105-0.712,0.014-1.383-0.266-1.889l1.117,0.165c0.201,0.626,0.266,1.343,0.158,2.075c-0.266,1.789-1.715,3.515-4.076,3.155
				C35.367,130.116,34.453,128.092,34.723,126.272z"/>
			<path style="fill:#C9243F;" d="M36.588,117.371l1.027,0.221l-0.486,2.26l5.82,1.253l-0.24,1.114l-5.82-1.253l-0.488,2.27
				l-1.027-0.221L36.588,117.371z"/>
			<path style="fill:#C9243F;" d="M37.834,112.883c0.404-1.403,1.221-2.146,2.365-1.818c0.816,0.235,1.156,0.863,1.176,1.483
				c0.348-0.557,1.016-1.145,2.064-0.844c1.527,0.439,1.436,2.025,1.129,3.093l-0.822,2.865l-6.729-1.934L37.834,112.883z
				 M38.752,113.271l-0.469,1.635l1.836,0.527l0.523-1.785c0.182-0.635,0.063-1.231-0.592-1.419
				C39.379,112.036,38.984,112.464,38.752,113.271z M41.574,113.885l-0.521,1.816l2.047,0.589l0.479-1.663
				c0.215-0.75,0.357-1.573-0.574-1.841C42.109,112.529,41.748,113.279,41.574,113.885z"/>
			<path style="fill:#C9243F;" d="M40.854,103.894l0.979,0.354l-1.252,3.459l1.795,0.649l1.15-3.177l0.977,0.354l-1.15,3.178
				l1.852,0.67l1.273-3.516l0.979,0.354l-1.662,4.587l-6.578-2.382L40.854,103.894z"/>
			<path style="fill:#C9243F;" d="M44.047,96.474l6.398,2.841l-0.463,1.042l-2.723-1.209l-1.498,3.372l2.723,1.21l-0.463,1.042
				l-6.396-2.842l0.463-1.042l2.713,1.206l1.498-3.373l-2.715-1.205L44.047,96.474z"/>
			<path style="fill:#C9243F;" d="M47.992,89.006l6.152,3.333l-0.543,1.002l-2.619-1.419l-1.758,3.243l2.619,1.419l-0.543,1.002
				l-6.152-3.333l0.543-1.002l2.611,1.414l1.756-3.243l-2.609-1.414L47.992,89.006z"/>
			<path style="fill:#C9243F;" d="M54.713,91.341l-4.281-6.28l0.676-1.051l7.484,1.312l-0.65,1.009l-1.605-0.297l-1.902,2.951
				l0.934,1.339L54.713,91.341z M53.805,88.115l1.473-2.287l-3.18-0.586c-0.113-0.025-0.229-0.052-0.398-0.102
				c0.117,0.134,0.188,0.228,0.258,0.32L53.805,88.115z"/>
			<path style="fill:#C9243F;" d="M58.889,84.925l-0.893-3.188c-0.787,0.597-1.736,0.76-2.664,0.063
				c-1.287-0.968-1.041-2.41-0.176-3.562l1.641-2.183l5.598,4.208l-0.686,0.912l-1.982-1.491l-0.879,1.167l0.854,2.994
				L58.889,84.925z M57.951,80.363l0.967-1.287l-1.975-1.484l-0.967,1.287c-0.529,0.703-0.643,1.47,0.053,1.992
				C56.717,81.389,57.422,81.067,57.951,80.363z"/>
			<path style="fill:#C9243F;" d="M62.297,69.486c0.473-0.517,1.055-0.918,1.682-1.159l0.82,0.749
				c-0.582,0.132-1.154,0.491-1.598,0.979c-0.904,0.989-1.258,2.549,0.102,3.804c1.27,1.16,2.818,0.651,3.723-0.339
				c0.484-0.531,0.783-1.14,0.834-1.716l0.836,0.763c-0.186,0.631-0.531,1.263-1.029,1.81c-1.223,1.336-3.389,1.959-5.146,0.339
				C60.682,73.036,61.055,70.846,62.297,69.486z"/>
			<path style="fill:#C9243F;" d="M68.643,63.325l0.721,0.751l-2.656,2.549l1.322,1.379l2.439-2.342l0.721,0.751l-2.439,2.342
				l1.365,1.421l2.699-2.591l0.721,0.751l-3.523,3.381l-4.848-5.053L68.643,63.325z"/>
			<path style="fill:#C9243F;" d="M74.643,58.207l4.486,5.373l-0.875,0.73l-3.813-4.567L72.66,61.23
				c1.779,2.553,3.449,4.988,2.004,6.207c-0.16,0.135-0.363,0.251-0.605,0.351l-0.674-0.807c0.141-0.051,0.252-0.119,0.414-0.254
				c0.918-0.818-1.008-3.327-2.633-5.617L74.643,58.207z"/>
			<path style="fill:#C9243F;" d="M80.689,62.387l-4.092-5.683l0.926-0.666l1.402,1.948l1.104-0.795
				c1.354-0.962,2.732-1.325,3.771,0.12c1.035,1.437,0.266,2.645-1.082,3.614L80.689,62.387z M81.006,60.876l1.152-0.829
				c0.789-0.567,1.297-1.229,0.701-2.058s-1.395-0.55-2.174,0.012l-1.152,0.83L81.006,60.876z"/>
			<path style="fill:#C9243F;" d="M85.33,50.636c0.596-0.37,1.266-0.599,1.934-0.66l0.586,0.943c-0.596-0.03-1.242,0.16-1.803,0.509
				c-1.139,0.707-1.904,2.112-0.936,3.69c0.908,1.462,2.537,1.392,3.676,0.685c0.611-0.38,1.064-0.885,1.271-1.426l0.596,0.961
				c-0.348,0.558-0.854,1.072-1.482,1.463c-1.539,0.955-3.793,0.966-5.047-1.07C82.811,53.614,83.766,51.606,85.33,50.636z"/>
			<path style="fill:#C9243F;" d="M92.127,54.882l-3.279-6.185l1.008-0.534l1.367,2.58l1.221-0.646l0.354-3.493l1.141-0.604
				l-0.453,4.1l3.891,2l-1.139,0.604l-3.285-1.688l-1.236,0.655l1.42,2.678L92.127,54.882z"/>
			<path style="fill:#C9243F;" d="M98.465,43.803c2.256-0.983,4.086,0.162,4.826,1.858s0.332,3.816-1.924,4.8
				c-2.266,0.987-4.086-0.161-4.826-1.857S96.199,44.791,98.465,43.803z M98.893,44.784c-1.549,0.676-1.822,2.127-1.287,3.355
				s1.785,2.016,3.334,1.34c1.559-0.68,1.824-2.126,1.287-3.354C101.691,44.896,100.451,44.104,98.893,44.784z"/>
			<path style="fill:#C9243F;" d="M105.256,48.663l1.275-4.271l-3.441-2.391l1.275-0.445l2.553,1.79l0.885-2.99l1.275-0.444
				l-1.217,4.016l3.666,2.547l-1.275,0.444l-2.771-1.957l-0.951,3.256L105.256,48.663z"/>
			<path style="fill:#C9243F;" d="M113.83,38.455c2.375-0.631,4.01,0.775,4.484,2.563s-0.248,3.819-2.623,4.449
				c-2.387,0.634-4.012-0.775-4.486-2.563S111.443,39.088,113.83,38.455z M114.104,39.488c-1.633,0.434-2.121,1.824-1.777,3.119
				c0.344,1.294,1.457,2.26,3.09,1.826c1.643-0.436,2.121-1.824,1.777-3.118C116.85,40.021,115.746,39.053,114.104,39.488z"/>
			<path style="fill:#C9243F;" d="M122.748,43.861c-0.875,0.164-1.684,0.185-2.578,0.027l-0.205-1.091
				c0.898,0.237,1.695,0.2,2.5,0.039c0.844-0.159,1.678-0.54,1.514-1.414c-0.154-0.826-0.971-0.896-1.758-0.748l-1.475,0.276
				l-0.191-1.021l1.375-0.259c0.836-0.157,1.328-0.574,1.211-1.193c-0.133-0.708-0.801-0.847-1.764-0.666
				c-0.709,0.123-1.342,0.384-2.057,0.905l-0.207-1.101c0.688-0.455,1.381-0.717,2.156-0.863c1.533-0.288,2.748,0.104,2.982,1.353
				c0.148,0.796-0.223,1.415-0.832,1.754c0.699,0.031,1.523,0.415,1.725,1.486C125.43,42.859,124.064,43.614,122.748,43.861z"/>
			<path style="fill:#C9243F;" d="M126.357,43.059l1.684-2.852c-0.975-0.155-1.75-0.728-1.887-1.88
				c-0.191-1.6,1.02-2.42,2.449-2.591l2.713-0.325l0.832,6.953l-1.133,0.136l-0.295-2.463l-1.449,0.174l-1.572,2.687L126.357,43.059
				z M129.002,39.226l1.6-0.192l-0.295-2.453l-1.6,0.191c-0.873,0.104-1.504,0.554-1.4,1.418
				C127.408,39.043,128.127,39.33,129.002,39.226z"/>
			<path style="fill:#C9243F;" d="M138.902,41.971l-0.199-4.357c-0.012-0.25-0.023-0.52-0.025-0.76l-3.533,5.289l-1.068,0.049
				l-0.32-6.996l1.139-0.052l0.199,4.348c0.012,0.26,0.023,0.529,0.025,0.77l3.533-5.289l1.07-0.049l0.32,6.996L138.902,41.971z
				 M138.156,33.973l-0.043-0.92c-0.494,0.354-0.939,0.474-1.449,0.497c-0.52,0.024-0.975-0.056-1.498-0.361l0.041,0.919
				c0.455,0.29,0.939,0.388,1.5,0.362C137.256,34.444,137.73,34.303,138.156,33.973z"/>
			<path style="fill:#C9243F;" d="M145.428,34.882c0.701,0.019,1.387,0.196,1.979,0.512l-0.029,1.109
				c-0.48-0.353-1.127-0.549-1.785-0.566c-1.34-0.035-2.75,0.719-2.809,2.567c-0.043,1.719,1.355,2.556,2.693,2.59
				c0.721,0.02,1.375-0.154,1.844-0.492l-0.029,1.13c-0.598,0.274-1.301,0.426-2.041,0.407c-1.809-0.047-3.697-1.276-3.625-3.665
				C141.689,35.985,143.59,34.834,145.428,34.882z"/>
			<path style="fill:#C9243F;" d="M154.49,35.653l-0.094,1.047l-2.303-0.208l-0.535,5.929l-1.137-0.103l0.535-5.929l-2.311-0.209
				l0.094-1.047L154.49,35.653z"/>
			<path style="fill:#C9243F;" d="M159.092,36.343c1.441,0.228,2.279,0.946,2.094,2.121c-0.133,0.839-0.713,1.253-1.326,1.349
				c0.594,0.276,1.26,0.866,1.09,1.942c-0.246,1.57-1.832,1.675-2.928,1.502l-2.941-0.464l1.09-6.911L159.092,36.343z
				 M158.559,40.174l-1.865-0.294l-0.332,2.103l1.707,0.27c0.771,0.122,1.604,0.162,1.756-0.796
				C159.969,40.538,159.18,40.272,158.559,40.174z M158.818,37.302l-1.678-0.265l-0.297,1.886l1.834,0.299
				c0.652,0.103,1.229-0.09,1.334-0.761C160.121,37.77,159.648,37.432,158.818,37.302z"/>
			<path style="fill:#C9243F;" d="M168.385,38.234l-0.23,1.015l-3.588-0.82l-0.426,1.862l3.295,0.753l-0.232,1.014l-3.295-0.753
				l-0.439,1.921l3.646,0.834l-0.23,1.014l-4.758-1.087l1.559-6.825L168.385,38.234z"/>
			<path style="fill:#C9243F;" d="M176.141,40.501l-2.041,6.697l-1.09-0.332l0.867-2.852l-3.529-1.075l-0.869,2.852l-1.09-0.333
				l2.039-6.696l1.092,0.332l-0.867,2.842l3.531,1.075l0.865-2.842L176.141,40.501z"/>
			<path style="fill:#C9243F;" d="M184.045,43.506l-2.563,6.516l-1.061-0.417l1.09-2.774l-3.434-1.351l-1.092,2.773l-1.061-0.417
				l2.563-6.516l1.063,0.417l-1.088,2.765l3.434,1.352l1.088-2.765L184.045,43.506z"/>
			<path style="fill:#C9243F;" d="M182.525,50.451l5.721-5.01l1.125,0.545l-0.398,7.59l-1.08-0.524l0.1-1.63l-3.16-1.531
				l-1.217,1.089L182.525,50.451z M185.621,49.16l2.447,1.188l0.197-3.229c0.014-0.117,0.025-0.233,0.055-0.408
				c-0.119,0.131-0.203,0.213-0.287,0.294L185.621,49.16z"/>
			<path style="fill:#C9243F;" d="M189.424,53.826l3.059-1.273c-0.689-0.709-0.965-1.632-0.385-2.637
				c0.807-1.396,2.268-1.326,3.516-0.605l2.367,1.366l-3.504,6.067l-0.988-0.57l1.242-2.149l-1.266-0.731l-2.871,1.209
				L189.424,53.826z M193.84,52.343l1.395,0.806l1.236-2.141l-1.395-0.806c-0.764-0.44-1.537-0.46-1.973,0.294
				C192.674,51.241,193.076,51.902,193.84,52.343z"/>
			<path style="fill:#C9243F;" d="M199.906,60.275l6.588-3.787l0.996,0.755l-1.881,7.358l-0.955-0.725l0.418-1.578l-2.795-2.12
				l-1.406,0.828L199.906,60.275z M203.191,59.617l2.166,1.644l0.828-3.124c0.033-0.112,0.068-0.224,0.131-0.39
				c-0.143,0.105-0.24,0.169-0.338,0.232L203.191,59.617z"/>
			<path style="fill:#C9243F;" d="M206.469,65.345l4.615-5.266l0.857,0.751l-1.926,2.197l1.039,0.909l3.391-0.911l0.971,0.851
				l-3.992,1.036l-0.486,4.349l-0.971-0.851l0.41-3.671l-1.053-0.923l-1.998,2.28L206.469,65.345z"/>
			<path style="fill:#C9243F;" d="M211.162,69.465l7.059-2.818l0.881,0.889l-2.902,7.021l-0.846-0.854l0.639-1.503l-2.469-2.496
				l-1.51,0.621L211.162,69.465z M214.508,69.278l1.914,1.934l1.26-2.978c0.051-0.105,0.102-0.212,0.188-0.367
				c-0.156,0.085-0.264,0.134-0.369,0.183L214.508,69.278z"/>
			<path style="fill:#C9243F;" d="M215.332,75.962l2.006-1.702l0.545,0.641c1.811-0.369,3.699-1.668,5.271-3.001l2.918,3.44
				l-4.547,3.856l0.574,0.679l-2.006,1.702l-0.672-0.794l1.213-1.028l-3.416-4.028l-1.213,1.028L215.332,75.962z M218.684,75.847
				l2.104,2.479l3.746-3.177l-1.455-1.716C221.678,74.475,220.08,75.528,218.684,75.847z"/>
			<path style="fill:#C9243F;" d="M230.621,81.434l-0.84,0.614l-2.172-2.971l-1.543,1.128l1.996,2.729l-0.84,0.614l-1.996-2.729
				l-1.59,1.163l2.209,3.02l-0.84,0.613l-2.881-3.938l5.65-4.134L230.621,81.434z"/>
			<path style="fill:#C9243F;" d="M235.742,89.468l-5.961,3.686l-0.6-0.971l4.172-2.58l-3.99-0.134l-0.357-0.579l1.672-3.635
				l-4.182,2.585l-0.6-0.971l5.959-3.685l0.543,0.877l-2.014,4.376l4.814,0.153L235.742,89.468z"/>
			<path style="fill:#C9243F;" d="M232.871,99.151l3.893-1.969c0.223-0.113,0.465-0.235,0.684-0.335l-6.273-1.053l-0.484-0.955
				l6.25-3.161l0.514,1.018l-3.883,1.965c-0.232,0.117-0.473,0.239-0.691,0.339l6.273,1.053l0.482,0.955l-6.248,3.161
				L232.871,99.151z"/>
			<path style="fill:#C9243F;" d="M233.936,101.34l3.197,0.849c-0.115-0.98,0.227-1.88,1.297-2.324
				c1.486-0.616,2.604,0.327,3.154,1.656l1.047,2.521l-6.463,2.681l-0.436-1.052l2.289-0.95l-0.561-1.348l-3.008-0.786
				L233.936,101.34z M238.336,102.847l0.617,1.486l2.281-0.946l-0.617-1.486c-0.338-0.813-0.939-1.298-1.742-0.965
				C238.08,101.265,238,102.034,238.336,102.847z"/>
			<path style="fill:#C9243F;" d="M239.131,115.677l4.18-1.257c0.238-0.072,0.498-0.15,0.73-0.21l-5.994-2.136l-0.309-1.025
				l6.709-2.019l0.328,1.092l-4.168,1.255c-0.25,0.075-0.508,0.152-0.742,0.212l5.994,2.137l0.309,1.025l-6.707,2.019
				L239.131,115.677z"/>
			<path style="fill:#C9243F;" d="M248.33,124.391l-6.848,1.442l-0.234-1.115l4.793-1.01l-3.703-1.478l-0.141-0.665l2.803-2.848
				l-4.803,1.012l-0.234-1.115l6.846-1.441l0.213,1.007l-3.375,3.428l4.471,1.775L248.33,124.391z"/>
			<path style="fill:#C9243F;" d="M249.305,131.631l-1.031,0.133l-0.473-3.649l-1.895,0.244l0.434,3.353l-1.031,0.134l-0.434-3.353
				l-1.953,0.252l0.479,3.71l-1.031,0.133l-0.625-4.84l6.943-0.897L249.305,131.631z"/>
			<path style="fill:#C9243F;" d="M249.859,139.673l-6.984,0.406l-0.066-1.138l2.973-0.173l-0.213-3.683l-2.975,0.173l-0.066-1.138
				l6.986-0.405l0.066,1.138l-2.965,0.172l0.215,3.683l2.963-0.173L249.859,139.673z"/>
			<path style="fill:#C9243F;" d="M242.828,146.836l4.357,0.08c0.25,0.005,0.52,0.01,0.76,0.024l-5.049-3.862l0.02-1.069
				l6.996,0.128l-0.02,1.14l-4.348-0.079c-0.26-0.005-0.531-0.01-0.77-0.024l5.047,3.861l-0.02,1.069l-6.996-0.128L242.828,146.836z
				"/>
			<path style="fill:#C9243F;" d="M249.082,156.345c-0.172,1.451-0.857,2.316-2.039,2.177c-0.846-0.101-1.281-0.665-1.4-1.273
				c-0.254,0.604-0.818,1.293-1.9,1.165c-1.58-0.188-1.746-1.768-1.615-2.87l0.35-2.961l6.953,0.823L249.082,156.345z
				 M245.23,155.96l0.221-1.877l-2.115-0.251l-0.203,1.719c-0.092,0.774-0.1,1.61,0.863,1.724
				C244.92,157.384,245.156,156.586,245.23,155.96z M248.113,156.109l0.199-1.688l-1.896-0.225l-0.229,1.847
				c-0.078,0.655,0.137,1.225,0.813,1.305C247.695,157.43,248.014,156.944,248.113,156.109z"/>
			<path style="fill:#C9243F;" d="M241.369,159.977c0.061-0.354,0.32-0.635,0.764-0.561c0.424,0.072,0.578,0.422,0.518,0.777
				c-0.061,0.354-0.318,0.625-0.742,0.554C241.465,160.672,241.309,160.332,241.369,159.977z"/>
			<path style="fill:#C9243F;" d="M247.41,166.171c-0.352,1.621-1.143,2.81-2.881,2.432s-1.963-1.786-1.611-3.407l0.289-1.328
				l-2.344-0.51l0.24-1.113l6.836,1.485L247.41,166.171z M246.381,166.009l0.303-1.387l-2.461-0.535l-0.303,1.387
				c-0.203,0.938-0.141,1.78,0.855,1.996C245.771,167.687,246.176,166.956,246.381,166.009z"/>
			<path style="fill:#C9243F;" d="M239.359,169.244c0.092-0.348,0.377-0.603,0.813-0.486c0.416,0.11,0.535,0.474,0.443,0.821
				c-0.094,0.348-0.377,0.594-0.791,0.482C239.389,169.945,239.266,169.592,239.359,169.244z"/>
			<path style="fill:#C9243F;" d="M236.779,176.668l0.848,0.305c0.789-1.99,2.268-2.937,4-2.313s2.27,2.294,1.609,4.333l0.848,0.305
				l-0.375,1.045l-0.848-0.305c-0.803,1.997-2.27,2.938-4.002,2.313c-1.732-0.623-2.262-2.281-1.609-4.332l-0.848-0.306
				L236.779,176.668z M238.172,178.35c-0.477,1.594,0.035,2.533,1.08,2.909c1.047,0.376,2.039-0.021,2.688-1.554L238.172,178.35z
				 M238.549,177.305l3.766,1.355c0.479-1.594-0.025-2.529-1.08-2.909C240.189,175.375,239.195,175.772,238.549,177.305z"/>
			<path style="fill:#C9243F;" d="M233.02,186.776l3.965,1.81c0.227,0.104,0.473,0.216,0.688,0.325l-3.092-5.554l0.443-0.974
				l6.367,2.905l-0.475,1.037l-3.955-1.806c-0.236-0.107-0.482-0.22-0.697-0.328l3.092,5.553l-0.443,0.974l-6.365-2.905
				L233.02,186.776z"/>
			<path style="fill:#C9243F;" d="M234.975,198.01l-6.121-3.396l0.553-0.997l5.203,2.887l1.125-2.028
				c-2.578-1.74-5.014-3.411-4.105-5.068c0.102-0.185,0.248-0.366,0.439-0.546l0.918,0.51c-0.111,0.099-0.191,0.202-0.293,0.386
				c-0.563,1.095,2.137,2.742,4.479,4.293L234.975,198.01z"/>
			<path style="fill:#C9243F;" d="M225.199,200.301l3.639,2.401c0.209,0.138,0.434,0.287,0.629,0.427l-2.197-5.967l0.59-0.893
				l5.842,3.855l-0.627,0.952l-3.631-2.396c-0.217-0.144-0.443-0.292-0.637-0.433l2.195,5.967l-0.588,0.894l-5.844-3.856
				L225.199,200.301z"/>
			<path style="fill:#C9243F;" d="M223.459,202.804l5.533,4.294l-3.607,4.647l-5.533-4.294l0.699-0.9l4.703,3.649l2.209-2.846
				l-4.703-3.649L223.459,202.804z"/>
			<path style="fill:#C9243F;" d="M218.6,208.933l5.182,4.711l-3.957,4.352l-5.18-4.711l0.766-0.844l4.404,4.004l2.422-2.664
				l-4.402-4.004L218.6,208.933z"/>
			<path style="fill:#C9243F;" d="M215.846,222.07c-1.793,1.686-3.902,1.224-5.17-0.126s-1.598-3.483,0.197-5.169
				c1.801-1.692,3.902-1.223,5.17,0.126C217.311,218.251,217.648,220.378,215.846,222.07z M215.113,221.29
				c1.232-1.157,1.002-2.616,0.084-3.594s-2.359-1.298-3.592-0.141c-1.24,1.165-1.002,2.616-0.084,3.594
				S213.873,222.455,215.113,221.29z"/>
			<path style="fill:#C9243F;" d="M209.205,227.653c-1.137,0.915-2.234,1.053-2.98,0.125c-0.533-0.663-0.449-1.373-0.107-1.891
				c-0.605,0.254-1.49,0.351-2.174-0.499c-0.998-1.24-0.008-2.485,0.857-3.182l2.322-1.868l4.391,5.458L209.205,227.653z
				 M206.725,224.68l1.473-1.186l-1.336-1.661l-1.348,1.085c-0.609,0.489-1.199,1.08-0.592,1.836
				C205.506,225.479,206.232,225.074,206.725,224.68z M208.678,226.806l1.326-1.066l-1.197-1.489l-1.457,1.159
				c-0.514,0.414-0.76,0.971-0.334,1.501C207.455,227.456,208.023,227.332,208.678,226.806z"/>
			<path style="fill:#C9243F;" d="M202.164,224.322l1.551,7.442l-1.027,0.711l-6.412-4.078l0.988-0.683l1.369,0.889l2.887-1.998
				l-0.35-1.595L202.164,224.322z M201.768,227.65l-2.236,1.548l2.713,1.759c0.096,0.068,0.191,0.136,0.328,0.247
				c-0.055-0.168-0.084-0.281-0.115-0.395L201.768,227.65z"/>
		</g>
	</g>
</g>
</svg>
