<?xml version="1.0" encoding="iso-8859-1"?>
<!-- Generator: Adobe Illustrator 15.1.0, SVG Export Plug-In . SVG Version: 6.00 Build 0)  -->
<!DOCTYPE svg PUBLIC "-//W3C//DTD SVG 1.1//EN" "http://www.w3.org/Graphics/SVG/1.1/DTD/svg11.dtd">
<svg version="1.1" id="Layer_1" xmlns="http://www.w3.org/2000/svg" xmlns:xlink="http://www.w3.org/1999/xlink" x="0px" y="0px"
	 width="510.236px" height="283.465px" viewBox="0 0 510.236 283.465" style="enable-background:new 0 0 510.236 283.465;"
	 xml:space="preserve">
<path style="fill-rule:evenodd;clip-rule:evenodd;fill:#C9243F;" d="M165.949,126.096c-18.295,0.299-31.177,8.361-34.295,27.618
	c-1.488-2.395-4.464-7.174-4.464-7.174l13.976-20.311c0,0-6.962,0-10.063,0l-9.476,13.261c0,0-4.021-5.932-6.033-8.902
	c-0.023-0.846,0.017-3.527,0-4.019c-7.417-0.693-14.411,0.296-20.558,3.508c0-1.211,0-2.634,0-3.849H68.26l-0.021,21.187
	c-1.644-2.695-3.909-4.404-5.241-5.132c-2.15-1.176-6.123-2.664-10.944-2.669c-2.712-0.005-4.62,0.299-5.427,0.456
	c0-1.561,0-3.51,0-5.072c3.984,0.055,11.223,0,13.331-0.02h0.988c2.688,0,4.301,1.882,4.301,1.882v-10.577v-0.024
	c-7.775-0.014-17.301-0.031-25.075-0.041c0-0.003,0-0.003,0-0.003h-1.205c-0.508-0.004-1.015-0.004-1.515-0.005v43.262h0.18
	c0,0,11.431,0.024,16.589,0.117c9.997,0.172,12.945-5.059,14.019-7l0.021,6.864h9.094c0,0,0.016-24.765,0.038-34.267
	c2.931,0,7.632,0,10.563,0c-15.558,18.192-8.199,49.117,20.999,50.938c8.479,0.021,15.585-2.108,21.134-7.794l-5.42-7.763
	c-5.32,7.62-24.282,10.196-32.569-3.152c-7.389-11.708-0.987-31.214,16.849-31.428c2.561,3.533,7.69,10.59,7.69,10.59L99.95,169.466
	c0,0,7.663,0,10.937,0l3.064-4.391c0.168-0.298,0.359-0.592,0.602-0.89c2.317-3.293,4.634-6.591,6.952-9.884
	c1.705,2.129,3.333,4.426,4.903,6.839l0.015-0.014l5.829,8.339h11.301c0,0,0.538-0.024,0.75-0.051
	c-2.5-3.1-4.155-7.117-3.658-10.863c0.033-0.251,0.122-0.757,0.122-0.757h16.257v11.677h8.934h0.012
	C165.969,169.473,165.99,129.19,165.949,126.096z M46.694,161.103c0,0,0.074-0.854,0-1.377c0-2.849,0-5.701,0-8.555
	c-0.012-0.813,0-1.993,0-1.993s14.199-2.571,14.386,5.953C61.106,164.23,46.694,161.103,46.694,161.103z M157.328,149.22
	c-5.21,0-10.426,0-15.64,0c2.796-7.141,7.681-11.823,15.64-12.926C157.328,140.604,157.328,144.909,157.328,149.22z"/>
<g>
	<g>
		<g>
			<path style="fill-rule:evenodd;clip-rule:evenodd;fill:#FEC340;" d="M240.792,118.831l0.018-0.018
				c-0.005,0-0.01,0.002-0.014,0.005c0.004-0.005,0.004-0.012,0.004-0.013l-0.014,0.015c-5.121,1.55-11.26,2.409-15.406,8.432
				c-2.231,3.243-3.633,10.785-3.594,10.78c-0.008,0.034,7.455-1.38,10.661-3.633C238.41,130.208,239.26,124.003,240.792,118.831z"
				/>
		</g>
		<g>
			<path style="fill-rule:evenodd;clip-rule:evenodd;fill:#FEC340;" d="M225.032,156.582c-2.697-0.03-4.192-0.009-6.86-0.016
				c-6.209-0.013-14.133,0.697-21.328,7.186c-0.257,0.23-0.429,0.298-0.526,0.27c-0.06-0.019-0.213-0.177-0.234-0.231
				c-0.043-0.095,0.015-0.273,0.256-0.548c6.425-7.27,7.127-15.277,7.109-21.553c-0.005-2.697,0.018-4.207-0.018-6.933
				c-6.77,4.653-11.251,10.532-12.542,15.388c-1.605,6.051,0.998,13.745-0.181,19.299l-0.002,0.004c0.002,0,0.002,0,0.002-0.004
				c0,0.004,0,0.004,0,0.004v-0.004c5.497-1.19,13.111,1.44,19.097-0.182C214.61,167.958,220.427,163.427,225.032,156.582z"/>
		</g>
		<g>
			<path style="fill-rule:evenodd;clip-rule:evenodd;fill:#FEC340;" d="M240.55,140.891c-2.692-0.035-4.191-0.01-6.857-0.016
				c-6.21-0.015-14.132,0.695-21.328,7.188c-0.255,0.227-0.43,0.295-0.524,0.266c-0.064-0.017-0.216-0.178-0.239-0.229
				c-0.042-0.095,0.019-0.276,0.261-0.548c6.424-7.272,7.123-15.28,7.108-21.554c-0.004-2.696,0.016-4.21-0.019-6.932
				c-6.767,4.651-11.252,10.529-12.539,15.387c-1.607,6.053,0.995,13.744-0.184,19.301l0,0l0,0v0.001v-0.001
				c5.497-1.194,13.11,1.439,19.098-0.185C230.132,152.264,235.949,147.732,240.55,140.891z"/>
		</g>
	</g>
	<g>
		<path style="fill-rule:evenodd;clip-rule:evenodd;fill:#C9243F;" d="M190.104,135.206c0.553-6.677,2.166-11.934,5.042-15.94
			c3.619-5.029,7.99-9.032,11.745-13.866c0.503,4.592,1.349,8.589,0.903,13.243c-1.24,12.928-12.626,17.109-17.797,25.034
			C189.781,141.624,190.059,135.766,190.104,135.206z"/>
	</g>
</g>
<g>
	<g>
		<path d="M262.385,133.167c1.43,0,2.777,0.507,2.777,2.374c0,1.878-1.348,2.374-2.777,2.374h-3.147v-7.553h5.334v1.457h-3.78v1.349
			H262.385z M262.396,136.49c0.61,0,1.182-0.14,1.182-0.95s-0.571-0.95-1.182-0.95h-1.605v1.9H262.396z"/>
		<path d="M267.885,138.065c-0.35,0-0.733-0.075-1.098-0.183v-1.371c0.25,0.086,0.552,0.141,0.841,0.141
			c0.476,0,0.859-0.119,1.116-0.679l0.126-0.271l-2.891-5.341h1.72l1.905,3.883l1.587-3.883h1.709l-2.633,5.827
			C269.604,137.655,268.808,138.065,267.885,138.065z"/>
		<path d="M276.898,130.361c1.751,0,3.129,0.583,3.129,2.535s-1.378,2.537-3.129,2.537h-1.18v2.481h-1.554v-7.553H276.898z
			 M276.972,131.785h-1.253v2.224h1.253c0.796,0,1.471-0.227,1.471-1.112C278.442,132,277.768,131.785,276.972,131.785z"/>
		<path d="M280.969,137.915l2.018-2.774c-0.931-0.323-1.613-1.024-1.613-2.255c0-1.813,1.378-2.524,2.91-2.524h2.952v7.553h-1.552
			v-2.567h-1.089l-1.833,2.567H280.969z M284.295,133.998h1.389v-2.213h-1.389c-0.788,0-1.327,0.345-1.327,1.101
			C282.968,133.642,283.507,133.998,284.295,133.998z"/>
		<path d="M294.662,130.361v1.457h-2.227v6.097h-1.543v-6.097h-2.227v-1.457H294.662z"/>
		<path d="M299.583,130.209c0.724,0,1.45,0.162,2.072,0.485v1.544c-0.467-0.379-1.141-0.594-1.813-0.594
			c-1.274,0-2.558,0.756-2.558,2.579c-0.011,1.662,1.293,2.396,2.558,2.396c0.747,0,1.429-0.216,1.863-0.626v1.586
			c-0.62,0.313-1.335,0.485-2.101,0.485c-1.938,0-3.914-1.208-3.914-3.842C295.698,131.461,297.646,130.209,299.583,130.209z"/>
		<path d="M303.385,137.915v-7.553h1.554v2.999h1.17l1.833-2.999h1.731l-2.353,3.678l2.485,3.875h-1.718l-1.979-3.086h-1.17v3.086
			H303.385z"/>
		<path d="M310.316,137.915l2.96-7.553h1.68l2.952,7.553h-1.607l-0.527-1.413h-3.314l-0.538,1.413H310.316z M312.947,135.163h2.339
			l-1.013-2.708c-0.054-0.153-0.105-0.304-0.156-0.596c-0.053,0.292-0.105,0.442-0.166,0.596L312.947,135.163z"/>
		<path d="M318.611,137.915l2.021-2.774c-0.933-0.323-1.617-1.024-1.617-2.255c0-1.813,1.377-2.524,2.91-2.524h2.952v7.553h-1.553
			v-2.567h-1.087l-1.834,2.567H318.611z M321.938,133.998h1.388v-2.213h-1.388c-0.787,0-1.326,0.345-1.326,1.101
			C320.611,133.642,321.15,133.998,321.938,133.998z"/>
		<path d="M329.768,137.915v-7.553h5.066v1.457h-3.513v6.097H329.768z"/>
		<path d="M339.702,130.209c2.568,0,3.854,1.878,3.854,3.928c0,2.051-1.286,3.928-3.854,3.928s-3.853-1.877-3.853-3.928
			C335.85,132.087,337.134,130.209,339.702,130.209z M339.702,131.709c-1.513,0-2.268,1.101-2.268,2.428s0.755,2.428,2.268,2.428
			c1.5,0,2.257-1.101,2.257-2.428S341.202,131.709,339.702,131.709z"/>
		<path d="M348.714,130.209c0.724,0,1.448,0.162,2.072,0.485v1.544c-0.468-0.379-1.14-0.594-1.812-0.594
			c-1.275,0-2.56,0.756-2.56,2.579c-0.011,1.662,1.294,2.396,2.56,2.396c0.744,0,1.428-0.216,1.861-0.626v1.586
			c-0.62,0.313-1.336,0.485-2.103,0.485c-1.936,0-3.913-1.208-3.913-3.842C344.829,131.461,346.776,130.209,348.714,130.209z"/>
		<path d="M353.654,138.065c-0.352,0-0.734-0.075-1.098-0.183v-1.371c0.248,0.086,0.549,0.141,0.839,0.141
			c0.478,0,0.859-0.119,1.119-0.679l0.124-0.271l-2.89-5.341h1.72l1.904,3.883l1.587-3.883h1.708l-2.632,5.827
			C355.373,137.655,354.577,138.065,353.654,138.065z"/>
		<path d="M359.373,139.555v-3.065h0.85c0.932-1.738,1.15-4.026,1.15-6.129h4.928v6.129h0.924v3.065h-1.368v-1.641h-5.115v1.641
			H359.373z M361.87,136.49h2.879v-4.672h-1.927C362.718,133.49,362.489,135.25,361.87,136.49z"/>
		<path d="M368.086,137.915l2.961-7.553h1.678l2.954,7.553h-1.608l-0.525-1.413h-3.314l-0.54,1.413H368.086z M370.715,135.163h2.343
			l-1.016-2.708c-0.052-0.153-0.104-0.304-0.156-0.596c-0.053,0.292-0.103,0.442-0.166,0.596L370.715,135.163z"/>
		<path d="M379.738,130.361c1.752,0,3.129,0.583,3.129,2.535s-1.377,2.537-3.129,2.537h-1.182v2.481h-1.554v-7.553H379.738z
			 M379.811,131.785h-1.254v2.224h1.254c0.796,0,1.471-0.227,1.471-1.112C381.281,132,380.606,131.785,379.811,131.785z"/>
		<path d="M387.921,130.209c0.725,0,1.45,0.162,2.073,0.485v1.544c-0.467-0.379-1.142-0.594-1.814-0.594
			c-1.273,0-2.557,0.756-2.557,2.579c-0.011,1.662,1.293,2.396,2.557,2.396c0.746,0,1.43-0.216,1.863-0.626v1.586
			c-0.621,0.313-1.335,0.485-2.101,0.485c-1.937,0-3.914-1.208-3.914-3.842C384.036,131.461,385.983,130.209,387.921,130.209z"/>
		<path d="M397.078,130.361v1.457h-2.227v6.097h-1.545v-6.097h-2.224v-1.457H397.078z"/>
		<path d="M401.676,130.361c1.545,0,2.507,0.614,2.507,1.909c0,0.884-0.453,1.425-1.098,1.65c0.717,0.216,1.391,0.767,1.391,1.878
			c0,1.717-1.588,2.116-2.85,2.116h-3.117v-7.553H401.676z M401.688,134.656h-1.638v1.942h1.555c0.694,0,1.316-0.151,1.316-0.97
			C402.922,134.828,402.311,134.656,401.688,134.656z M401.542,131.688h-1.479v1.726h1.563c0.59,0,1.016-0.28,1.016-0.863
			C402.642,131.958,402.226,131.688,401.542,131.688z"/>
		<path d="M411.25,130.361v1.423h-3.553v1.608h3.241v1.414h-3.241v1.684h3.614v1.424h-5.167v-7.553H411.25z"/>
		<path d="M419.411,130.361v7.553h-1.553v-3.044h-3.254v3.044h-1.554v-7.553h1.554v3.042h3.254v-3.042H419.411z"/>
		<path d="M427.843,130.361v7.553h-1.553v-3.044h-3.252v3.044h-1.554v-7.553h1.554v3.042h3.252v-3.042H427.843z"/>
		<path d="M429.171,137.915l2.963-7.553h1.677l2.951,7.553h-1.605l-0.527-1.413h-3.314l-0.538,1.413H429.171z M431.8,135.163h2.342
			l-1.014-2.708c-0.053-0.153-0.104-0.304-0.156-0.596c-0.052,0.292-0.104,0.442-0.167,0.596L431.8,135.163z"/>
		<path d="M437.467,137.915l2.021-2.774c-0.932-0.323-1.616-1.024-1.616-2.255c0-1.813,1.378-2.524,2.91-2.524h2.952v7.553h-1.554
			v-2.567h-1.087l-1.833,2.567H437.467z M440.792,133.998h1.388v-2.213h-1.388c-0.787,0-1.326,0.345-1.326,1.101
			C439.466,133.642,440.005,133.998,440.792,133.998z"/>
		<path d="M262.728,143.157c0.726,0,1.451,0.162,2.071,0.487v1.543c-0.467-0.378-1.141-0.594-1.813-0.594
			c-1.273,0-2.559,0.755-2.559,2.579c-0.009,1.663,1.295,2.396,2.559,2.396c0.746,0,1.43-0.216,1.866-0.627v1.587
			c-0.623,0.313-1.338,0.485-2.105,0.485c-1.936,0-3.914-1.208-3.914-3.841C258.844,144.409,260.791,143.157,262.728,143.157z"/>
		<path d="M271.637,143.309v1.425h-3.553v1.607h3.241v1.414h-3.241v1.684h3.613v1.425h-5.168v-7.555H271.637z"/>
		<path d="M279.693,143.309v7.555h-1.552v-6.098h-1.99c-0.247,3.217-0.58,6.184-2.589,6.195c-0.247,0-0.517-0.033-0.807-0.141
			v-1.424c0.135,0.043,0.29,0.065,0.497,0.054c1.221-0.086,1.283-3.486,1.468-6.141H279.693z"/>
		<path d="M281.766,150.863v-7.555h1.555v2.482h1.18c1.753,0.011,3.13,0.583,3.13,2.537c0,1.953-1.377,2.536-3.13,2.536H281.766z
			 M283.32,149.438h1.254c0.796,0,1.471-0.227,1.471-1.111c0-0.885-0.675-1.112-1.471-1.112h-1.254V149.438z"/>
		<path d="M292.686,143.157c0.724,0,1.447,0.162,2.07,0.487v1.543c-0.467-0.378-1.14-0.594-1.813-0.594
			c-1.273,0-2.558,0.755-2.558,2.579c-0.011,1.663,1.294,2.396,2.558,2.396c0.746,0,1.43-0.216,1.865-0.627v1.587
			c-0.622,0.313-1.337,0.485-2.103,0.485c-1.938,0-3.916-1.208-3.916-3.841C288.8,144.409,290.748,143.157,292.686,143.157z"/>
		<path d="M296.485,150.863v-7.555h1.555v3h1.169l1.835-3h1.731l-2.353,3.681l2.483,3.874h-1.718l-1.979-3.086h-1.169v3.086H296.485
			z"/>
		<path d="M307.611,143.157c2.569,0,3.853,1.879,3.853,3.929c0,2.049-1.283,3.927-3.853,3.927c-2.568,0-3.853-1.878-3.853-3.927
			C303.759,145.036,305.043,143.157,307.611,143.157z M307.611,144.658c-1.513,0-2.268,1.101-2.268,2.428s0.755,2.429,2.268,2.429
			c1.502,0,2.258-1.101,2.258-2.429S309.113,144.658,307.611,144.658z"/>
		<path d="M312.294,150.863l2.599-3.918l-2.443-3.637h1.811l1.606,2.482l1.597-2.482h1.82l-2.441,3.637l2.598,3.918h-1.821
			l-1.752-2.752l-1.759,2.752H312.294z"/>
		<path d="M324.123,143.157c2.568,0,3.854,1.879,3.854,3.929c0,2.049-1.285,3.927-3.854,3.927s-3.852-1.878-3.852-3.927
			C320.271,145.036,321.555,143.157,324.123,143.157z M324.123,144.658c-1.514,0-2.269,1.101-2.269,2.428s0.755,2.429,2.269,2.429
			c1.503,0,2.258-1.101,2.258-2.429S325.626,144.658,324.123,144.658z"/>
		<path d="M331.954,151.014c-0.859,0-1.72-0.128-2.683-0.485v-1.554c0.952,0.486,1.801,0.594,2.567,0.583
			c0.79,0,1.544-0.206,1.544-0.982c0-0.701-0.601-0.885-1.304-0.885h-1.637l0.01-1.424h1.522c0.685,0,1.129-0.259,1.129-0.788
			c0-0.605-0.52-0.864-1.439-0.864c-0.652-0.011-1.39,0.14-2.269,0.583v-1.543c0.839-0.368,1.647-0.498,2.402-0.498
			c1.698,0,2.859,0.67,2.859,2.061c0,0.833-0.457,1.404-1.161,1.652c0.757,0.217,1.452,0.81,1.452,1.943
			C334.948,150.497,333.395,151.014,331.954,151.014z"/>
		<path d="M336.004,150.863l2.023-2.774c-0.933-0.323-1.619-1.025-1.619-2.255c0-1.813,1.377-2.525,2.91-2.525h2.952v7.555h-1.553
			v-2.568h-1.088l-1.833,2.568H336.004z M339.33,146.945h1.388v-2.211h-1.388c-0.786,0-1.328,0.345-1.328,1.1
			S338.544,146.945,339.33,146.945z"/>
		<path d="M349.149,150.863v-3.896c0-0.346,0.011-0.723,0.031-1.036l-3.377,4.932h-1.46v-7.555h1.553v3.897
			c0,0.344-0.01,0.723-0.03,1.035l3.376-4.932h1.461v7.555H349.149z M349.149,142.294v-1.176c-0.549,0.357-1.067,0.463-1.625,0.463
			c-0.56,0-1.068-0.106-1.616-0.463v1.176c0.455,0.334,0.941,0.486,1.616,0.486C348.196,142.78,348.693,142.629,349.149,142.294z"/>
		<path d="M356.267,143.157c0.726,0,1.45,0.162,2.071,0.487v1.543c-0.467-0.378-1.14-0.594-1.813-0.594
			c-1.273,0-2.558,0.755-2.558,2.579c-0.012,1.663,1.295,2.396,2.558,2.396c0.745,0,1.431-0.216,1.865-0.627v1.587
			c-0.623,0.313-1.336,0.485-2.103,0.485c-1.938,0-3.916-1.208-3.916-3.841C352.382,144.409,354.33,143.157,356.267,143.157z"/>
		<path d="M365.423,143.309v1.457h-2.228v6.098h-1.542v-6.098h-2.228v-1.457H365.423z"/>
		<path d="M370.021,143.309c1.544,0,2.507,0.616,2.507,1.909c0,0.887-0.454,1.425-1.097,1.652c0.714,0.217,1.389,0.767,1.389,1.879
			c0,1.716-1.587,2.115-2.851,2.115h-3.117v-7.555H370.021z M370.031,147.604h-1.636v1.941h1.554c0.694,0,1.315-0.15,1.315-0.97
			C371.265,147.777,370.653,147.604,370.031,147.604z M369.886,144.637h-1.48v1.727h1.563c0.592,0,1.016-0.28,1.016-0.863
			C370.984,144.906,370.571,144.637,369.886,144.637z"/>
		<path d="M379.593,143.309v1.425h-3.552v1.607h3.241v1.414h-3.241v1.684h3.614v1.425h-5.169v-7.555H379.593z"/>
		<path d="M387.756,143.309v7.555h-1.554v-3.043h-3.253v3.043h-1.554v-7.555h1.554v3.044h3.253v-3.044H387.756z"/>
		<path d="M396.188,143.309v7.555h-1.555v-3.043h-3.253v3.043h-1.552v-7.555h1.552v3.044h3.253v-3.044H396.188z"/>
		<path d="M397.515,150.863l2.962-7.555h1.678l2.952,7.555H403.5l-0.526-1.414h-3.315l-0.538,1.414H397.515z M400.145,148.111h2.341
			l-1.015-2.708c-0.051-0.15-0.104-0.302-0.155-0.594c-0.051,0.292-0.103,0.443-0.165,0.594L400.145,148.111z"/>
		<path d="M405.812,150.863l2.02-2.774c-0.933-0.323-1.616-1.025-1.616-2.255c0-1.813,1.378-2.525,2.911-2.525h2.952v7.555h-1.555
			v-2.568h-1.087l-1.833,2.568H405.812z M409.136,146.945h1.388v-2.211h-1.388c-0.786,0-1.326,0.345-1.326,1.1
			S408.35,146.945,409.136,146.945z"/>
		<path d="M416.219,150.863l2.966-7.555h1.678l2.951,7.555h-1.605l-0.528-1.414h-3.313l-0.539,1.414H416.219z M418.852,148.111
			h2.343l-1.017-2.708c-0.051-0.15-0.103-0.302-0.155-0.594c-0.052,0.292-0.104,0.443-0.165,0.594L418.852,148.111z"/>
		<path d="M425.142,150.863v-7.555h1.552v3h1.173l1.83-3h1.731l-2.351,3.681l2.485,3.874h-1.72l-1.977-3.086h-1.173v3.086H425.142z"
			/>
		<path d="M432.069,150.863l2.965-7.555h1.679l2.948,7.555h-1.604l-0.528-1.414h-3.314l-0.538,1.414H432.069z M434.701,148.111
			h2.342l-1.016-2.708c-0.053-0.15-0.104-0.302-0.156-0.594c-0.051,0.292-0.104,0.443-0.165,0.594L434.701,148.111z"/>
		<path d="M440.429,152.503v-3.065h0.851c0.933-1.738,1.148-4.024,1.148-6.13h4.933v6.13h0.921v3.065h-1.367v-1.64h-5.116v1.64
			H440.429z M442.925,149.438h2.882v-4.673h-1.926C443.775,146.438,443.548,148.197,442.925,149.438z"/>
		<path d="M454.994,143.309v1.425h-3.553v1.607h3.239v1.414h-3.239v1.684h3.614v1.425h-5.169v-7.555H454.994z"/>
		<path d="M464.638,143.309v7.555h-1.555v-4.652l-1.915,3.033h-0.901l-1.916-3.044v4.663h-1.553v-7.555h1.439l2.485,3.929
			l2.475-3.929H464.638z"/>
		<path d="M471.516,150.863v-3.896c0-0.346,0.012-0.723,0.031-1.036l-3.379,4.932h-1.457v-7.555h1.553v3.897
			c0,0.344-0.012,0.723-0.032,1.035l3.377-4.932h1.461v7.555H471.516z"/>
		<path d="M474.519,150.863l2.021-2.774c-0.933-0.323-1.615-1.025-1.615-2.255c0-1.813,1.379-2.525,2.909-2.525h2.953v7.555h-1.553
			v-2.568h-1.088l-1.835,2.568H474.519z M477.846,146.945h1.388v-2.211h-1.388c-0.789,0-1.327,0.345-1.327,1.1
			S477.057,146.945,477.846,146.945z"/>
		<path d="M259.07,163.812v-5.181h1.441v2.914l2.216-2.914h1.243v5.181h-1.43v-2.913l-2.217,2.913H259.07z"/>
		<path d="M265.711,163.812v-5.181h1.377l1.543,2.569l1.556-2.569h1.365v5.181h-1.387v-3.054l-1.169,1.932h-0.716l-1.171-1.932
			v3.054H265.711z"/>
		<path d="M275.571,158.481c2.062,0,2.725,1.694,2.393,3.226h-3.501c0.166,0.754,0.934,1.069,1.752,1.069
			c0.568,0,1.077-0.12,1.502-0.314v1.178c-0.466,0.205-1.078,0.323-1.822,0.323c-1.576,0-2.883-0.938-2.883-2.741
			C273.012,159.268,274.453,158.481,275.571,158.481z M275.625,159.624c-0.613,0-1.151,0.4-1.172,1.113h2.219
			C276.721,160.38,276.525,159.624,275.625,159.624z"/>
		<path d="M279.456,163.812v-5.181h1.44v1.965h2.01v-1.965h1.44v5.181h-1.44v-1.964h-2.01v1.964H279.456z"/>
		<path d="M286.087,163.812v-5.181h1.438v2.914l2.217-2.914h1.245v5.181h-1.43v-2.913l-2.218,2.913H286.087z"/>
		<path d="M298.88,156.256c1.543,0,2.505,0.615,2.505,1.911c0,0.885-0.455,1.425-1.098,1.649c0.715,0.216,1.387,0.768,1.387,1.879
			c0,1.716-1.583,2.116-2.846,2.116h-3.12v-7.555H298.88z M298.891,160.553h-1.638v1.942h1.553c0.695,0,1.316-0.152,1.316-0.972
			C300.122,160.724,299.509,160.553,298.891,160.553z M298.745,157.584h-1.482v1.727h1.565c0.589,0,1.014-0.28,1.014-0.863
			C299.842,157.854,299.428,157.584,298.745,157.584z"/>
		<path d="M303.861,163.951c-0.466,0-0.881-0.28-0.881-0.885s0.415-0.884,0.881-0.884c0.467,0,0.871,0.279,0.871,0.884
			S304.328,163.951,303.861,163.951z"/>
		<path d="M309.175,156.256c1.752,0,3.13,0.583,3.13,2.536c0,1.954-1.378,2.537-3.13,2.537h-1.181v2.482h-1.555v-7.555H309.175z
			 M309.248,157.682h-1.254v2.223h1.254c0.796,0,1.471-0.226,1.471-1.112C310.719,157.897,310.044,157.682,309.248,157.682z"/>
		<path d="M314.386,163.951c-0.467,0-0.88-0.28-0.88-0.885s0.413-0.884,0.88-0.884s0.871,0.279,0.871,0.884
			S314.853,163.951,314.386,163.951z"/>
		<path d="M322.828,164.233v-0.951c-2.176-0.097-3.595-1.262-3.595-3.249c0-1.985,1.419-3.151,3.595-3.247v-0.951h1.49v0.951
			c2.155,0.106,3.564,1.272,3.564,3.247c0,1.975-1.409,3.14-3.564,3.249v0.951H322.828z M322.828,161.934v-3.799
			c-1.502,0.109-2.041,0.939-2.041,1.899C320.787,160.995,321.326,161.826,322.828,161.934z M324.318,161.934
			c1.472-0.118,2.01-0.95,2.01-1.9c0-0.949-0.538-1.78-2.01-1.899V161.934z"/>
		<path d="M329.239,163.812v-5.181h1.44v2.914l2.217-2.914h1.242v5.181h-1.429v-2.913l-2.218,2.913H329.239z"/>
		<path d="M336.192,163.918c-0.229,0-0.499-0.042-0.789-0.15v-1.187c0.104,0.043,0.207,0.064,0.301,0.064
			c0.788,0,0.963-1.693,1.056-4.015h4.039v5.181h-1.438v-3.995h-1.274C337.942,162.149,337.559,163.918,336.192,163.918z"/>
		<path d="M342.54,163.812v-5.181h1.438v2.914l2.219-2.914h1.244v5.181h-1.431v-2.913l-2.217,2.913H342.54z"/>
		<path d="M349.179,163.812v-5.181h4.891v5.181h-1.44v-3.918h-2.009v3.918H349.179z"/>
		<path d="M355.812,163.812v-5.181h4.887v5.181h-1.439v-3.918h-2.009v3.918H355.812z"/>
		<path d="M364.903,158.481c1.451,0,2.744,0.927,2.744,2.741c0,1.813-1.293,2.741-2.744,2.741c-1.438,0-2.745-0.928-2.745-2.741
			C362.158,159.408,363.465,158.481,364.903,158.481z M364.903,159.817c-0.816,0-1.274,0.605-1.274,1.405
			c0,0.799,0.458,1.402,1.274,1.402c0.83,0,1.286-0.604,1.286-1.402C366.189,160.422,365.733,159.817,364.903,159.817z"/>
		<path d="M369.11,163.812v-5.181h2.963c1.18,0,1.636,0.669,1.636,1.371c0,0.595-0.281,0.994-0.767,1.188
			c0.539,0.184,0.881,0.594,0.881,1.22c0,0.734-0.414,1.403-1.668,1.403H369.11z M370.541,160.757h1.096
			c0.342,0,0.623-0.14,0.623-0.541c0-0.431-0.301-0.561-0.633-0.561h-1.086V160.757z M370.551,162.787h1.18
			c0.362,0,0.663-0.142,0.663-0.552c0-0.442-0.313-0.572-0.663-0.572h-1.18V162.787z"/>
		<path d="M380.109,162.818c0.084,0,0.177-0.01,0.271-0.042v0.98c-0.229,0.087-0.519,0.153-0.799,0.153
			c-0.507,0-0.89-0.194-1.097-0.583c-0.487,0.399-1.06,0.636-1.795,0.636c-0.93,0-1.736-0.562-1.736-1.586
			c0-1.316,1.189-1.727,2.183-1.727c0.394,0,0.829,0.054,1.183,0.14v-0.184c0-0.517-0.395-0.874-1.172-0.874
			c-0.684,0-1.294,0.194-1.761,0.389v-1.295c0.404-0.141,1.161-0.345,1.927-0.345c1.492,0,2.444,0.636,2.444,2.341v1.652
			C379.758,162.744,379.924,162.818,380.109,162.818z M376.423,162.256c0,0.389,0.344,0.638,0.776,0.638
			c0.404,0,0.788-0.119,1.12-0.421v-0.81c-0.219-0.054-0.55-0.119-0.851-0.119C376.94,161.544,376.423,161.728,376.423,162.256z"/>
	</g>
</g>
</svg>
