<?xml version="1.0" encoding="iso-8859-1"?>
<!-- Generator: Adobe Illustrator 15.1.0, SVG Export Plug-In . SVG Version: 6.00 Build 0)  -->
<!DOCTYPE svg PUBLIC "-//W3C//DTD SVG 1.1//EN" "http://www.w3.org/Graphics/SVG/1.1/DTD/svg11.dtd">
<svg version="1.1" id="Layer_1" xmlns="http://www.w3.org/2000/svg" xmlns:xlink="http://www.w3.org/1999/xlink" x="0px" y="0px"
	 width="283.465px" height="283.465px" viewBox="0 0 283.465 283.465" style="enable-background:new 0 0 283.465 283.465;"
	 xml:space="preserve">
<g>
	<polygon style="fill:#C9243F;" points="119.392,220.376 118.439,221.081 117.563,219.697 119.795,218.128 121.272,218.128 
		121.272,225.026 119.392,225.026 	"/>
	<path style="fill:#C9243F;" d="M134.704,221.251c0.25,0,0.573-0.16,0.801-0.432v-0.081c0-0.682-0.375-1.095-0.813-1.095
		c-0.489,0-0.78,0.364-0.78,0.822C133.912,220.93,134.212,221.251,134.704,221.251 M137.256,220.908
		c0,1.999-1.325,3.915-3.794,4.388l-0.496-1.418c1.196-0.326,1.872-0.79,2.219-1.464l-0.006-0.012
		c-0.314,0.154-0.664,0.227-0.984,0.227c-1.035,0-2.039-0.765-2.039-2.232c0-1.433,1.114-2.368,2.52-2.368
		C136.271,218.028,137.256,219.196,137.256,220.908"/>
	<path style="fill:#C9243F;" d="M147.61,223.479l1.619-0.625c0.121,0.443,0.371,0.662,0.813,0.662c0.313,0,0.622-0.201,0.622-0.643
		c0-0.369-0.258-0.652-0.762-0.652h-0.41v-1.411h0.529c0.361,0,0.596-0.224,0.596-0.563c0-0.361-0.238-0.584-0.596-0.584
		c-0.33,0-0.52,0.161-0.65,0.509l-1.496-0.787c0.279-0.784,1.167-1.356,2.193-1.356c1.293,0,2.313,0.685,2.313,1.873
		c0,0.667-0.308,1.198-0.835,1.549v0.031c0.654,0.301,1.055,0.846,1.055,1.646c0,1.23-1.026,1.996-2.418,1.996
		C148.901,225.125,147.942,224.411,147.61,223.479"/>
	<polygon style="fill:#C9243F;" points="164.7,220.376 163.76,221.081 162.872,219.697 165.112,218.128 166.589,218.128 
		166.589,225.026 164.7,225.026 	"/>
	<path style="fill:#C9243F;" d="M208.409,164.172h-18.748c3.35-8.561,9.205-14.176,18.748-15.5V164.172z M75.772,178.413
		c0,0,0.091-1.021,0-1.645V166.51c-0.006-0.981,0-2.393,0-2.393s17.03-3.08,17.256,7.137
		C93.054,182.166,75.772,178.413,75.772,178.413 M218.744,136.448c-21.933,0.361-37.376,10.023-41.113,33.108
		c-1.786-2.871-5.351-8.597-5.351-8.597l16.748-24.35h-12.056l-11.366,15.897c0,0-4.816-7.113-7.231-10.674
		c-0.022-1.014,0.019-4.231,0-4.818c-8.893-0.831-17.276,0.355-24.642,4.21v-4.615h-32.102l-0.024,25.398
		c-1.976-3.231-4.688-5.281-6.286-6.152c-2.577-1.413-7.337-3.194-13.119-3.2c-3.256-0.007-5.535,0.356-6.506,0.547v-6.085
		c4.775,0.065,13.456,0,15.975-0.016h1.188c3.226,0,5.154,2.254,5.154,2.254v-12.687v-0.025c-9.313-0.018-32.712-0.056-33.321-0.06
		v51.86h0.22c0,0,13.705,0.036,19.89,0.148c11.982,0.2,15.516-6.067,16.806-8.393l0.024,8.224h10.898c0,0,0.02-29.687,0.047-41.08
		h12.66c-18.651,21.812-9.828,58.883,25.178,61.067c10.164,0.026,18.682-2.523,25.34-9.343l-6.504-9.311
		c-6.376,9.139-29.11,12.227-39.041-3.775c-8.858-14.036-1.189-37.421,20.195-37.678c3.068,4.232,9.222,12.696,9.222,12.696
		l-20.004,27.441h13.108l3.68-5.264c0.198-0.356,0.43-0.712,0.717-1.071c2.775-3.946,5.558-7.9,8.334-11.846
		c2.045,2.554,12.887,18.181,12.887,18.181h13.549c0,0,0.643-0.025,0.893-0.06c-2.992-3.722-4.977-8.536-4.383-13.03
		c0.039-0.296,0.152-0.899,0.152-0.899h19.484v13.991h10.713h0.008C218.765,188.445,218.791,140.157,218.744,136.448"/>
	<path style="fill:#FEC340;" d="M175.429,73.107l0.021-0.024c-0.005,0-0.011,0.004-0.014,0.007c0.003-0.008,0.003-0.012,0.003-0.015
		l-0.016,0.018c-5.695,1.723-12.52,2.677-17.133,9.376c-2.475,3.604-4.035,11.993-3.998,11.986c-0.01,0.04,8.293-1.534,11.86-4.039
		C172.776,85.756,173.726,78.856,175.429,73.107"/>
	<path style="fill:#FEC340;" d="M157.903,115.085c-2.996-0.038-4.664-0.013-7.629-0.021c-6.904-0.012-15.719,0.775-23.717,7.99
		c-0.281,0.256-0.475,0.33-0.582,0.297c-0.071-0.02-0.234-0.193-0.264-0.255c-0.048-0.104,0.016-0.304,0.287-0.607
		c7.143-8.083,7.923-16.987,7.904-23.965c-0.004-3.002,0.019-4.687-0.02-7.717c-7.527,5.177-12.511,11.717-13.947,17.117
		c-1.785,6.729,1.114,15.277-0.203,21.461h0.006c6.111-1.328,14.574,1.597,21.234-0.205
		C146.316,127.731,152.782,122.692,157.903,115.085"/>
	<path style="fill:#FEC340;" d="M175.162,97.633c-2.993-0.036-4.663-0.011-7.63-0.018c-6.905-0.019-15.714,0.776-23.717,7.99
		c-0.284,0.255-0.476,0.332-0.582,0.297c-0.07-0.02-0.242-0.195-0.262-0.25c-0.049-0.107,0.016-0.31,0.283-0.611
		c7.143-8.087,7.924-16.99,7.911-23.967c-0.01-3,0.013-4.682-0.021-7.71c-7.528,5.172-12.519,11.709-13.952,17.111
		c-1.785,6.729,1.114,15.282-0.203,21.458c6.117-1.324,14.58,1.604,21.241-0.203C163.577,110.282,170.042,105.241,175.162,97.633"/>
	<path style="fill:#C9243F;" d="M119.067,91.317c0.609-7.426,2.406-13.276,5.606-17.73c4.024-5.589,8.88-10.041,13.062-15.417
		c0.56,5.104,1.5,9.551,0.999,14.725c-1.378,14.371-14.034,19.025-19.786,27.84C118.706,98.449,119.013,91.938,119.067,91.317"/>
	<path style="fill:#FEC340;" d="M187.413,124.975c-0.443-1.874-1-3.721-1.654-5.5l-0.279-0.735l-6.139,2.272l0.268,0.736
		c0.318,0.853,0.576,1.633,0.798,2.381l0.223,0.755l2-0.605c0.087,0.311,0.17,0.636,0.267,0.979l-3.381,0.796
		c-0.393-1.51-0.878-3.019-1.455-4.501l-0.289-0.733l-0.005,0.003l-0.264-0.607c-0.616-1.426-1.343-2.848-2.147-4.222l2.954-1.82
		c0.164,0.283,0.334,0.576,0.505,0.882l-1.834,0.98l0.358,0.692c0.419,0.765,0.792,1.526,1.122,2.247l0.328,0.715l5.957-2.729
		l-0.326-0.712c-2.092-4.557-4.871-8.718-8.262-12.373l-0.535-0.57l-1.252,1.162l-3.435,3.424l0.419,0.444
		c0.51,0.551,1.038,1.149,1.65,1.895l0.498,0.6l1.61-1.313c0.22,0.283,0.424,0.546,0.616,0.804l-2.814,2.031
		c-0.902-1.206-1.896-2.37-2.953-3.479l-1.107,1.108c1.186,1.244,2.275,2.559,3.255,3.919l0.46,0.638l5.352-3.868l-0.452-0.63
		c-0.45-0.635-0.972-1.311-1.628-2.127l-0.498-0.61l-1.63,1.33c-0.237-0.279-0.458-0.538-0.686-0.789l2.507-2.317
		c2.863,3.19,5.262,6.771,7.119,10.661l-3.098,1.428c-0.15-0.308-0.303-0.622-0.467-0.933l1.85-0.995L180.57,115
		c-0.45-0.839-0.883-1.603-1.339-2.322l-0.41-0.668l-5.621,3.467l0.409,0.671c0.938,1.517,1.763,3.096,2.452,4.69l0.316,0.718
		l0.225,0.566c0.646,1.661,1.168,3.358,1.567,5.05l0.179,0.771l6.441-1.512l-0.188-0.766c-0.242-1.014-0.464-1.839-0.692-2.593
		l-0.227-0.742l-2.008,0.602c-0.105-0.32-0.209-0.651-0.332-0.988l3.207-1.188c0.521,1.495,0.973,3.027,1.336,4.573l0.176,0.768
		l1.535-0.361L187.413,124.975z"/>
	<path style="fill:#FEC340;" d="M114.308,106.154c0.541-0.515,1.148-1.037,1.893-1.647l0.598-0.497l-1.318-1.611
		c0.286-0.223,0.55-0.425,0.809-0.617v-1.939l-0.283,0.201c-0.641,0.454-1.318,0.978-2.127,1.629l-0.611,0.493l1.328,1.631
		c-0.277,0.239-0.529,0.461-0.781,0.686l-2.322-2.508c1.511-1.358,3.111-2.606,4.797-3.746v-1.873
		c-2.289,1.474-4.442,3.142-6.445,4.999l-0.571,0.531l4.454,4.813L114.308,106.154z"/>
	<path style="fill:#FEC340;" d="M114.229,108.129v-0.008l-0.047,0.051l-0.039,0.033l-0.465,0.486
		c-1.099,1.143-2.133,2.352-3.075,3.604l-2.813-2.039c0.19-0.252,0.397-0.518,0.618-0.804l1.609,1.321l0.498-0.604
		c0.619-0.743,1.145-1.347,1.654-1.891l0.543-0.573l-4.8-4.466l-0.534,0.575c-3.402,3.647-6.191,7.803-8.287,12.356l-0.325,0.713
		l5.953,2.736l0.326-0.713c0.327-0.727,0.706-1.479,1.119-2.248l0.374-0.688l-1.836-0.991c0.166-0.302,0.342-0.594,0.506-0.872
		l2.951,1.827c-0.814,1.37-1.542,2.788-2.158,4.211l-0.271,0.608l-0.006-0.002l-0.279,0.73c-0.58,1.477-1.077,2.993-1.463,4.505
		l-3.378-0.804c0.093-0.348,0.177-0.673,0.261-0.978l2,0.605l0.228-0.759c0.226-0.751,0.489-1.531,0.8-2.379l0.271-0.731
		l-6.14-2.284l-0.278,0.732c-0.673,1.808-1.246,3.696-1.688,5.603l-0.185,0.765l1.532,0.356l0.177-0.761
		c0.37-1.588,0.833-3.161,1.37-4.677l3.204,1.191c-0.12,0.337-0.228,0.664-0.339,0.987l-2-0.606L99.594,123
		c-0.239,0.751-0.462,1.576-0.701,2.587l-0.188,0.764l6.436,1.518l0.179-0.759c0.401-1.694,0.936-3.39,1.583-5.052l0.219-0.563
		h0.002l0.313-0.719c0.698-1.596,1.527-3.171,2.469-4.688l0.41-0.667l-5.611-3.477l-0.42,0.666
		c-0.447,0.722-0.891,1.478-1.342,2.315l-0.375,0.69l1.852,0.997c-0.158,0.313-0.312,0.628-0.464,0.932l-3.097-1.429
		c1.869-3.885,4.266-7.466,7.139-10.652l2.5,2.325c-0.219,0.245-0.446,0.504-0.684,0.786l-1.627-1.333l-0.498,0.605
		c-0.655,0.811-1.174,1.484-1.629,2.126l-0.459,0.635l5.348,3.874l0.46-0.637c1.025-1.419,2.171-2.786,3.402-4.066l0.489-0.501
		l0.493-0.484c0.166-0.151,0.333-0.302,0.495-0.452v-2.103c-0.536,0.46-1.063,0.937-1.576,1.425L114.229,108.129z"/>
</g>
</svg>
