<?xml version="1.0" encoding="utf-8"?>
<!-- Generator: Adobe Illustrator 28.0.0, SVG Export Plug-In . SVG Version: 6.00 Build 0)  -->
<svg version="1.1" id="Layer_1" xmlns="http://www.w3.org/2000/svg" xmlns:xlink="http://www.w3.org/1999/xlink" x="0px" y="0px"
	 viewBox="0 0 443.3 80.7" style="enable-background:new 0 0 443.3 80.7;" xml:space="preserve">
<style type="text/css">
	.st0{fill-rule:evenodd;clip-rule:evenodd;fill:#C9243F;}
	.st1{fill-rule:evenodd;clip-rule:evenodd;fill:#FEC340;}
</style>
<path class="st0" d="M128.5,20.7c-18.3,0.3-31.2,8.4-34.3,27.6c-1.5-2.4-4.5-7.2-4.5-7.2l14-20.3c0,0-7,0-10.1,0l-9.5,13.3
	c0,0-4-5.9-6-8.9c0-0.8,0-3.5,0-4c-7.4-0.7-14.4,0.3-20.6,3.5c0-1.2,0-2.6,0-3.8H30.8l0,21.2c-1.6-2.7-3.9-4.4-5.2-5.1
	c-2.2-1.2-6.1-2.7-10.9-2.7c-2.7,0-4.6,0.3-5.4,0.5c0-1.6,0-3.5,0-5.1c4,0.1,11.2,0,13.3,0h1c2.7,0,4.3,1.9,4.3,1.9V20.9v0
	c-7.8,0-17.3,0-25.1,0c0,0,0,0,0,0H1.5c-0.5,0-1,0-1.5,0v43.3h0.2c0,0,11.4,0,16.6,0.1c10,0.2,12.9-5.1,14-7l0,6.9h9.1
	c0,0,0-24.8,0-34.3c2.9,0,7.6,0,10.6,0c-15.6,18.2-8.2,49.1,21,50.9c8.5,0,15.6-2.1,21.1-7.8l-5.4-7.8c-5.3,7.6-24.3,10.2-32.6-3.2
	c-7.4-11.7-1-31.2,16.8-31.4c2.6,3.5,7.7,10.6,7.7,10.6L62.5,64.1c0,0,7.7,0,10.9,0l3.1-4.4c0.2-0.3,0.4-0.6,0.6-0.9
	c2.3-3.3,4.6-6.6,7-9.9c1.7,2.1,3.3,4.4,4.9,6.8l0,0l5.8,8.3h11.3c0,0,0.5,0,0.8-0.1c-2.5-3.1-4.2-7.1-3.7-10.9
	c0-0.3,0.1-0.8,0.1-0.8h16.3v11.7h8.9h0C128.5,64.1,128.5,23.8,128.5,20.7z M9.2,55.7c0,0,0.1-0.9,0-1.4c0-2.8,0-5.7,0-8.6
	c0-0.8,0-2,0-2s14.2-2.6,14.4,6C23.7,58.8,9.2,55.7,9.2,55.7z M119.9,43.8c-5.2,0-10.4,0-15.6,0c2.8-7.1,7.7-11.8,15.6-12.9
	C119.9,35.2,119.9,39.5,119.9,43.8z"/>
<g>
	<g>
		<g>
			<path class="st1" d="M203.3,13.4L203.3,13.4C203.4,13.4,203.3,13.4,203.3,13.4C203.3,13.4,203.3,13.4,203.3,13.4L203.3,13.4
				c-5.1,1.5-11.3,2.4-15.4,8.4c-2.2,3.2-3.6,10.8-3.6,10.8c0,0,7.5-1.4,10.7-3.6C201,24.8,201.8,18.6,203.3,13.4z"/>
		</g>
		<g>
			<path class="st1" d="M187.6,51.2c-2.7,0-4.2,0-6.9,0c-6.2,0-14.1,0.7-21.3,7.2c-0.3,0.2-0.4,0.3-0.5,0.3c-0.1,0-0.2-0.2-0.2-0.2
				c0-0.1,0-0.3,0.3-0.5c6.4-7.3,7.1-15.3,7.1-21.6c0-2.7,0-4.2,0-6.9c-6.8,4.7-11.3,10.5-12.5,15.4c-1.6,6.1,1,13.7-0.2,19.3l0,0
				c0,0,0,0,0,0c0,0,0,0,0,0v0c5.5-1.2,13.1,1.4,19.1-0.2C177.2,62.6,183,58,187.6,51.2z"/>
		</g>
		<g>
			<path class="st1" d="M203.1,35.5c-2.7,0-4.2,0-6.9,0c-6.2,0-14.1,0.7-21.3,7.2c-0.3,0.2-0.4,0.3-0.5,0.3c-0.1,0-0.2-0.2-0.2-0.2
				c0-0.1,0-0.3,0.3-0.5c6.4-7.3,7.1-15.3,7.1-21.6c0-2.7,0-4.2,0-6.9c-6.8,4.7-11.3,10.5-12.5,15.4c-1.6,6.1,1,13.7-0.2,19.3l0,0
				l0,0v0v0c5.5-1.2,13.1,1.4,19.1-0.2C192.7,46.9,198.5,42.3,203.1,35.5z"/>
		</g>
	</g>
	<g>
		<path class="st0" d="M152.7,29.8c0.6-6.7,2.2-11.9,5-15.9c3.6-5,8-9,11.7-13.9c0.5,4.6,1.3,8.6,0.9,13.2
			c-1.2,12.9-12.6,17.1-17.8,25C152.3,36.2,152.6,30.4,152.7,29.8z"/>
	</g>
</g>
<g>
	<g>
		<path d="M224.9,27.8c1.4,0,2.8,0.5,2.8,2.4c0,1.9-1.3,2.4-2.8,2.4h-3.1V25h5.3v1.5h-3.8v1.3L224.9,27.8L224.9,27.8z M224.9,31.1
			c0.6,0,1.2-0.1,1.2-0.9s-0.6-0.9-1.2-0.9h-1.6v1.9H224.9z"/>
		<path d="M230.4,32.7c-0.4,0-0.7-0.1-1.1-0.2v-1.4c0.2,0.1,0.6,0.1,0.8,0.1c0.5,0,0.9-0.1,1.1-0.7l0.1-0.3l-2.9-5.3h1.7l1.9,3.9
			l1.6-3.9h1.7l-2.6,5.8C232.2,32.3,231.4,32.7,230.4,32.7z"/>
		<path d="M239.4,25c1.8,0,3.1,0.6,3.1,2.5s-1.4,2.5-3.1,2.5h-1.2v2.5h-1.6V25L239.4,25L239.4,25z M239.5,26.4h-1.3v2.2h1.3
			c0.8,0,1.5-0.2,1.5-1.1C241,26.6,240.3,26.4,239.5,26.4z"/>
		<path d="M243.5,32.5l2-2.8c-0.9-0.3-1.6-1-1.6-2.3c0-1.8,1.4-2.5,2.9-2.5h3v7.6h-1.6v-2.6h-1.1l-1.8,2.6L243.5,32.5L243.5,32.5z
			 M246.8,28.6h1.4v-2.2h-1.4c-0.8,0-1.3,0.3-1.3,1.1C245.5,28.2,246.1,28.6,246.8,28.6z"/>
		<path d="M257.2,25v1.5H255v6.1h-1.5v-6.1h-2.2V25H257.2z"/>
		<path d="M262.1,24.8c0.7,0,1.5,0.2,2.1,0.5v1.5c-0.5-0.4-1.1-0.6-1.8-0.6c-1.3,0-2.6,0.8-2.6,2.6c0,1.7,1.3,2.4,2.6,2.4
			c0.7,0,1.4-0.2,1.9-0.6v1.6c-0.6,0.3-1.3,0.5-2.1,0.5c-1.9,0-3.9-1.2-3.9-3.8C258.2,26.1,260.2,24.8,262.1,24.8z"/>
		<path d="M265.9,32.5V25h1.6v3h1.2l1.8-3h1.7l-2.4,3.7l2.5,3.9h-1.7l-2-3.1h-1.2v3.1H265.9z"/>
		<path d="M272.9,32.5l3-7.6h1.7l3,7.6h-1.6l-0.5-1.4H275l-0.5,1.4H272.9z M275.5,29.8h2.3l-1-2.7c-0.1-0.2-0.1-0.3-0.2-0.6
			c-0.1,0.3-0.1,0.4-0.2,0.6L275.5,29.8z"/>
		<path d="M281.2,32.5l2-2.8c-0.9-0.3-1.6-1-1.6-2.3c0-1.8,1.4-2.5,2.9-2.5h3v7.6h-1.6v-2.6h-1.1l-1.8,2.6L281.2,32.5L281.2,32.5z
			 M284.5,28.6h1.4v-2.2h-1.4c-0.8,0-1.3,0.3-1.3,1.1C283.2,28.2,283.7,28.6,284.5,28.6z"/>
		<path d="M292.3,32.5V25h5.1v1.5h-3.5v6.1L292.3,32.5L292.3,32.5z"/>
		<path d="M302.2,24.8c2.6,0,3.9,1.9,3.9,3.9c0,2.1-1.3,3.9-3.9,3.9s-3.9-1.9-3.9-3.9C298.4,26.7,299.7,24.8,302.2,24.8z
			 M302.2,26.3c-1.5,0-2.3,1.1-2.3,2.4s0.8,2.4,2.3,2.4c1.5,0,2.3-1.1,2.3-2.4S303.8,26.3,302.2,26.3z"/>
		<path d="M311.3,24.8c0.7,0,1.4,0.2,2.1,0.5v1.5c-0.5-0.4-1.1-0.6-1.8-0.6c-1.3,0-2.6,0.8-2.6,2.6c0,1.7,1.3,2.4,2.6,2.4
			c0.7,0,1.4-0.2,1.9-0.6v1.6c-0.6,0.3-1.3,0.5-2.1,0.5c-1.9,0-3.9-1.2-3.9-3.8C307.4,26.1,309.3,24.8,311.3,24.8z"/>
		<path d="M316.2,32.7c-0.4,0-0.7-0.1-1.1-0.2v-1.4c0.2,0.1,0.5,0.1,0.8,0.1c0.5,0,0.9-0.1,1.1-0.7l0.1-0.3l-2.9-5.3h1.7l1.9,3.9
			l1.6-3.9h1.7l-2.6,5.8C317.9,32.3,317.1,32.7,316.2,32.7z"/>
		<path d="M321.9,34.2v-3.1h0.9c0.9-1.7,1.1-4,1.1-6.1h4.9v6.1h0.9v3.1h-1.4v-1.6h-5.1v1.6H321.9z M324.4,31.1h2.9v-4.7h-1.9
			C325.3,28.1,325,29.9,324.4,31.1z"/>
		<path d="M330.6,32.5l3-7.6h1.7l3,7.6h-1.6l-0.5-1.4h-3.3l-0.5,1.4H330.6z M333.3,29.8h2.3l-1-2.7c-0.1-0.2-0.1-0.3-0.2-0.6
			c-0.1,0.3-0.1,0.4-0.2,0.6L333.3,29.8z"/>
		<path d="M342.3,25c1.8,0,3.1,0.6,3.1,2.5S344,30,342.3,30h-1.2v2.5h-1.6V25L342.3,25L342.3,25z M342.4,26.4h-1.3v2.2h1.3
			c0.8,0,1.5-0.2,1.5-1.1C343.8,26.6,343.2,26.4,342.4,26.4z"/>
		<path d="M350.5,24.8c0.7,0,1.5,0.2,2.1,0.5v1.5c-0.5-0.4-1.1-0.6-1.8-0.6c-1.3,0-2.6,0.8-2.6,2.6c0,1.7,1.3,2.4,2.6,2.4
			c0.7,0,1.4-0.2,1.9-0.6v1.6c-0.6,0.3-1.3,0.5-2.1,0.5c-1.9,0-3.9-1.2-3.9-3.8C346.6,26.1,348.5,24.8,350.5,24.8z"/>
		<path d="M359.6,25v1.5h-2.2v6.1h-1.5v-6.1h-2.2V25H359.6z"/>
		<path d="M364.2,25c1.5,0,2.5,0.6,2.5,1.9c0,0.9-0.5,1.4-1.1,1.6c0.7,0.2,1.4,0.8,1.4,1.9c0,1.7-1.6,2.1-2.9,2.1h-3.1V25H364.2z
			 M364.2,29.3h-1.6v1.9h1.6c0.7,0,1.3-0.2,1.3-1C365.5,29.4,364.9,29.3,364.2,29.3z M364.1,26.3h-1.5V28h1.6c0.6,0,1-0.3,1-0.9
			C365.2,26.6,364.8,26.3,364.1,26.3z"/>
		<path d="M373.8,25v1.4h-3.6V28h3.2v1.4h-3.2v1.7h3.6v1.4h-5.2V25L373.8,25L373.8,25z"/>
		<path d="M382,25v7.6h-1.6v-3h-3.3v3h-1.6V25h1.6v3h3.3v-3H382z"/>
		<path d="M390.4,25v7.6h-1.6v-3h-3.3v3H384V25h1.6v3h3.3v-3H390.4z"/>
		<path d="M391.7,32.5l3-7.6h1.7l3,7.6h-1.6l-0.5-1.4h-3.3l-0.5,1.4H391.7z M394.3,29.8h2.3l-1-2.7c-0.1-0.2-0.1-0.3-0.2-0.6
			c-0.1,0.3-0.1,0.4-0.2,0.6L394.3,29.8z"/>
		<path d="M400,32.5l2-2.8c-0.9-0.3-1.6-1-1.6-2.3c0-1.8,1.4-2.5,2.9-2.5h3v7.6h-1.6v-2.6h-1.1l-1.8,2.6L400,32.5L400,32.5z
			 M403.3,28.6h1.4v-2.2h-1.4c-0.8,0-1.3,0.3-1.3,1.1S402.6,28.6,403.3,28.6z"/>
		<path d="M225.3,37.8c0.7,0,1.5,0.2,2.1,0.5v1.5c-0.5-0.4-1.1-0.6-1.8-0.6c-1.3,0-2.6,0.8-2.6,2.6c0,1.7,1.3,2.4,2.6,2.4
			c0.7,0,1.4-0.2,1.9-0.6v1.6c-0.6,0.3-1.3,0.5-2.1,0.5c-1.9,0-3.9-1.2-3.9-3.8C221.4,39,223.3,37.8,225.3,37.8z"/>
		<path d="M234.2,37.9v1.4h-3.6v1.6h3.2v1.4h-3.2V44h3.6v1.4h-5.2v-7.6L234.2,37.9L234.2,37.9z"/>
		<path d="M242.2,37.9v7.6h-1.6v-6.1h-2c-0.2,3.2-0.6,6.2-2.6,6.2c-0.2,0-0.5,0-0.8-0.1V44c0.1,0,0.3,0.1,0.5,0.1
			c1.2-0.1,1.3-3.5,1.5-6.1L242.2,37.9L242.2,37.9z"/>
		<path d="M244.3,45.5v-7.6h1.6v2.5h1.2c1.8,0,3.1,0.6,3.1,2.5c0,2-1.4,2.5-3.1,2.5H244.3z M245.9,44h1.3c0.8,0,1.5-0.2,1.5-1.1
			c0-0.9-0.7-1.1-1.5-1.1h-1.3V44z"/>
		<path d="M255.2,37.8c0.7,0,1.4,0.2,2.1,0.5v1.5c-0.5-0.4-1.1-0.6-1.8-0.6c-1.3,0-2.6,0.8-2.6,2.6c0,1.7,1.3,2.4,2.6,2.4
			c0.7,0,1.4-0.2,1.9-0.6v1.6c-0.6,0.3-1.3,0.5-2.1,0.5c-1.9,0-3.9-1.2-3.9-3.8C251.3,39,253.3,37.8,255.2,37.8z"/>
		<path d="M259,45.5v-7.6h1.6v3h1.2l1.8-3h1.7l-2.4,3.7l2.5,3.9h-1.7l-2-3.1h-1.2v3.1H259z"/>
		<path d="M270.2,37.8c2.6,0,3.9,1.9,3.9,3.9c0,2-1.3,3.9-3.9,3.9c-2.6,0-3.9-1.9-3.9-3.9C266.3,39.6,267.6,37.8,270.2,37.8z
			 M270.2,39.3c-1.5,0-2.3,1.1-2.3,2.4s0.8,2.4,2.3,2.4c1.5,0,2.3-1.1,2.3-2.4S271.7,39.3,270.2,39.3z"/>
		<path d="M274.8,45.5l2.6-3.9l-2.4-3.6h1.8l1.6,2.5l1.6-2.5h1.8l-2.4,3.6l2.6,3.9h-1.8l-1.8-2.8l-1.8,2.8H274.8z"/>
		<path d="M286.7,37.8c2.6,0,3.9,1.9,3.9,3.9c0,2-1.3,3.9-3.9,3.9s-3.9-1.9-3.9-3.9C282.8,39.6,284.1,37.8,286.7,37.8z M286.7,39.3
			c-1.5,0-2.3,1.1-2.3,2.4s0.8,2.4,2.3,2.4c1.5,0,2.3-1.1,2.3-2.4S288.2,39.3,286.7,39.3z"/>
		<path d="M294.5,45.6c-0.9,0-1.7-0.1-2.7-0.5v-1.6c1,0.5,1.8,0.6,2.6,0.6c0.8,0,1.5-0.2,1.5-1c0-0.7-0.6-0.9-1.3-0.9H293l0-1.4h1.5
			c0.7,0,1.1-0.3,1.1-0.8c0-0.6-0.5-0.9-1.4-0.9c-0.7,0-1.4,0.1-2.3,0.6v-1.5c0.8-0.4,1.6-0.5,2.4-0.5c1.7,0,2.9,0.7,2.9,2.1
			c0,0.8-0.5,1.4-1.2,1.7c0.8,0.2,1.5,0.8,1.5,1.9C297.5,45.1,295.9,45.6,294.5,45.6z"/>
		<path d="M298.6,45.5l2-2.8c-0.9-0.3-1.6-1-1.6-2.3c0-1.8,1.4-2.5,2.9-2.5h3v7.6h-1.6v-2.6h-1.1l-1.8,2.6L298.6,45.5L298.6,45.5z
			 M301.9,41.5h1.4v-2.2h-1.4c-0.8,0-1.3,0.3-1.3,1.1S301.1,41.5,301.9,41.5z"/>
		<path d="M311.7,45.5v-3.9c0-0.3,0-0.7,0-1l-3.4,4.9h-1.5v-7.6h1.6v3.9c0,0.3,0,0.7,0,1l3.4-4.9h1.5v7.6L311.7,45.5L311.7,45.5z
			 M311.7,36.9v-1.2c-0.5,0.4-1.1,0.5-1.6,0.5c-0.6,0-1.1-0.1-1.6-0.5v1.2c0.5,0.3,0.9,0.5,1.6,0.5
			C310.7,37.4,311.2,37.2,311.7,36.9z"/>
		<path d="M318.8,37.8c0.7,0,1.5,0.2,2.1,0.5v1.5c-0.5-0.4-1.1-0.6-1.8-0.6c-1.3,0-2.6,0.8-2.6,2.6c0,1.7,1.3,2.4,2.6,2.4
			c0.7,0,1.4-0.2,1.9-0.6v1.6c-0.6,0.3-1.3,0.5-2.1,0.5c-1.9,0-3.9-1.2-3.9-3.8C314.9,39,316.9,37.8,318.8,37.8z"/>
		<path d="M328,37.9v1.5h-2.2v6.1h-1.5v-6.1H322v-1.5H328z"/>
		<path d="M332.6,37.9c1.5,0,2.5,0.6,2.5,1.9c0,0.9-0.5,1.4-1.1,1.7c0.7,0.2,1.4,0.8,1.4,1.9c0,1.7-1.6,2.1-2.9,2.1h-3.1v-7.6H332.6
			z M332.6,42.2h-1.6v1.9h1.6c0.7,0,1.3-0.1,1.3-1C333.8,42.4,333.2,42.2,332.6,42.2z M332.4,39.2H331V41h1.6c0.6,0,1-0.3,1-0.9
			C333.5,39.5,333.1,39.2,332.4,39.2z"/>
		<path d="M342.1,37.9v1.4h-3.6v1.6h3.2v1.4h-3.2V44h3.6v1.4H337v-7.6L342.1,37.9L342.1,37.9z"/>
		<path d="M350.3,37.9v7.6h-1.6v-3h-3.3v3h-1.6v-7.6h1.6v3h3.3v-3H350.3z"/>
		<path d="M358.7,37.9v7.6h-1.6v-3h-3.3v3h-1.6v-7.6h1.6v3h3.3v-3H358.7z"/>
		<path d="M360.1,45.5l3-7.6h1.7l3,7.6H366l-0.5-1.4h-3.3l-0.5,1.4H360.1z M362.7,42.7h2.3l-1-2.7c-0.1-0.1-0.1-0.3-0.2-0.6
			c-0.1,0.3-0.1,0.4-0.2,0.6L362.7,42.7z"/>
		<path d="M368.4,45.5l2-2.8c-0.9-0.3-1.6-1-1.6-2.3c0-1.8,1.4-2.5,2.9-2.5h3v7.6h-1.6v-2.6H372l-1.8,2.6L368.4,45.5L368.4,45.5z
			 M371.7,41.5h1.4v-2.2h-1.4c-0.8,0-1.3,0.3-1.3,1.1S370.9,41.5,371.7,41.5z"/>
		<path d="M378.8,45.5l3-7.6h1.7l3,7.6h-1.6l-0.5-1.4h-3.3l-0.5,1.4H378.8z M381.4,42.7h2.3l-1-2.7c-0.1-0.1-0.1-0.3-0.2-0.6
			c-0.1,0.3-0.1,0.4-0.2,0.6L381.4,42.7z"/>
		<path d="M387.7,45.5v-7.6h1.6v3h1.2l1.8-3h1.7l-2.4,3.7l2.5,3.9h-1.7l-2-3.1h-1.2v3.1H387.7z"/>
		<path d="M394.6,45.5l3-7.6h1.7l2.9,7.6h-1.6l-0.5-1.4h-3.3l-0.5,1.4H394.6z M397.2,42.7h2.3l-1-2.7c-0.1-0.1-0.1-0.3-0.2-0.6
			c-0.1,0.3-0.1,0.4-0.2,0.6L397.2,42.7z"/>
		<path d="M403,47.1V44h0.9c0.9-1.7,1.1-4,1.1-6.1h4.9V44h0.9v3.1h-1.4v-1.6h-5.1v1.6H403z M405.5,44h2.9v-4.7h-1.9
			C406.3,41,406.1,42.8,405.5,44z"/>
		<path d="M417.5,37.9v1.4H414v1.6h3.2v1.4H414V44h3.6v1.4h-5.2v-7.6L417.5,37.9L417.5,37.9z"/>
		<path d="M427.2,37.9v7.6h-1.6v-4.7l-1.9,3h-0.9l-1.9-3v4.7h-1.6v-7.6h1.4l2.5,3.9l2.5-3.9H427.2z"/>
		<path d="M434.1,45.5v-3.9c0-0.3,0-0.7,0-1l-3.4,4.9h-1.5v-7.6h1.6v3.9c0,0.3,0,0.7,0,1l3.4-4.9h1.5v7.6L434.1,45.5L434.1,45.5z"/>
		<path d="M437.1,45.5l2-2.8c-0.9-0.3-1.6-1-1.6-2.3c0-1.8,1.4-2.5,2.9-2.5h3v7.6h-1.6v-2.6h-1.1l-1.8,2.6L437.1,45.5L437.1,45.5z
			 M440.4,41.5h1.4v-2.2h-1.4c-0.8,0-1.3,0.3-1.3,1.1S439.6,41.5,440.4,41.5z"/>
		<path d="M221.6,58.4v-5.2h1.4v2.9l2.2-2.9h1.2v5.2h-1.4v-2.9l-2.2,2.9H221.6z"/>
		<path d="M228.3,58.4v-5.2h1.4l1.5,2.6l1.6-2.6h1.4v5.2h-1.4v-3.1l-1.2,1.9h-0.7l-1.2-1.9v3.1H228.3z"/>
		<path d="M238.1,53.1c2.1,0,2.7,1.7,2.4,3.2H237c0.2,0.8,0.9,1.1,1.8,1.1c0.6,0,1.1-0.1,1.5-0.3v1.2c-0.5,0.2-1.1,0.3-1.8,0.3
			c-1.6,0-2.9-0.9-2.9-2.7C235.6,53.9,237,53.1,238.1,53.1z M238.2,54.2c-0.6,0-1.2,0.4-1.2,1.1h2.2C239.3,55,239.1,54.2,238.2,54.2
			z"/>
		<path d="M242,58.4v-5.2h1.4v2h2v-2h1.4v5.2h-1.4v-2h-2v2H242z"/>
		<path d="M248.6,58.4v-5.2h1.4v2.9l2.2-2.9h1.2v5.2h-1.4v-2.9l-2.2,2.9H248.6z"/>
		<path d="M261.4,50.9c1.5,0,2.5,0.6,2.5,1.9c0,0.9-0.5,1.4-1.1,1.6c0.7,0.2,1.4,0.8,1.4,1.9c0,1.7-1.6,2.1-2.8,2.1h-3.1v-7.6H261.4
			z M261.4,55.2h-1.6v1.9h1.6c0.7,0,1.3-0.2,1.3-1C262.7,55.3,262.1,55.2,261.4,55.2z M261.3,52.2h-1.5v1.7h1.6c0.6,0,1-0.3,1-0.9
			C262.4,52.5,262,52.2,261.3,52.2z"/>
		<path d="M266.4,58.6c-0.5,0-0.9-0.3-0.9-0.9s0.4-0.9,0.9-0.9c0.5,0,0.9,0.3,0.9,0.9S266.9,58.6,266.4,58.6z"/>
		<path d="M271.7,50.9c1.8,0,3.1,0.6,3.1,2.5c0,2-1.4,2.5-3.1,2.5h-1.2v2.5H269v-7.6H271.7z M271.8,52.3h-1.3v2.2h1.3
			c0.8,0,1.5-0.2,1.5-1.1C273.3,52.5,272.6,52.3,271.8,52.3z"/>
		<path d="M276.9,58.6c-0.5,0-0.9-0.3-0.9-0.9s0.4-0.9,0.9-0.9s0.9,0.3,0.9,0.9S277.4,58.6,276.9,58.6z"/>
		<path d="M285.4,58.8v-1c-2.2-0.1-3.6-1.3-3.6-3.2c0-2,1.4-3.2,3.6-3.2v-1h1.5v1c2.2,0.1,3.6,1.3,3.6,3.2c0,2-1.4,3.1-3.6,3.2v1
			H285.4z M285.4,56.5v-3.8c-1.5,0.1-2,0.9-2,1.9C283.3,55.6,283.9,56.4,285.4,56.5z M286.9,56.5c1.5-0.1,2-0.9,2-1.9
			c0-0.9-0.5-1.8-2-1.9V56.5z"/>
		<path d="M291.8,58.4v-5.2h1.4v2.9l2.2-2.9h1.2v5.2h-1.4v-2.9l-2.2,2.9H291.8z"/>
		<path d="M298.7,58.5c-0.2,0-0.5,0-0.8-0.1v-1.2c0.1,0,0.2,0.1,0.3,0.1c0.8,0,1-1.7,1.1-4h4v5.2h-1.4v-4h-1.3
			C300.5,56.7,300.1,58.5,298.7,58.5z"/>
		<path d="M305.1,58.4v-5.2h1.4v2.9l2.2-2.9h1.2v5.2h-1.4v-2.9l-2.2,2.9H305.1z"/>
		<path d="M311.7,58.4v-5.2h4.9v5.2h-1.4v-3.9h-2v3.9H311.7z"/>
		<path d="M318.4,58.4v-5.2h4.9v5.2h-1.4v-3.9h-2v3.9H318.4z"/>
		<path d="M327.5,53.1c1.5,0,2.7,0.9,2.7,2.7c0,1.8-1.3,2.7-2.7,2.7c-1.4,0-2.7-0.9-2.7-2.7C324.7,54,326,53.1,327.5,53.1z
			 M327.5,54.4c-0.8,0-1.3,0.6-1.3,1.4c0,0.8,0.5,1.4,1.3,1.4c0.8,0,1.3-0.6,1.3-1.4C328.7,55,328.3,54.4,327.5,54.4z"/>
		<path d="M331.7,58.4v-5.2h3c1.2,0,1.6,0.7,1.6,1.4c0,0.6-0.3,1-0.8,1.2c0.5,0.2,0.9,0.6,0.9,1.2c0,0.7-0.4,1.4-1.7,1.4L331.7,58.4
			L331.7,58.4z M333.1,55.4h1.1c0.3,0,0.6-0.1,0.6-0.5c0-0.4-0.3-0.6-0.6-0.6h-1.1V55.4z M333.1,57.4h1.2c0.4,0,0.7-0.1,0.7-0.6
			c0-0.4-0.3-0.6-0.7-0.6h-1.2V57.4z"/>
		<path d="M342.7,57.4c0.1,0,0.2,0,0.3,0v1c-0.2,0.1-0.5,0.2-0.8,0.2c-0.5,0-0.9-0.2-1.1-0.6c-0.5,0.4-1.1,0.6-1.8,0.6
			c-0.9,0-1.7-0.6-1.7-1.6c0-1.3,1.2-1.7,2.2-1.7c0.4,0,0.8,0.1,1.2,0.1v-0.2c0-0.5-0.4-0.9-1.2-0.9c-0.7,0-1.3,0.2-1.8,0.4v-1.3
			c0.4-0.1,1.2-0.3,1.9-0.3c1.5,0,2.4,0.6,2.4,2.3v1.7C342.3,57.3,342.5,57.4,342.7,57.4z M339,56.9c0,0.4,0.3,0.6,0.8,0.6
			c0.4,0,0.8-0.1,1.1-0.4v-0.8c-0.2-0.1-0.5-0.1-0.9-0.1C339.5,56.1,339,56.3,339,56.9z"/>
	</g>
</g>
</svg>
