<?xml version="1.0" encoding="iso-8859-1"?>
<!-- Generator: Adobe Illustrator 15.1.0, SVG Export Plug-In . SVG Version: 6.00 Build 0)  -->
<!DOCTYPE svg PUBLIC "-//W3C//DTD SVG 1.1//EN" "http://www.w3.org/Graphics/SVG/1.1/DTD/svg11.dtd">
<svg version="1.1" id="Layer_1" xmlns="http://www.w3.org/2000/svg" xmlns:xlink="http://www.w3.org/1999/xlink" x="0px" y="0px"
	 width="510.236px" height="283.465px" viewBox="0 0 510.236 283.465" style="enable-background:new 0 0 510.236 283.465;"
	 xml:space="preserve">
<g>
	<g>
		<g>
			<path d="M234.059,147.405c1.457,0,2.829,0.517,2.829,2.42c0,1.915-1.372,2.421-2.829,2.421h-3.21v-7.701h5.438v1.485h-3.854
				v1.375H234.059z M234.069,150.793c0.622,0,1.203-0.144,1.203-0.969s-0.581-0.968-1.203-0.968h-1.637v1.937H234.069z"/>
			<path d="M239.666,152.399c-0.359,0-0.75-0.076-1.12-0.187v-1.397c0.254,0.088,0.561,0.144,0.855,0.144
				c0.486,0,0.877-0.121,1.141-0.693l0.127-0.275l-2.946-5.445h1.753l1.942,3.96l1.616-3.96h1.742l-2.683,5.94
				C241.418,151.981,240.605,152.399,239.666,152.399z"/>
			<path d="M248.853,144.544c1.785,0,3.189,0.594,3.189,2.585s-1.404,2.586-3.189,2.586h-1.203v2.53h-1.584v-7.701H248.853z
				 M248.927,145.997h-1.277v2.267h1.277c0.813,0,1.499-0.231,1.499-1.134C250.426,146.216,249.739,145.997,248.927,145.997z"/>
			<path d="M253.003,152.246l2.059-2.828c-0.95-0.329-1.646-1.045-1.646-2.299c0-1.849,1.404-2.574,2.967-2.574h3.01v7.701h-1.584
				v-2.618h-1.109l-1.868,2.618H253.003z M256.393,148.251h1.415v-2.255h-1.415c-0.803,0-1.352,0.352-1.352,1.122
				S255.59,148.251,256.393,148.251z"/>
			<path d="M266.963,144.544v1.485h-2.271v6.216h-1.573v-6.216h-2.271v-1.485H266.963z"/>
			<path d="M271.979,144.39c0.739,0,1.479,0.165,2.112,0.495v1.573c-0.476-0.385-1.162-0.605-1.849-0.605
				c-1.299,0-2.607,0.771-2.607,2.63c-0.011,1.694,1.319,2.442,2.607,2.442c0.761,0,1.457-0.22,1.901-0.639v1.618
				c-0.634,0.318-1.362,0.494-2.144,0.494c-1.975,0-3.991-1.231-3.991-3.916C268.019,145.667,270.004,144.39,271.979,144.39z"/>
			<path d="M275.854,152.246v-7.701h1.584v3.059h1.192l1.869-3.059h1.764l-2.397,3.751l2.534,3.95h-1.752l-2.018-3.146h-1.192v3.146
				H275.854z"/>
			<path d="M282.919,152.246l3.021-7.701h1.71l3.01,7.701h-1.637l-0.539-1.441h-3.379l-0.549,1.441H282.919z M285.602,149.44h2.386
				l-1.034-2.762c-0.053-0.153-0.106-0.308-0.159-0.604c-0.053,0.297-0.105,0.451-0.169,0.604L285.602,149.44z"/>
			<path d="M291.377,152.246l2.06-2.828c-0.95-0.329-1.647-1.045-1.647-2.299c0-1.849,1.404-2.574,2.967-2.574h3.01v7.701h-1.584
				v-2.618h-1.108l-1.869,2.618H291.377z M294.767,148.251h1.415v-2.255h-1.415c-0.802,0-1.352,0.352-1.352,1.122
				S293.965,148.251,294.767,148.251z"/>
			<path d="M302.75,152.246v-7.701h5.164v1.485h-3.58v6.216H302.75z"/>
			<path d="M312.877,144.39c2.619,0,3.929,1.914,3.929,4.005c0,2.09-1.31,4.004-3.929,4.004c-2.618,0-3.928-1.914-3.928-4.004
				C308.949,146.304,310.259,144.39,312.877,144.39z M312.877,145.919c-1.541,0-2.313,1.122-2.313,2.476
				c0,1.353,0.771,2.476,2.313,2.476c1.531,0,2.302-1.123,2.302-2.476C315.179,147.042,314.408,145.919,312.877,145.919z"/>
			<path d="M322.064,144.39c0.738,0,1.478,0.165,2.111,0.495v1.573c-0.476-0.385-1.161-0.605-1.848-0.605
				c-1.299,0-2.608,0.771-2.608,2.63c-0.011,1.694,1.32,2.442,2.608,2.442c0.76,0,1.457-0.22,1.9-0.639v1.618
				c-0.634,0.318-1.362,0.494-2.144,0.494c-1.975,0-3.991-1.231-3.991-3.916C318.104,145.667,320.09,144.39,322.064,144.39z"/>
			<path d="M327.102,152.399c-0.359,0-0.75-0.076-1.12-0.187v-1.397c0.254,0.088,0.561,0.144,0.855,0.144
				c0.486,0,0.877-0.121,1.141-0.693l0.127-0.275l-2.946-5.445h1.753l1.942,3.96l1.616-3.96h1.742l-2.683,5.94
				C328.854,151.981,328.041,152.399,327.102,152.399z"/>
			<path d="M332.931,153.917v-3.124h0.865c0.951-1.771,1.173-4.104,1.173-6.249h5.025v6.249h0.94v3.124h-1.395v-1.672h-5.216v1.672
				H332.931z M335.476,150.793h2.936v-4.764h-1.965C336.341,147.735,336.108,149.528,335.476,150.793z"/>
			<path d="M341.812,152.246l3.02-7.701h1.711l3.009,7.701h-1.637l-0.538-1.441h-3.379l-0.549,1.441H341.812z M344.493,149.44h2.387
				l-1.035-2.762c-0.053-0.153-0.105-0.308-0.158-0.604c-0.053,0.297-0.105,0.451-0.169,0.604L344.493,149.44z"/>
			<path d="M353.691,144.544c1.784,0,3.188,0.594,3.188,2.585s-1.404,2.586-3.188,2.586h-1.204v2.53h-1.584v-7.701H353.691z
				 M353.765,145.997h-1.277v2.267h1.277c0.813,0,1.5-0.231,1.5-1.134C355.265,146.216,354.578,145.997,353.765,145.997z"/>
			<path d="M362.033,144.39c0.739,0,1.479,0.165,2.112,0.495v1.573c-0.476-0.385-1.162-0.605-1.849-0.605
				c-1.299,0-2.607,0.771-2.607,2.63c-0.011,1.694,1.319,2.442,2.607,2.442c0.761,0,1.457-0.22,1.901-0.639v1.618
				c-0.634,0.318-1.362,0.494-2.144,0.494c-1.975,0-3.991-1.231-3.991-3.916C358.073,145.667,360.059,144.39,362.033,144.39z"/>
			<path d="M371.368,144.544v1.485h-2.271v6.216h-1.573v-6.216h-2.271v-1.485H371.368z"/>
			<path d="M376.057,144.544c1.573,0,2.556,0.627,2.556,1.947c0,0.902-0.465,1.452-1.119,1.683c0.729,0.221,1.415,0.781,1.415,1.915
				c0,1.749-1.616,2.156-2.904,2.156h-3.178v-7.701H376.057z M376.067,148.923h-1.668v1.979h1.584c0.707,0,1.341-0.153,1.341-0.99
				C377.324,149.099,376.701,148.923,376.067,148.923z M375.92,145.897h-1.51v1.761h1.594c0.603,0,1.035-0.286,1.035-0.88
				C377.039,146.172,376.616,145.897,375.92,145.897z"/>
			<path d="M385.814,144.544v1.452h-3.622v1.639h3.305v1.441h-3.305v1.717h3.686v1.452h-5.27v-7.701H385.814z"/>
			<path d="M394.135,144.544v7.701h-1.584v-3.103h-3.315v3.103h-1.584v-7.701h1.584v3.103h3.315v-3.103H394.135z"/>
			<path d="M402.731,144.544v7.701h-1.584v-3.103h-3.315v3.103h-1.584v-7.701h1.584v3.103h3.315v-3.103H402.731z"/>
			<path d="M404.083,152.246l3.021-7.701h1.71l3.01,7.701h-1.637l-0.538-1.441h-3.379l-0.55,1.441H404.083z M406.766,149.44h2.386
				l-1.034-2.762c-0.053-0.153-0.105-0.308-0.158-0.604c-0.053,0.297-0.106,0.451-0.169,0.604L406.766,149.44z"/>
			<path d="M412.542,152.246l2.06-2.828c-0.95-0.329-1.647-1.045-1.647-2.299c0-1.849,1.404-2.574,2.967-2.574h3.01v7.701h-1.584
				v-2.618h-1.108l-1.869,2.618H412.542z M415.932,148.251h1.415v-2.255h-1.415c-0.803,0-1.352,0.352-1.352,1.122
				S415.129,148.251,415.932,148.251z"/>
			<path d="M234.407,157.59c0.738,0,1.478,0.165,2.111,0.495v1.573c-0.476-0.385-1.161-0.605-1.848-0.605
				c-1.299,0-2.608,0.771-2.608,2.63c-0.011,1.694,1.32,2.442,2.608,2.442c0.76,0,1.457-0.22,1.9-0.639v1.618
				c-0.634,0.318-1.362,0.494-2.144,0.494c-1.975,0-3.991-1.231-3.991-3.916C230.447,158.867,232.433,157.59,234.407,157.59z"/>
			<path d="M243.488,157.745v1.452h-3.622v1.639h3.305v1.441h-3.305v1.717h3.686v1.452h-5.27v-7.701H243.488z"/>
			<path d="M251.703,157.745v7.701h-1.583v-6.216h-2.027c-0.254,3.278-0.592,6.304-2.641,6.314c-0.253,0-0.527-0.033-0.823-0.143
				v-1.452c0.138,0.044,0.296,0.065,0.507,0.055c1.246-0.088,1.31-3.554,1.499-6.26H251.703z"/>
			<path d="M253.816,165.446v-7.701h1.584v2.53h1.203c1.785,0.011,3.189,0.594,3.189,2.585s-1.404,2.586-3.189,2.586H253.816z
				 M255.4,163.994h1.277c0.813,0,1.499-0.231,1.499-1.134c0-0.901-0.687-1.133-1.499-1.133H255.4V163.994z"/>
			<path d="M264.946,157.59c0.738,0,1.478,0.165,2.111,0.495v1.573c-0.476-0.385-1.161-0.605-1.848-0.605
				c-1.299,0-2.608,0.771-2.608,2.63c-0.011,1.694,1.32,2.442,2.608,2.442c0.76,0,1.457-0.22,1.9-0.639v1.618
				c-0.634,0.318-1.362,0.494-2.144,0.494c-1.975,0-3.991-1.231-3.991-3.916C260.986,158.867,262.972,157.59,264.946,157.59z"/>
			<path d="M268.821,165.446v-7.701h1.584v3.059h1.193l1.869-3.059h1.763l-2.396,3.751l2.534,3.95h-1.753l-2.017-3.146h-1.193v3.146
				H268.821z"/>
			<path d="M280.163,157.59c2.618,0,3.928,1.914,3.928,4.005c0,2.09-1.31,4.004-3.928,4.004c-2.619,0-3.928-1.914-3.928-4.004
				C276.235,159.504,277.544,157.59,280.163,157.59z M280.163,159.12c-1.542,0-2.313,1.122-2.313,2.476
				c0,1.353,0.771,2.476,2.313,2.476c1.531,0,2.302-1.123,2.302-2.476C282.465,160.242,281.694,159.12,280.163,159.12z"/>
			<path d="M284.936,165.446l2.65-3.994l-2.491-3.707h1.848l1.637,2.53l1.626-2.53h1.858l-2.492,3.707l2.65,3.994h-1.858
				l-1.784-2.806l-1.795,2.806H284.936z"/>
			<path d="M296.995,157.59c2.619,0,3.929,1.914,3.929,4.005c0,2.09-1.31,4.004-3.929,4.004c-2.618,0-3.928-1.914-3.928-4.004
				C293.067,159.504,294.377,157.59,296.995,157.59z M296.995,159.12c-1.541,0-2.313,1.122-2.313,2.476
				c0,1.353,0.771,2.476,2.313,2.476c1.531,0,2.302-1.123,2.302-2.476C299.297,160.242,298.526,159.12,296.995,159.12z"/>
			<path d="M304.979,165.599c-0.877,0-1.753-0.132-2.735-0.494v-1.585c0.972,0.495,1.838,0.605,2.619,0.595
				c0.803,0,1.573-0.209,1.573-1.002c0-0.715-0.612-0.901-1.33-0.901h-1.669l0.011-1.452H305c0.696,0,1.15-0.265,1.15-0.804
				c0-0.616-0.528-0.88-1.468-0.88c-0.665-0.011-1.415,0.143-2.313,0.594v-1.573c0.855-0.374,1.679-0.506,2.45-0.506
				c1.731,0,2.914,0.683,2.914,2.102c0,0.847-0.465,1.43-1.183,1.683c0.771,0.221,1.479,0.825,1.479,1.98
				C308.03,165.072,306.446,165.599,304.979,165.599z"/>
			<path d="M309.107,165.446l2.06-2.828c-0.95-0.329-1.647-1.045-1.647-2.299c0-1.849,1.404-2.574,2.967-2.574h3.01v7.701h-1.584
				v-2.618h-1.108l-1.869,2.618H309.107z M312.497,161.452h1.415v-2.255h-1.415c-0.802,0-1.352,0.352-1.352,1.122
				S311.695,161.452,312.497,161.452z"/>
			<path d="M322.508,165.446v-3.972c0-0.353,0.011-0.737,0.032-1.057l-3.442,5.028h-1.489v-7.701h1.584v3.972
				c0,0.352-0.011,0.737-0.031,1.056l3.442-5.027h1.488v7.701H322.508z M322.508,156.71v-1.199c-0.56,0.363-1.087,0.473-1.657,0.473
				s-1.088-0.109-1.647-0.473v1.199c0.465,0.341,0.961,0.495,1.647,0.495C321.536,157.206,322.043,157.051,322.508,156.71z"/>
			<path d="M329.763,157.59c0.739,0,1.479,0.165,2.112,0.495v1.573c-0.476-0.385-1.162-0.605-1.849-0.605
				c-1.299,0-2.607,0.771-2.607,2.63c-0.011,1.694,1.319,2.442,2.607,2.442c0.761,0,1.457-0.22,1.901-0.639v1.618
				c-0.634,0.318-1.362,0.494-2.144,0.494c-1.975,0-3.991-1.231-3.991-3.916C325.803,158.867,327.788,157.59,329.763,157.59z"/>
			<path d="M339.098,157.745v1.485h-2.271v6.216h-1.573v-6.216h-2.271v-1.485H339.098z"/>
			<path d="M343.786,157.745c1.573,0,2.555,0.627,2.555,1.947c0,0.902-0.464,1.452-1.119,1.683c0.729,0.221,1.415,0.781,1.415,1.915
				c0,1.749-1.615,2.156-2.903,2.156h-3.179v-7.701H343.786z M343.797,162.124h-1.669v1.979h1.584c0.708,0,1.341-0.153,1.341-0.99
				C345.053,162.299,344.43,162.124,343.797,162.124z M343.648,159.097h-1.51v1.761h1.595c0.602,0,1.034-0.286,1.034-0.88
				C344.768,159.373,344.346,159.097,343.648,159.097z"/>
			<path d="M353.543,157.745v1.452h-3.621v1.639h3.305v1.441h-3.305v1.717h3.685v1.452h-5.269v-7.701H353.543z"/>
			<path d="M361.864,157.745v7.701h-1.584v-3.103h-3.315v3.103h-1.584v-7.701h1.584v3.103h3.315v-3.103H361.864z"/>
			<path d="M370.46,157.745v7.701h-1.584v-3.103h-3.315v3.103h-1.584v-7.701h1.584v3.103h3.315v-3.103H370.46z"/>
			<path d="M371.813,165.446l3.02-7.701h1.711l3.009,7.701h-1.637l-0.538-1.441h-3.379l-0.549,1.441H371.813z M374.494,162.64h2.387
				l-1.035-2.762c-0.053-0.153-0.105-0.308-0.158-0.604c-0.053,0.297-0.105,0.451-0.169,0.604L374.494,162.64z"/>
			<path d="M380.271,165.446l2.06-2.828c-0.95-0.329-1.647-1.045-1.647-2.299c0-1.849,1.404-2.574,2.967-2.574h3.01v7.701h-1.584
				v-2.618h-1.108l-1.869,2.618H380.271z M383.66,161.452h1.415v-2.255h-1.415c-0.802,0-1.352,0.352-1.352,1.122
				S382.858,161.452,383.66,161.452z"/>
			<path d="M390.884,165.446l3.02-7.701h1.711l3.01,7.701h-1.637l-0.539-1.441h-3.379l-0.549,1.441H390.884z M393.565,162.64h2.387
				l-1.035-2.762c-0.053-0.153-0.105-0.308-0.158-0.604c-0.053,0.297-0.105,0.451-0.169,0.604L393.565,162.64z"/>
			<path d="M399.976,165.446v-7.701h1.584v3.059h1.193l1.868-3.059h1.764l-2.396,3.751l2.534,3.95h-1.753l-2.017-3.146h-1.193v3.146
				H399.976z"/>
			<path d="M407.04,165.446l3.021-7.701h1.71l3.01,7.701h-1.637l-0.538-1.441h-3.379l-0.55,1.441H407.04z M409.723,162.64h2.386
				l-1.034-2.762c-0.053-0.153-0.105-0.308-0.158-0.604c-0.053,0.297-0.106,0.451-0.169,0.604L409.723,162.64z"/>
			<path d="M415.563,167.118v-3.124h0.866c0.95-1.771,1.172-4.104,1.172-6.249h5.026v6.249h0.939v3.124h-1.394v-1.672h-5.217v1.672
				H415.563z M418.107,163.994h2.936v-4.764h-1.964C418.974,160.935,418.741,162.728,418.107,163.994z"/>
			<path d="M430.409,157.745v1.452h-3.622v1.639h3.305v1.441h-3.305v1.717h3.685v1.452h-5.269v-7.701H430.409z"/>
			<path d="M440.24,157.745v7.701h-1.584v-4.742l-1.953,3.092h-0.919l-1.953-3.103v4.753h-1.584v-7.701h1.468l2.534,4.005
				l2.523-4.005H440.24z"/>
			<path d="M447.252,165.446v-3.972c0-0.353,0.011-0.737,0.031-1.057l-3.442,5.028h-1.488v-7.701h1.584v3.972
				c0,0.352-0.011,0.737-0.032,1.056l3.442-5.027h1.489v7.701H447.252z"/>
			<path d="M450.314,165.446l2.06-2.828c-0.951-0.329-1.647-1.045-1.647-2.299c0-1.849,1.404-2.574,2.967-2.574h3.01v7.701h-1.584
				v-2.618h-1.108l-1.869,2.618H450.314z M453.704,161.452h1.415v-2.255h-1.415c-0.803,0-1.352,0.352-1.352,1.122
				S452.901,161.452,453.704,161.452z"/>
			<path d="M230.68,178.645v-5.28h1.468v2.97l2.26-2.97h1.267v5.28h-1.457v-2.97l-2.26,2.97H230.68z"/>
			<path d="M237.448,178.645v-5.28h1.404l1.573,2.618l1.584-2.618h1.394v5.28h-1.414v-3.113l-1.193,1.97h-0.729l-1.193-1.97v3.113
				H237.448z"/>
			<path d="M247.501,173.21c2.102,0,2.777,1.728,2.439,3.289h-3.569c0.169,0.771,0.95,1.09,1.784,1.09
				c0.581,0,1.099-0.121,1.531-0.319v1.199c-0.475,0.209-1.098,0.33-1.858,0.33c-1.604,0-2.936-0.957-2.936-2.794
				C244.893,174.013,246.36,173.21,247.501,173.21z M247.554,174.376c-0.623,0-1.172,0.407-1.193,1.134h2.26
				C248.673,175.147,248.473,174.376,247.554,174.376z"/>
			<path d="M251.461,178.645v-5.28h1.468v2.002h2.049v-2.002h1.468v5.28h-1.468v-2.002h-2.049v2.002H251.461z"/>
			<path d="M258.22,178.645v-5.28h1.468v2.97l2.26-2.97h1.267v5.28h-1.457v-2.97l-2.26,2.97H258.22z"/>
			<path d="M271.261,170.944c1.573,0,2.555,0.627,2.555,1.947c0,0.902-0.464,1.452-1.119,1.684c0.729,0.22,1.415,0.781,1.415,1.914
				c0,1.749-1.615,2.156-2.903,2.156h-3.179v-7.701H271.261z M271.271,175.323h-1.669v1.98h1.584c0.708,0,1.341-0.154,1.341-0.99
				C272.527,175.499,271.904,175.323,271.271,175.323z M271.123,172.297h-1.51v1.76h1.595c0.602,0,1.034-0.285,1.034-0.88
				C272.242,172.573,271.82,172.297,271.123,172.297z"/>
			<path d="M276.34,178.789c-0.475,0-0.897-0.286-0.897-0.902s0.423-0.902,0.897-0.902c0.476,0,0.888,0.286,0.888,0.902
				S276.815,178.789,276.34,178.789z"/>
			<path d="M281.757,170.944c1.785,0,3.189,0.595,3.189,2.586s-1.404,2.585-3.189,2.585h-1.203v2.53h-1.584v-7.701H281.757z
				 M281.831,172.396h-1.277v2.267h1.277c0.813,0,1.499-0.23,1.499-1.133C283.33,172.617,282.644,172.396,281.831,172.396z"/>
			<path d="M287.068,178.789c-0.475,0-0.897-0.286-0.897-0.902s0.423-0.902,0.897-0.902c0.476,0,0.888,0.286,0.888,0.902
				S287.544,178.789,287.068,178.789z"/>
			<path d="M295.675,179.075v-0.969c-2.218-0.099-3.664-1.287-3.664-3.312s1.446-3.212,3.664-3.312v-0.968h1.521v0.968
				c2.196,0.11,3.633,1.299,3.633,3.312c0,2.014-1.437,3.202-3.633,3.312v0.969H295.675z M295.675,176.731v-3.872
				c-1.531,0.109-2.08,0.957-2.08,1.936C293.595,175.774,294.144,176.621,295.675,176.731z M297.195,176.731
				c1.499-0.121,2.049-0.968,2.049-1.937c0-0.968-0.55-1.815-2.049-1.936V176.731z"/>
			<path d="M302.212,178.645v-5.28h1.468v2.97l2.26-2.97h1.267v5.28h-1.457v-2.97l-2.26,2.97H302.212z"/>
			<path d="M309.298,178.755c-0.232,0-0.507-0.044-0.803-0.154v-1.21c0.105,0.044,0.211,0.066,0.306,0.066
				c0.803,0,0.982-1.728,1.077-4.093h4.118v5.28h-1.468v-4.07h-1.299C311.082,176.951,310.691,178.755,309.298,178.755z"/>
			<path d="M315.771,178.645v-5.28h1.468v2.97l2.26-2.97h1.268v5.28h-1.458v-2.97l-2.259,2.97H315.771z"/>
			<path d="M322.539,178.645v-5.28h4.984v5.28h-1.468v-3.993h-2.049v3.993H322.539z"/>
			<path d="M329.298,178.645v-5.28h4.983v5.28h-1.468v-3.993h-2.048v3.993H329.298z"/>
			<path d="M338.569,173.21c1.478,0,2.798,0.946,2.798,2.795c0,1.848-1.32,2.794-2.798,2.794c-1.468,0-2.799-0.946-2.799-2.794
				C335.771,174.157,337.102,173.21,338.569,173.21z M338.569,174.575c-0.835,0-1.299,0.616-1.299,1.431
				c0,0.813,0.464,1.43,1.299,1.43c0.845,0,1.309-0.616,1.309-1.43C339.878,175.191,339.414,174.575,338.569,174.575z"/>
			<path d="M342.856,178.645v-5.28h3.021c1.203,0,1.668,0.682,1.668,1.396c0,0.605-0.285,1.013-0.781,1.211
				c0.549,0.187,0.897,0.604,0.897,1.243c0,0.748-0.423,1.43-1.7,1.43H342.856z M344.313,175.532h1.119
				c0.349,0,0.634-0.143,0.634-0.55c0-0.44-0.306-0.572-0.644-0.572h-1.109V175.532z M344.324,177.6h1.204
				c0.369,0,0.676-0.143,0.676-0.562c0-0.45-0.317-0.583-0.676-0.583h-1.204V177.6z"/>
			<path d="M354.07,177.633c0.085,0,0.18-0.011,0.275-0.044v1.001c-0.232,0.088-0.528,0.154-0.813,0.154
				c-0.518,0-0.908-0.198-1.119-0.595c-0.496,0.407-1.077,0.649-1.827,0.649c-0.95,0-1.773-0.572-1.773-1.617
				c0-1.342,1.214-1.761,2.228-1.761c0.401,0,0.845,0.056,1.204,0.144v-0.188c0-0.527-0.401-0.891-1.193-0.891
				c-0.697,0-1.32,0.198-1.795,0.396v-1.319c0.412-0.144,1.183-0.353,1.964-0.353c1.521,0,2.492,0.649,2.492,2.388v1.683
				C353.712,177.556,353.881,177.633,354.07,177.633z M350.312,177.061c0,0.396,0.349,0.649,0.792,0.649
				c0.412,0,0.803-0.121,1.141-0.43v-0.825c-0.222-0.055-0.56-0.121-0.866-0.121C350.84,176.334,350.312,176.522,350.312,177.061z"
				/>
		</g>
	</g>
	<g>
		<polygon style="fill:#C9243F;" points="108.232,220.376 107.281,221.081 106.405,219.697 108.636,218.128 110.113,218.128 
			110.113,225.026 108.232,225.026 		"/>
		<path style="fill:#C9243F;" d="M123.545,221.251c0.25,0,0.573-0.16,0.801-0.432v-0.081c0-0.682-0.376-1.095-0.813-1.095
			c-0.49,0-0.781,0.364-0.781,0.822C122.753,220.93,123.053,221.251,123.545,221.251 M126.097,220.908
			c0,1.999-1.326,3.915-3.794,4.388l-0.496-1.418c1.196-0.326,1.872-0.79,2.218-1.464l-0.005-0.012
			c-0.315,0.154-0.665,0.227-0.985,0.227c-1.034,0-2.038-0.765-2.038-2.232c0-1.433,1.114-2.368,2.52-2.368
			C125.111,218.028,126.097,219.196,126.097,220.908"/>
		<path style="fill:#C9243F;" d="M136.451,223.479l1.62-0.625c0.121,0.443,0.371,0.662,0.813,0.662c0.314,0,0.622-0.201,0.622-0.643
			c0-0.369-0.258-0.652-0.761-0.652h-0.41v-1.411h0.529c0.361,0,0.595-0.224,0.595-0.563c0-0.361-0.237-0.584-0.595-0.584
			c-0.331,0-0.52,0.161-0.65,0.509l-1.496-0.787c0.279-0.784,1.167-1.356,2.193-1.356c1.292,0,2.313,0.685,2.313,1.873
			c0,0.667-0.308,1.198-0.834,1.549v0.031c0.653,0.301,1.054,0.846,1.054,1.646c0,1.23-1.026,1.996-2.418,1.996
			C137.743,225.125,136.784,224.411,136.451,223.479"/>
		<polygon style="fill:#C9243F;" points="153.541,220.376 152.601,221.081 151.713,219.697 153.953,218.128 155.43,218.128 
			155.43,225.026 153.541,225.026 		"/>
		<path style="fill:#C9243F;" d="M197.251,164.172h-18.749c3.351-8.561,9.206-14.176,18.749-15.5V164.172z M64.614,178.413
			c0,0,0.09-1.021,0-1.645V166.51c-0.006-0.981,0-2.393,0-2.393s17.03-3.08,17.256,7.137
			C81.895,182.166,64.614,178.413,64.614,178.413 M207.585,136.448c-21.933,0.361-37.376,10.023-41.113,33.108
			c-1.787-2.871-5.351-8.597-5.351-8.597l16.749-24.35h-12.056l-11.366,15.897c0,0-4.817-7.113-7.232-10.674
			c-0.022-1.014,0.019-4.231,0-4.818c-8.893-0.831-17.277,0.355-24.642,4.21v-4.615H90.474l-0.025,25.398
			c-1.975-3.231-4.688-5.281-6.286-6.152c-2.577-1.413-7.337-3.194-13.119-3.2c-3.256-0.007-5.535,0.356-6.506,0.547v-6.085
			c4.775,0.065,13.457,0,15.975-0.016h1.188c3.226,0,5.154,2.254,5.154,2.254v-12.687v-0.025c-9.314-0.018-32.712-0.056-33.322-0.06
			v51.86h0.22c0,0,13.705,0.036,19.889,0.148c11.983,0.2,15.517-6.067,16.806-8.393l0.025,8.224h10.898
			c0,0,0.019-29.687,0.047-41.08h12.66c-18.651,21.812-9.828,58.883,25.178,61.067c10.163,0.026,18.681-2.523,25.339-9.343
			l-6.503-9.311c-6.376,9.139-29.11,12.227-39.042-3.775c-8.858-14.036-1.189-37.421,20.196-37.678
			c3.068,4.232,9.222,12.696,9.222,12.696l-20.004,27.441h13.109l3.679-5.264c0.198-0.356,0.43-0.712,0.716-1.071
			c2.776-3.946,5.558-7.9,8.334-11.846c2.045,2.554,12.887,18.181,12.887,18.181h13.549c0,0,0.642-0.025,0.893-0.06
			c-2.993-3.722-4.977-8.536-4.384-13.03c0.04-0.296,0.153-0.899,0.153-0.899h19.483v13.991h10.713h0.009
			C207.606,188.445,207.632,140.157,207.585,136.448"/>
		<path style="fill:#FEC340;" d="M164.27,73.107l0.021-0.024c-0.005,0-0.011,0.004-0.014,0.007c0.002-0.008,0.002-0.012,0.002-0.015
			l-0.015,0.018c-5.696,1.723-12.52,2.677-17.133,9.376c-2.475,3.604-4.035,11.993-3.997,11.986c-0.01,0.04,8.292-1.534,11.86-4.039
			C161.618,85.756,162.567,78.856,164.27,73.107"/>
		<path style="fill:#FEC340;" d="M146.745,115.085c-2.996-0.038-4.664-0.013-7.629-0.021c-6.904-0.012-15.718,0.775-23.717,7.99
			c-0.281,0.256-0.475,0.33-0.583,0.297c-0.071-0.02-0.234-0.193-0.264-0.255c-0.047-0.104,0.016-0.304,0.287-0.607
			c7.144-8.083,7.923-16.987,7.905-23.965c-0.004-3.002,0.018-4.687-0.02-7.717c-7.527,5.177-12.511,11.717-13.948,17.117
			c-1.785,6.729,1.115,15.277-0.202,21.461h0.005c6.111-1.328,14.575,1.597,21.235-0.205
			C135.158,127.731,141.623,122.692,146.745,115.085"/>
		<path style="fill:#FEC340;" d="M164.003,97.633c-2.994-0.036-4.663-0.011-7.629-0.018c-6.906-0.019-15.714,0.776-23.717,7.99
			c-0.285,0.255-0.476,0.332-0.583,0.297c-0.07-0.02-0.242-0.195-0.261-0.25c-0.049-0.107,0.015-0.31,0.282-0.611
			c7.144-8.087,7.924-16.99,7.912-23.967c-0.01-3,0.012-4.682-0.021-7.71c-7.528,5.172-12.519,11.709-13.952,17.111
			c-1.785,6.729,1.114,15.282-0.203,21.458c6.116-1.324,14.58,1.604,21.241-0.203C152.419,110.282,158.883,105.241,164.003,97.633"
			/>
		<path style="fill:#C9243F;" d="M107.908,91.317c0.61-7.426,2.407-13.276,5.607-17.73c4.025-5.589,8.879-10.041,13.061-15.417
			c0.56,5.104,1.5,9.551,1,14.725c-1.378,14.371-14.034,19.025-19.786,27.84C107.547,98.449,107.854,91.938,107.908,91.317"/>
		<path style="fill:#FEC340;" d="M176.254,124.975c-0.444-1.874-1-3.721-1.655-5.5l-0.278-0.735l-6.14,2.272l0.269,0.736
			c0.317,0.853,0.576,1.633,0.797,2.381l0.223,0.755l2-0.605c0.087,0.311,0.17,0.636,0.266,0.979l-3.381,0.796
			c-0.392-1.51-0.877-3.019-1.455-4.501l-0.289-0.733l-0.005,0.003l-0.264-0.607c-0.616-1.426-1.343-2.848-2.147-4.222l2.954-1.82
			c0.164,0.283,0.334,0.576,0.504,0.882l-1.834,0.98l0.359,0.692c0.418,0.765,0.792,1.526,1.123,2.247l0.328,0.715l5.957-2.729
			l-0.326-0.712c-2.091-4.557-4.871-8.718-8.262-12.373l-0.534-0.57l-1.253,1.162l-3.434,3.424l0.419,0.444
			c0.51,0.551,1.038,1.149,1.65,1.895l0.499,0.6l1.61-1.313c0.22,0.283,0.424,0.546,0.616,0.804l-2.815,2.031
			c-0.902-1.206-1.896-2.37-2.953-3.479l-1.106,1.108c1.186,1.244,2.274,2.559,3.254,3.919l0.459,0.638l5.352-3.868l-0.452-0.63
			c-0.45-0.635-0.972-1.311-1.628-2.127l-0.498-0.61l-1.629,1.33c-0.237-0.279-0.458-0.538-0.686-0.789l2.506-2.317
			c2.863,3.19,5.262,6.771,7.12,10.661l-3.098,1.428c-0.151-0.308-0.303-0.622-0.466-0.933l1.849-0.995L169.412,115
			c-0.45-0.839-0.883-1.603-1.339-2.322l-0.41-0.668l-5.621,3.467l0.409,0.671c0.939,1.517,1.763,3.096,2.453,4.69l0.315,0.718
			l0.225,0.566c0.647,1.661,1.168,3.358,1.567,5.05l0.179,0.771l6.441-1.512l-0.188-0.766c-0.242-1.014-0.464-1.839-0.692-2.593
			l-0.227-0.742l-2.007,0.602c-0.105-0.32-0.209-0.651-0.333-0.988l3.207-1.188c0.521,1.495,0.973,3.027,1.336,4.573l0.176,0.768
			l1.535-0.361L176.254,124.975z"/>
		<path style="fill:#FEC340;" d="M103.149,106.154c0.54-0.515,1.148-1.037,1.892-1.647l0.598-0.497l-1.318-1.611
			c0.286-0.223,0.55-0.425,0.808-0.617v-1.939l-0.282,0.201c-0.641,0.454-1.318,0.978-2.128,1.629l-0.61,0.493l1.327,1.631
			c-0.276,0.239-0.529,0.461-0.781,0.686l-2.322-2.508c1.511-1.358,3.112-2.606,4.797-3.746v-1.873
			c-2.289,1.474-4.442,3.142-6.444,4.999l-0.572,0.531l4.454,4.813L103.149,106.154z"/>
		<path style="fill:#FEC340;" d="M103.07,108.129v-0.008l-0.046,0.051l-0.039,0.033l-0.465,0.486
			c-1.099,1.143-2.133,2.352-3.076,3.604l-2.813-2.039c0.191-0.252,0.397-0.518,0.618-0.804l1.609,1.321l0.499-0.604
			c0.619-0.743,1.145-1.347,1.654-1.891l0.542-0.573l-4.799-4.466l-0.535,0.575c-3.401,3.647-6.191,7.803-8.287,12.356l-0.325,0.713
			l5.953,2.736l0.326-0.713c0.328-0.727,0.706-1.479,1.119-2.248l0.374-0.688l-1.835-0.991c0.167-0.302,0.341-0.594,0.506-0.872
			l2.95,1.827c-0.813,1.37-1.542,2.788-2.158,4.211l-0.271,0.608l-0.006-0.002l-0.279,0.73c-0.581,1.477-1.077,2.993-1.463,4.505
			l-3.378-0.804c0.093-0.348,0.176-0.673,0.261-0.978l1.999,0.605l0.228-0.759c0.225-0.751,0.489-1.531,0.8-2.379l0.271-0.731
			l-6.14-2.284l-0.278,0.732c-0.673,1.808-1.246,3.696-1.688,5.603l-0.185,0.765l1.532,0.356l0.177-0.761
			c0.37-1.588,0.833-3.161,1.37-4.677L91,121.871c-0.121,0.337-0.228,0.664-0.339,0.987l-2-0.606L88.435,123
			c-0.239,0.751-0.461,1.576-0.701,2.587l-0.188,0.764l6.435,1.518l0.179-0.759c0.401-1.694,0.936-3.39,1.583-5.052l0.219-0.563
			h0.002l0.313-0.719c0.698-1.596,1.527-3.171,2.468-4.688l0.411-0.667l-5.611-3.477l-0.42,0.666
			c-0.447,0.722-0.891,1.478-1.343,2.315l-0.375,0.69l1.853,0.997c-0.158,0.313-0.312,0.628-0.464,0.932l-3.097-1.429
			c1.869-3.885,4.265-7.466,7.138-10.652l2.501,2.325c-0.22,0.245-0.447,0.504-0.685,0.786l-1.626-1.333l-0.498,0.605
			c-0.655,0.811-1.174,1.484-1.629,2.126l-0.458,0.635l5.348,3.874l0.459-0.637c1.025-1.419,2.17-2.786,3.402-4.066l0.489-0.501
			l0.494-0.484c0.166-0.151,0.333-0.302,0.496-0.452v-2.103c-0.537,0.46-1.063,0.937-1.577,1.425L103.07,108.129z"/>
	</g>
</g>
</svg>
